<svg xmlns="http://www.w3.org/2000/svg" width="170.642" height="120" viewBox="0 0 170.642 120">
  <g id="undraw_message_sent_re_q2kl" transform="translate(0.007 4.496)">
    <path id="Path_277" data-name="Path 277" d="M270.413,299.068l-7.822-4.406a28.965,28.965,0,0,1,3.049-13.6c1.8,8.185,11.294,12.08,15.673,19.226a17.423,17.423,0,0,1,1.415,15.035l.514,6.346a29.2,29.2,0,0,1-18.33-16.174,28.2,28.2,0,0,1-1.956-6.8C266.6,299.087,270.413,299.068,270.413,299.068Z" transform="translate(-262.591 -250.978)" fill="#f2f2f2"/>
    <path id="Path_278" data-name="Path 278" d="M851.893,665.832l.24-5.393a17.418,17.418,0,0,1,8.124-2.057c-3.9,3.19-3.414,9.34-6.06,13.63a10.477,10.477,0,0,1-7.683,4.842l-3.265,2a17.556,17.556,0,0,1,3.7-14.226,16.961,16.961,0,0,1,3.117-2.9C850.849,663.792,851.893,665.832,851.893,665.832Z" transform="translate(-695.041 -563.772)" fill="#f2f2f2"/>
    <path id="Path_279" data-name="Path 279" d="M568.7,541.253h-2.957l-1.407-11.4H568.7Z" transform="translate(-420.262 -428.948)" fill="#ffb6b6"/>
    <path id="Path_280" data-name="Path 280" d="M818.092,727.63h-9.534v-.121a3.711,3.711,0,0,1,3.711-3.711h0l1.741-1.321,3.249,1.321h.832Z" transform="translate(-668.898 -612.46)" fill="#2f2e41"/>
    <path id="Path_281" data-name="Path 281" d="M511.561,541.253H508.6l-1.407-11.4h4.364Z" transform="translate(-376.858 -428.948)" fill="#ffb6b6"/>
    <path id="Path_282" data-name="Path 282" d="M760.952,727.63h-9.534v-.121a3.711,3.711,0,0,1,3.711-3.711h0l1.742-1.321,3.249,1.321h.832Z" transform="translate(-625.495 -612.46)" fill="#2f2e41"/>
    <path id="Path_283" data-name="Path 283" d="M767.456,472.631l19.232.481c3.653,1.984,3.708,6.278,2.511,11.376,0,0,.4,3.03-.4,3.838s-1.212.808-.808,2.222-1.731,3.724-1.471,3.983a10.452,10.452,0,0,1,.865,1.673l-2.02,11.514s-1.414,20-1.818,20.4-.808,0-.4,1.01.808.606.4,1.01a14.863,14.863,0,0,0-1.01,1.212h-4.884s-.368-2.02-.368-2.222-.4-1.414-.4-1.616.357-.559.357-.559a6.649,6.649,0,0,0,.249-1.259c0-.4,1.212-15.958,1.212-15.958l-2.424-20.2-5.858,19.8s0,17.372-.4,17.776-.4.2-.2,1.01,1.01.606.4,1.212-.808-.4-.606.606l.2,1.01-6.06.087s-.808-1.7-.4-2.309.38-.441-.113-1.432-.695-1.194-.493-1.4.2-1.276.2-1.276l1.01-19.328s.2-20.4.2-21.009a2.016,2.016,0,0,0-.168-.909v-.823l.774-2.915Z" transform="translate(-634.033 -422.676)" fill="#2f2e41"/>
    <circle id="Ellipse_98" data-name="Ellipse 98" cx="5.975" cy="5.975" r="5.975" transform="translate(139 -1.985)" fill="#ffb6b6"/>
    <path id="Path_284" data-name="Path 284" d="M785.964,313.535a6.168,6.168,0,0,0-2.5,3.6A34.134,34.134,0,0,0,782,325.294l-.467,8.288-5.783,17.647c5.012,4.241,23.85.964,23.85.964s.578-.193,0-.771-1.141-.066-.563-.644.18.066-.013-.512,0-.193.193-.385-1.492-1.928-1.492-1.928l1.542-10.13,1.928-20.432c-2.313-2.891-6.965-4.6-6.965-4.6l-1.2-2.164-6.01.481Z" transform="translate(-643.976 -299.62)" fill="#e6e6e6"/>
    <path id="Path_285" data-name="Path 285" d="M808.022,251.105a2.825,2.825,0,0,1,.685.09,9.75,9.75,0,0,0,1.341.225,6.215,6.215,0,0,1,5.565,5.271c.347-.3,1.137-.86,1.785-.342h0c.01.008.016.012.038,0,.43-.2,1.194-2.715,1.217-4.926.012-1.174-.172-2.672-1.122-3.147l-.05-.025-.013-.054c-.063-.264-.772-.715-2-1.065-2.238-.637-5.573-1.879-7.452-.052-.142.616-.6,1.934-1.072,2.084-.517.165-.964.308-1.034.943a19.44,19.44,0,0,0,.013,2.712,2.769,2.769,0,0,1,.984-1.382A1.95,1.95,0,0,1,808.022,251.105Z" transform="translate(-666.853 -250.622)" fill="#2f2e41"/>
    <path id="Path_286" data-name="Path 286" d="M705.234,363.78l9.761-6.251-4.916-6.535-4.854,5.971-15.126.928a2.883,2.883,0,1,0-.161,4.248Z" transform="translate(-575.187 -330.279)" fill="#ffb6b6"/>
    <path id="Path_287" data-name="Path 287" d="M785.532,327.8c.567,3.428-10.132,9.975-10.132,9.975,0-.8-6.385,5.27-6.674,4.6-.819-1.9-1.4-6.389-2.54-7.109-.655-.411,3.942-4.274,3.942-4.274s2.406-2.424,5.564-5.482a7.367,7.367,0,0,1,6.823-1.994A5.25,5.25,0,0,1,785.532,327.8Z" transform="translate(-636.665 -309.276)" fill="#e6e6e6"/>
    <path id="Path_288" data-name="Path 288" d="M889.831,380.591l-6.456-9.626-6.43,5.053,6.073,4.727,1.248,15.1a2.883,2.883,0,1,0,4.25.071Z" transform="translate(-720.845 -345.45)" fill="#ffb6b6"/>
    <path id="Path_289" data-name="Path 289" d="M852.828,333.968c3.416-.639,10.188,9.918,10.188,9.918-.8.017,5.4,6.272,4.743,6.575-1.879.859-6.359,1.53-7.053,2.69-.4.663-4.357-3.851-4.357-3.851s-2.474-2.354-5.6-5.447a7.367,7.367,0,0,1-2.138-6.779A5.25,5.25,0,0,1,852.828,333.968Z" transform="translate(-699.214 -317.326)" fill="#e6e6e6"/>
    <path id="Path_290" data-name="Path 290" d="M722.692,743.205a.285.285,0,0,1-.286.286H655.025a.286.286,0,0,1,0-.572h67.381a.285.285,0,0,1,.286.286Z" transform="translate(-552.057 -627.987)" fill="#ccc"/>
    <path id="Path_291" data-name="Path 291" d="M404.132,383.493H322.356a4.824,4.824,0,0,0-4.819,4.819v50.913a4.824,4.824,0,0,0,4.819,4.819h81.776a4.824,4.824,0,0,0,4.819-4.819V388.312A4.824,4.824,0,0,0,404.132,383.493Z" transform="translate(-304.334 -328.784)" fill="#ff8297"/>
    <path id="Path_292" data-name="Path 292" d="M404.132,383.493H322.356a4.824,4.824,0,0,0-4.819,4.819v50.913a4.824,4.824,0,0,0,4.819,4.819h81.776a4.824,4.824,0,0,0,4.819-4.819V388.312A4.824,4.824,0,0,0,404.132,383.493Zm1.581,36.572A19.81,19.81,0,0,1,386.237,439.8c-8.3.108,4.591.15-5.417.15-22.884,0-46.746-.219-55.649-.36a4.489,4.489,0,0,1-4.4-4.471v-46.8a1.587,1.587,0,0,1,1.581-1.585h81.773a1.587,1.587,0,0,1,1.585,1.581Z" transform="translate(-304.334 -328.784)" fill="#3f3d56"/>
    <path id="Path_293" data-name="Path 293" d="M400.16,261.538h-62.3a2.678,2.678,0,0,0-2.517,1.775l-9.623,27a2.672,2.672,0,0,0,2.513,3.57l83.561.148h0a2.672,2.672,0,0,0,2.456-3.725l-.146.062.146-.062-11.634-27.145a2.669,2.669,0,0,0-2.456-1.62Z" transform="translate(-310.428 -236.146)" fill="#3f3d56"/>
    <path id="Path_294" data-name="Path 294" d="M414.466,375.184a2.679,2.679,0,0,1-.216,1.053l-11.633,20.9a2.68,2.68,0,0,1-2.457,1.618h-62.3a2.68,2.68,0,0,1-2.519-1.774l-9.621-20.746a2.671,2.671,0,0,1,1.62-3.414,2.629,2.629,0,0,1,.892-.156l10.207-.019,4.166-.007,54.82-.1,4.168-.007,10.2-.019h0a2.674,2.674,0,0,1,2.673,2.673Z" transform="translate(-310.428 -320.442)" fill="#3f3d56"/>
    <path id="Path_295" data-name="Path 295" d="M356.015,542.358c1.236,0,18.2,1.037,18.2,2.272s-16.966,2.2-18.2,2.2a2.237,2.237,0,1,1,0-4.474Z" transform="translate(-331.863 -449.458)" fill="#3f3d56"/>
    <path id="Path_296" data-name="Path 296" d="M436.963,193.221H384.429a5.317,5.317,0,0,0-5.31,5.31v64.03h61.724a2.639,2.639,0,0,0,1.43-.416V198.531a5.317,5.317,0,0,0-5.31-5.31Z" transform="translate(-351.111 -184.253)" fill="#e6e6e6"/>
    <path id="Path_297" data-name="Path 297" d="M430.076,211.131h-28.79a4.842,4.842,0,0,0-4.837,4.834v60.2h54.82V232.324a21.218,21.218,0,0,0-21.193-21.193Z" transform="translate(-364.275 -197.857)" fill="#fff"/>
    <path id="Path_298" data-name="Path 298" d="M467.718,459.421H431.577a1.178,1.178,0,1,0,0,2.356h36.141a1.178,1.178,0,1,0,0-2.356Z" transform="translate(-390.064 -386.459)" fill="#e4e4e4"/>
    <path id="Path_299" data-name="Path 299" d="M467.714,440.041H431.573a1.179,1.179,0,1,0,0,2.358h36.141a1.179,1.179,0,1,0,0-2.358Z" transform="translate(-390.06 -371.738)" fill="#e4e4e4"/>
    <path id="Path_300" data-name="Path 300" d="M447.243,420.671H431.576a1.178,1.178,0,0,0,0,2.356h15.667a1.178,1.178,0,0,0,0-2.356Z" transform="translate(-390.063 -357.024)" fill="#e4e4e4"/>
    <path id="Path_301" data-name="Path 301" d="M467.714,380.091H431.573a1.179,1.179,0,1,0,0,2.358h36.141a1.179,1.179,0,1,0,0-2.358Z" transform="translate(-390.06 -326.2)" fill="#e4e4e4"/>
    <path id="Path_302" data-name="Path 302" d="M467.718,360.721H431.577a1.178,1.178,0,0,0,0,2.356h36.141a1.178,1.178,0,1,0,0-2.356Z" transform="translate(-390.064 -311.486)" fill="#e4e4e4"/>
    <path id="Path_303" data-name="Path 303" d="M447.239,341.341H431.572a1.179,1.179,0,0,0,0,2.358h15.667a1.179,1.179,0,1,0,0-2.358Z" transform="translate(-390.059 -296.765)" fill="#e4e4e4"/>
    <path id="Path_304" data-name="Path 304" d="M467.714,300.761H431.573a1.179,1.179,0,0,0,0,2.358h36.141a1.179,1.179,0,0,0,0-2.358Z" transform="translate(-390.06 -265.94)" fill="#ff8297"/>
    <path id="Path_305" data-name="Path 305" d="M467.714,281.391H431.573a1.179,1.179,0,1,0,0,2.358h36.141a1.179,1.179,0,1,0,0-2.358Z" transform="translate(-390.06 -251.227)" fill="#ff8297"/>
    <path id="Path_306" data-name="Path 306" d="M447.239,262.011H431.572a1.179,1.179,0,0,0,0,2.358h15.667a1.179,1.179,0,1,0,0-2.358Z" transform="translate(-390.059 -236.506)" fill="#ff8297"/>
    <circle id="Ellipse_99" data-name="Ellipse 99" cx="9.174" cy="9.174" r="9.174" transform="translate(80.019 -0.292)" fill="#ff8297"/>
    <path id="Path_307" data-name="Path 307" d="M617.3,182.55a1.02,1.02,0,0,1-.816-.408l-2.5-3.337a1.02,1.02,0,0,1,1.633-1.225l1.637,2.183,4.206-6.308a1.021,1.021,0,0,1,1.7,1.132l-5.006,7.509a1.021,1.021,0,0,1-.821.454Z" transform="translate(-529.356 -168.893)" fill="#fff"/>
  </g>
</svg>
