<svg xmlns="http://www.w3.org/2000/svg" width="375" height="137.478" viewBox="0 0 375 137.478">
  <g id="Group_1557" data-name="Group 1557" transform="translate(0 0)">
    <g id="Polygon_9" data-name="Polygon 9" transform="matrix(-0.819, 0.574, -0.574, -0.819, 174.384, 75.165)" fill="none">
      <path d="M43.4,2.97a7,7,0,0,1,8.208,0L90.867,31.386a7,7,0,0,1,2.551,7.841L78.432,85.171A7,7,0,0,1,71.777,90H23.223a7,7,0,0,1-6.655-4.829L1.582,39.227a7,7,0,0,1,2.551-7.841Z" stroke="none"/>
      <path d="M 47.50000762939453 2.640892028808594 C 46.22861862182617 2.640892028808594 45.01220703125 3.034889221191406 43.98225784301758 3.780288696289062 L 4.719268798828125 32.19589233398438 C 2.600357055664062 33.72940444946289 1.7216796875 36.43046569824219 2.532798767089844 38.91714096069336 L 17.51885986328125 84.86061859130859 C 18.32644653320312 87.33649444580078 20.61879730224609 88.99997711181641 23.22306823730469 88.99997711181641 L 71.77693176269531 88.99997711181641 C 74.38121032714844 88.99997711181641 76.67356872558594 87.33649444580078 77.48115539550781 84.86061859130859 L 92.46721649169922 38.91714096069336 C 93.27833557128906 36.43046569824219 92.399658203125 33.72940444946289 90.28074645996094 32.19589233398438 L 51.01774597167969 3.780288696289062 C 49.98779678344727 3.034889221191406 48.77138137817383 2.640892028808594 47.50000762939453 2.640892028808594 M 47.50000762939453 1.640892028808594 C 48.93977737426758 1.640892028808594 50.37954330444336 2.083992004394531 51.60403442382812 2.970191955566406 L 90.86703491210938 31.38579177856445 C 93.32997894287109 33.16829299926758 94.36073303222656 36.33681869506836 93.41792297363281 39.22724151611328 L 78.43185424804688 85.17071533203125 C 77.49235534667969 88.05100250244141 74.80655670166016 89.99997711181641 71.77693176269531 89.99997711181641 L 23.22306823730469 89.99997711181641 C 20.19344329833984 89.99997711181641 17.50765991210938 88.05100250244141 16.56816101074219 85.17071533203125 L 1.58209228515625 39.22724151611328 C 0.6392822265625 36.33681869506836 1.670036315917969 33.16829299926758 4.132980346679688 31.38579177856445 L 43.39596939086914 2.970191955566406 C 44.62046432495117 2.083992004394531 46.06023406982422 1.640892028808594 47.50000762939453 1.640892028808594 Z" stroke="none" fill="#ff8297"/>
    </g>
    <g id="Polygon_7" data-name="Polygon 7" transform="matrix(-0.809, -0.588, 0.588, -0.809, 277.157, 128.651)" fill="none">
      <path d="M43.4,2.97a7,7,0,0,1,8.208,0L90.867,31.386a7,7,0,0,1,2.551,7.841L78.432,85.171A7,7,0,0,1,71.777,90H23.223a7,7,0,0,1-6.655-4.829L1.582,39.227a7,7,0,0,1,2.551-7.841Z" stroke="none"/>
      <path d="M 47.50000762939453 2.640892028808594 C 46.22861862182617 2.640892028808594 45.01220703125 3.034889221191406 43.98225784301758 3.780288696289062 L 4.719268798828125 32.19589233398438 C 2.600357055664062 33.72940444946289 1.7216796875 36.43046569824219 2.532798767089844 38.91714096069336 L 17.51885986328125 84.86061859130859 C 18.32644653320312 87.33649444580078 20.61879730224609 88.99997711181641 23.22306823730469 88.99997711181641 L 71.77693176269531 88.99997711181641 C 74.38121032714844 88.99997711181641 76.67356872558594 87.33649444580078 77.48115539550781 84.86061859130859 L 92.46721649169922 38.91714096069336 C 93.27833557128906 36.43046569824219 92.399658203125 33.72940444946289 90.28074645996094 32.19589233398438 L 51.01774597167969 3.780288696289062 C 49.98779678344727 3.034889221191406 48.77138137817383 2.640892028808594 47.50000762939453 2.640892028808594 M 47.50000762939453 1.640892028808594 C 48.93977737426758 1.640892028808594 50.37954330444336 2.083992004394531 51.60403442382812 2.970191955566406 L 90.86703491210938 31.38579177856445 C 93.32997894287109 33.16829299926758 94.36073303222656 36.33681869506836 93.41792297363281 39.22724151611328 L 78.43185424804688 85.17071533203125 C 77.49235534667969 88.05100250244141 74.80655670166016 89.99997711181641 71.77693176269531 89.99997711181641 L 23.22306823730469 89.99997711181641 C 20.19344329833984 89.99997711181641 17.50765991210938 88.05100250244141 16.56816101074219 85.17071533203125 L 1.58209228515625 39.22724151611328 C 0.6392822265625 36.33681869506836 1.670036315917969 33.16829299926758 4.132980346679688 31.38579177856445 L 43.39596939086914 2.970191955566406 C 44.62046432495117 2.083992004394531 46.06023406982422 1.640892028808594 47.50000762939453 1.640892028808594 Z" stroke="none" fill="#ff8297"/>
    </g>
    <g id="Polygon_8" data-name="Polygon 8" transform="translate(234.163 137.477) rotate(-180)" fill="none">
      <path d="M43.4,2.97a7,7,0,0,1,8.208,0L90.867,31.386a7,7,0,0,1,2.551,7.841L78.432,85.171A7,7,0,0,1,71.777,90H23.223a7,7,0,0,1-6.655-4.829L1.582,39.227a7,7,0,0,1,2.551-7.841Z" stroke="none"/>
      <path d="M 47.50000762939453 2.640892028808594 C 46.22861862182617 2.640892028808594 45.01220703125 3.034889221191406 43.98225784301758 3.780288696289062 L 4.719268798828125 32.19589233398438 C 2.600357055664062 33.72940444946289 1.7216796875 36.43046569824219 2.532798767089844 38.91714096069336 L 17.51885986328125 84.86061859130859 C 18.32644653320312 87.33649444580078 20.61879730224609 88.99997711181641 23.22306823730469 88.99997711181641 L 71.77693176269531 88.99997711181641 C 74.38121032714844 88.99997711181641 76.67356872558594 87.33649444580078 77.48115539550781 84.86061859130859 L 92.46721649169922 38.91714096069336 C 93.27833557128906 36.43046569824219 92.399658203125 33.72940444946289 90.28074645996094 32.19589233398438 L 51.01774597167969 3.780288696289062 C 49.98779678344727 3.034889221191406 48.77138137817383 2.640892028808594 47.50000762939453 2.640892028808594 M 47.50000762939453 1.640892028808594 C 48.93977737426758 1.640892028808594 50.37954330444336 2.083992004394531 51.60403442382812 2.970191955566406 L 90.86703491210938 31.38579177856445 C 93.32997894287109 33.16829299926758 94.36073303222656 36.33681869506836 93.41792297363281 39.22724151611328 L 78.43185424804688 85.17071533203125 C 77.49235534667969 88.05100250244141 74.80655670166016 89.99997711181641 71.77693176269531 89.99997711181641 L 23.22306823730469 89.99997711181641 C 20.19344329833984 89.99997711181641 17.50765991210938 88.05100250244141 16.56816101074219 85.17071533203125 L 1.58209228515625 39.22724151611328 C 0.6392822265625 36.33681869506836 1.670036315917969 33.16829299926758 4.132980346679688 31.38579177856445 L 43.39596939086914 2.970191955566406 C 44.62046432495117 2.083992004394531 46.06023406982422 1.640892028808594 47.50000762939453 1.640892028808594 Z" stroke="none" fill="#ff8297"/>
    </g>
    <g id="Subtraction_7" data-name="Subtraction 7" transform="translate(346.732 51.91)" fill="none">
      <path d="M28.268,77.744h0v0L2.784,58.495a6.984,6.984,0,0,1-2.4-7.865L16.192,4.721A7,7,0,0,1,22.81,0h.115l5.343.087Z" stroke="none"/>
      <path d="M 27.26809692382812 75.73481750488281 L 27.26809692382812 1.071902871131897 L 22.90840911865234 1.000764966011047 C 20.30934524536133 0.9580746293067932 17.98168754577637 2.595064878463745 17.13742065429688 5.046976089477539 L 1.329819798469543 50.95507431030273 C 0.4818753898143768 53.41765213012695 1.308375358581543 56.12689971923828 3.386408805847168 57.6966552734375 L 27.26809692382812 75.73481750488281 M 28.26809692382812 77.74382019042969 L 28.26609802246094 77.74180603027344 L 2.783697605133057 58.49460983276367 C 0.3592976033687592 56.6632080078125 -0.6049468517303467 53.50246429443359 0.3842976093292236 50.62950897216797 L 16.19189834594727 4.721409320831299 C 17.17684745788574 1.860918760299683 19.89270401000977 -0.04880897328257561 22.92479705810547 0.0008983181323856115 L 28.26809692382812 0.08808720856904984 L 28.26809692382812 77.74382019042969 Z" stroke="none" fill="#ff8297"/>
    </g>
    <g id="Subtraction_8" data-name="Subtraction 8" transform="translate(329.121)" fill="none">
      <path d="M45.879,74.8h0v0L4.165,56.321A6.978,6.978,0,0,1,.04,49.181L5.146,1.127A7.032,7.032,0,0,1,5.36,0H45.879Z" stroke="none"/>
      <path d="M 44.87930297851562 73.26427459716797 L 44.87930297851562 1.000004529953003 L 6.169854640960693 1.000004529953003 C 6.158587455749512 1.077357888221741 6.148830413818359 1.154876232147217 6.140603542327881 1.232474565505981 L 1.034003496170044 49.28708267211914 C 0.7575434446334839 51.88833618164062 2.178603410720825 54.34763336181641 4.570253372192383 55.40680313110352 L 44.87930297851562 73.26427459716797 M 45.87930297851562 74.80168151855469 L 45.87730407714844 74.80014801025391 L 4.16520357131958 56.32110595703125 C 1.375013470649719 55.08543395996094 -0.2829365730285645 52.21621322631836 0.03960344195365906 49.18140411376953 L 5.146203517913818 1.12680459022522 C 5.186493396759033 0.7467545866966248 5.258383274078369 0.3676445782184601 5.359883308410645 4.573974820232252e-06 L 45.87930297851562 4.573974820232252e-06 L 45.87930297851562 74.80168151855469 Z" stroke="none" fill="#ff8297"/>
    </g>
    <g id="Subtraction_9" data-name="Subtraction 9" transform="translate(28.268 129.655) rotate(180)" fill="none">
      <path d="M22.81,77.744a7,7,0,0,1-6.618-4.721L.384,27.114a6.982,6.982,0,0,1,2.4-7.864L28.268,0V77.656l-5.343.087Z" stroke="none"/>
      <path d="M 22.80952453613281 76.74385070800781 C 22.84249114990234 76.74385070800781 22.87555885314941 76.74356842041016 22.90849113464355 76.74303436279297 L 27.26810264587402 76.67190551757812 L 27.26810264587402 2.008872270584106 L 3.386269330978394 20.04817008972168 C 1.308236002922058 21.61714935302734 0.4818137288093567 24.32596969604492 1.329824805259705 26.78873825073242 L 17.13742446899414 72.69683837890625 C 17.97092437744141 75.11749267578125 20.25037002563477 76.74387359619141 22.80951309204102 76.74385070800781 L 22.80952453613281 76.74385070800781 M 22.80952453613281 77.74385070800781 C 19.8237361907959 77.74387359619141 17.16431427001953 75.84647369384766 16.19190216064453 73.02240753173828 L 0.3843026161193848 27.11430358886719 C -0.6050529479980469 24.24104881286621 0.3592026233673096 21.0806713104248 2.783702611923218 19.2501049041748 L 28.26810264587402 0.0002928677131421864 L 28.26810264587402 77.65572357177734 L 22.92480278015137 77.74290466308594 C 22.8863353729248 77.74352264404297 22.84786987304688 77.74385070800781 22.80952453613281 77.74385070800781 Z" stroke="none" fill="#ff8297"/>
    </g>
    <g id="Subtraction_10" data-name="Subtraction 10" transform="translate(45.88 74.803) rotate(180)" fill="none">
      <path d="M45.879,74.8H5.36a7.039,7.039,0,0,1-.214-1.128L.04,25.62a6.978,6.978,0,0,1,4.126-7.14L45.879,0V74.8Z" stroke="none"/>
      <path d="M 44.87929916381836 73.80261993408203 L 44.87930679321289 1.53715455532074 L 4.570137023925781 19.39494895935059 C 2.178607225418091 20.45406913757324 0.7575472593307495 22.91336822509766 1.03400731086731 25.51462745666504 L 6.140597343444824 73.56916046142578 C 6.148884773254395 73.64707946777344 6.158714294433594 73.72492218017578 6.170069217681885 73.80261993408203 L 44.87929916381836 73.80261993408203 M 45.87930679321289 74.80261993408203 L 45.87929534912109 74.80261993408203 L 45.87930679321289 74.80261993408203 Z M 45.87930679321289 74.80261993408203 L 5.360397338867188 74.80261993408203 C 5.258237361907959 74.43294525146484 5.186497211456299 74.05377197265625 5.146207332611084 73.67491149902344 L 0.03960725665092468 25.62029838562012 C -0.2829327583312988 22.58549880981445 1.375017285346985 19.71626853942871 4.165207386016846 18.48059844970703 L 45.87930679321289 0.0003983312926720828 L 45.87929534912109 74.80261993408203 Z" stroke="none" fill="#ff8297"/>
    </g>
  </g>
</svg>
