<svg xmlns="http://www.w3.org/2000/svg" xmlns:xlink="http://www.w3.org/1999/xlink" width="64" height="64" viewBox="0 0 64 64">
  
  <g id="Mask_Group_253" data-name="Mask Group 253" transform="translate(-68 -447)" clip-path="url(#clip-path)">
    <g id="svgexport-6_50_" data-name="svgexport-6 (50)" transform="translate(68 447)">
      <path id="Path_2134" data-name="Path 2134" d="M41.591,49.745H36.783a1.029,1.029,0,0,1-1.029-1.029V36.874h-7.51V48.717a1.029,1.029,0,0,1-1.029,1.029H22.409a1.029,1.029,0,0,0-1.029,1.029v5.453a1.029,1.029,0,0,0,1.029,1.029h4.807a1.029,1.029,0,0,1,1.029,1.029v4.687A1.029,1.029,0,0,0,29.273,64h5.453a1.029,1.029,0,0,0,1.029-1.029V58.284a1.029,1.029,0,0,1,1.029-1.029h4.807a1.029,1.029,0,0,0,1.029-1.029V50.774A1.029,1.029,0,0,0,41.591,49.745Z" fill="#ef687e"/>
      <path id="Path_2135" data-name="Path 2135" d="M28.245,36.874v6.883a23.876,23.876,0,0,0,7.51,0V36.874Z" fill="#e63952"/>
      <path id="Path_2136" data-name="Path 2136" d="M32,0A20.344,20.344,0,1,0,52.344,20.344,20.344,20.344,0,0,0,32,0Zm0,33.177A12.834,12.834,0,1,1,44.833,20.344,12.834,12.834,0,0,1,32,33.177Z" fill="#f996b1"/>
      <g id="Group_1840" data-name="Group 1840">
        <path id="Path_2137" data-name="Path 2137" d="M30.1,7.65a12.834,12.834,0,1,0-1.9,25.527,12.935,12.935,0,0,0,1.9-.14,12.835,12.835,0,0,1,0-25.387Z" fill="#f28598"/>
        <path id="Path_2138" data-name="Path 2138" d="M32,0c-.64,0-1.272.031-1.9.089a20.344,20.344,0,0,1,0,40.51c.625.058,1.257.089,1.9.089A20.344,20.344,0,1,0,32,0Z" fill="#f28598"/>
      </g>
    </g>
  </g>
</svg>
