<svg xmlns="http://www.w3.org/2000/svg" xmlns:xlink="http://www.w3.org/1999/xlink" width="64" height="64" viewBox="0 0 64 64">
  <defs>
    <clipPath id="clip-path">
      <rect id="Rectangle_1438" data-name="Rectangle 1438" width="64" height="64" transform="translate(36.401 103.401)" fill="#fff" stroke="#707070" stroke-width="1"/>
    </clipPath>
  </defs>
  <g id="Mask_Group_251" data-name="Mask Group 251" transform="translate(-36.401 -103.401)" clip-path="url(#clip-path)">
    <g id="svgexport-6_49_" data-name="svgexport-6 (49)" transform="translate(36 103)">
      <circle id="Ellipse_117" data-name="Ellipse 117" cx="31.321" cy="31.321" r="31.321" transform="translate(1.08 1.08)" fill="#ffeb3b"/>
      <circle id="Ellipse_118" data-name="Ellipse 118" cx="27" cy="27" r="27" transform="translate(5.402 5.401)" fill="#fdd835"/>
      <path id="Path_2123" data-name="Path 2123" d="M33.2.8A32.4,32.4,0,1,0,65.6,33.2,32.4,32.4,0,0,0,33.2.8Zm0,58.322A25.921,25.921,0,1,1,59.122,33.2,25.921,25.921,0,0,1,33.2,59.122ZM58.034,20.111l1.873-1.08a30.046,30.046,0,0,1,2.208,5.306l-2.087.558A27.853,27.853,0,0,0,58.034,20.111Zm-1.08-1.868a28.189,28.189,0,0,0-3.156-4.1l1.527-1.527a30.411,30.411,0,0,1,3.5,4.553Zm-4.683-5.634a28.189,28.189,0,0,0-4.1-3.156l1.08-1.872a30.41,30.41,0,0,1,4.553,3.5Zm-5.979-4.24a27.853,27.853,0,0,0-4.784-1.994l.558-2.087A30.046,30.046,0,0,1,47.373,6.5ZM39.42,5.822a28.054,28.054,0,0,0-5.139-.675V2.987a30.172,30.172,0,0,1,5.7.748Zm-7.3-.675a28.054,28.054,0,0,0-5.139.675l-.558-2.087a30.172,30.172,0,0,1,5.7-.748ZM24.895,6.375a27.853,27.853,0,0,0-4.784,1.994L19.031,6.5a30.046,30.046,0,0,1,5.305-2.208ZM18.243,9.453a28.189,28.189,0,0,0-4.1,3.156l-1.529-1.527a30.411,30.411,0,0,1,4.553-3.5Zm-5.634,4.683a28.189,28.189,0,0,0-3.156,4.1l-1.872-1.08a30.411,30.411,0,0,1,3.5-4.553Zm-4.24,5.975a27.853,27.853,0,0,0-1.994,4.784l-2.087-.558A30.046,30.046,0,0,1,6.5,19.03ZM5.822,26.982a28.054,28.054,0,0,0-.675,5.139H2.987a30.172,30.172,0,0,1,.748-5.7Zm-.675,7.3a28.055,28.055,0,0,0,.675,5.139l-2.087.558a30.172,30.172,0,0,1-.748-5.7Zm1.228,7.227a27.853,27.853,0,0,0,1.994,4.784L6.5,47.372a30.046,30.046,0,0,1-2.208-5.305ZM9.453,48.16a28.189,28.189,0,0,0,3.156,4.1l-1.527,1.529a30.411,30.411,0,0,1-3.5-4.553Zm4.683,5.634a28.19,28.19,0,0,0,4.1,3.156l-1.08,1.872a30.411,30.411,0,0,1-4.553-3.5Zm5.975,4.24a27.853,27.853,0,0,0,4.784,1.994l-.558,2.087a30.047,30.047,0,0,1-5.306-2.208Zm6.871,2.547a28.054,28.054,0,0,0,5.139.675v2.16a30.172,30.172,0,0,1-5.7-.748Zm7.3.675a28.054,28.054,0,0,0,5.139-.675l.558,2.087a30.172,30.172,0,0,1-5.7.748Zm7.227-1.228a27.853,27.853,0,0,0,4.784-1.994l1.08,1.873a30.046,30.046,0,0,1-5.306,2.208Zm6.652-3.078a28.19,28.19,0,0,0,4.1-3.156l1.527,1.527a30.411,30.411,0,0,1-4.553,3.5Zm5.634-4.683a28.19,28.19,0,0,0,3.156-4.1l1.872,1.08a30.411,30.411,0,0,1-3.5,4.553Zm4.24-5.975a27.853,27.853,0,0,0,1.994-4.784l2.087.558a30.046,30.046,0,0,1-2.208,5.306Zm2.547-6.871a28.054,28.054,0,0,0,.675-5.139h2.16a30.172,30.172,0,0,1-.748,5.7Zm.675-7.3a28.054,28.054,0,0,0-.675-5.139l2.087-.558a30.172,30.172,0,0,1,.748,5.7Z" transform="translate(-0.8 -0.8)" fill="#fbc02e"/>
      <g id="Group_1834" data-name="Group 1834" transform="translate(12.548 12.545)">
        <path id="Path_2124" data-name="Path 2124" d="M0,0H6.479V6.479H0Z" transform="translate(4.582 15.269) rotate(45)" fill="#fff59d"/>
        <path id="Path_2125" data-name="Path 2125" d="M0,0H6.479V6.479H0Z" transform="translate(19.854 15.268) rotate(45)" fill="#fff59d"/>
        <path id="Path_2126" data-name="Path 2126" d="M0,0H6.479V6.479H0Z" transform="translate(35.126 15.266) rotate(45)" fill="#fff59d"/>
        <path id="Path_2127" data-name="Path 2127" d="M20.494,5.446l12.22,12.22-4.583,4.583-7.637-7.637-7.637,7.637L8.274,17.666Z" transform="translate(-0.64 -5.446)" fill="#fff59d"/>
        <path id="Path_2128" data-name="Path 2128" d="M20.494,30.733,8.274,18.514l4.583-4.583,7.637,7.637,7.637-7.637,4.583,4.583Z" transform="translate(-0.64 8.98)" fill="#fff59d"/>
      </g>
    </g>
  </g>
</svg>
