<svg xmlns="http://www.w3.org/2000/svg" width="121" height="13.728" viewBox="0 0 121 13.728">
  <g id="Group_34" data-name="Group 34" transform="translate(-127 -246.923)">
    <line id="Line_13" data-name="Line 13" x2="47" transform="translate(127.5 253.787)" fill="none" stroke="#ff8297" stroke-linecap="round" stroke-width="1"/>
    <line id="Line_14" data-name="Line 14" x2="47" transform="translate(200.5 253.787)" fill="none" stroke="#ff8297" stroke-linecap="round" stroke-width="1"/>
    <g id="svgexport-6" transform="translate(178.915 247.519)">
      <path id="Path_272" data-name="Path 272" d="M8.859,14.558l.156-.16.051-.054.1-.108.059-.066.089-.1L9.378,14l.082-.1.062-.075.078-.1.061-.077.075-.1L9.8,13.48l.072-.1.058-.08.069-.1.055-.08.067-.1.053-.08.065-.1.05-.08.064-.1.047-.078.063-.11L10.5,12.4l.067-.124.033-.062q.048-.092.094-.185l.018-.037c.023-.048.046-.1.068-.143l-.006,0L10.6,11.8l-.037-.009-.172-.04-.023,0-.162-.032-.027-.005-.17-.028-.036-.005-.17-.023-.018,0-.159-.017-.03,0-.164-.012-.035,0-.165-.006h0l0,.008-.027.053-.04.077-.03.056-.04.074-.033.058-.041.072-.035.059-.042.07L8.9,12.2l-.044.069-.038.059-.045.068-.04.059-.047.067-.041.058-.049.067-.043.057-.051.067-.044.057-.053.066-.045.056-.055.066-.046.054-.058.067-.045.052-.063.069-.044.048-.071.075-.038.04-.111.113a7.745,7.745,0,0,1-1.054.884q-.079.055-.16.108a5.779,5.779,0,0,1-1.96.848c-.058.012-.117.023-.175.032l-.011,0c-.055.009-.109.016-.163.022l-.02,0c-.052.006-.1.01-.155.014H4.113q-.077,0-.151.006H3.913l-.129,0h-.01c-.046,0-.092-.005-.137-.01l-.04,0-.11-.014-.036-.005c-.046-.008-.091-.016-.136-.026l-.029-.007-.1-.027-.044-.013-.092-.03L3.009,15.3c-.04-.015-.079-.03-.117-.047l-.036-.017-.083-.04-.04-.021c-.029-.016-.058-.033-.087-.05l-.025-.015c-.035-.022-.07-.046-.1-.07l-.03-.022q-.038-.029-.075-.06l-.029-.025c-.032-.028-.064-.057-.094-.087a1.988,1.988,0,0,1-.478-.78q-.025-.075-.046-.153c-.007-.026-.013-.052-.019-.079a2.755,2.755,0,0,1-.064-.591,3.838,3.838,0,0,1,.122-.946,6.107,6.107,0,0,1,1.033-2.107A7.861,7.861,0,0,1,3.6,9.3c.051-.051.1-.1.153-.149l.036-.034q.159-.149.323-.287l.022-.018a5.94,5.94,0,0,1,2.935-1.4L7.166,7.4h0a2.434,2.434,0,0,1,1.822.446l.005,0,.067.057.016.015q.036.032.07.066c.022.022.044.045.064.068l.02.023.041.048.023.028L9.33,8.2l.023.032.031.046.022.034.029.046.021.035.027.048L9.5,8.48l.025.05.017.037.023.054.015.036c.008.02.015.039.022.059s.008.022.012.033.017.05.024.075l.006.02c.01.032.018.064.027.1l.007.03c.005.023.011.046.016.069s.005.027.008.04.008.041.011.061,0,.029.007.044.006.039.008.059,0,.031.005.047,0,.023,0,.035l.049.006.083.01.16.021.082.012.185.03.054.009q.118.021.237.045l.062.013.178.039.083.019.162.04.082.021.183.05.056.016.015,0A3.64,3.64,0,0,0,10.5,6.635C8.77,4.9,5.215,5.64,2.578,8.278S-.8,14.469.936,16.2c1.074,1.073,2.889,1.236,4.857.435a8.814,8.814,0,0,0,1.718-.944,10.13,10.13,0,0,0,1.348-1.133Zm0,0" transform="translate(0 -6.294)" fill="#ff8297"/>
      <path id="Path_275" data-name="Path 275" d="M129.681,120.14c-.307-.132-.624-.249-.941-.35a9.4,9.4,0,0,0-1.991-.406l-.207-.016-.06,0-.152-.008-.055,0-.172,0h-.026c-2.011-.014-3.636.755-4.288,2.05l-.009.018q-.034.068-.064.138c-.012.029-.024.058-.035.087l-.011.03-.021.058-.012.036-.018.053-.012.039c-.005.017-.01.034-.015.051l-.011.04-.013.05-.01.042-.011.05-.009.043c0,.017-.007.033-.01.05l-.007.043-.008.05-.006.044-.006.05c0,.015,0,.03,0,.045s0,.033,0,.05,0,.03,0,.045,0,.034,0,.051,0,.03,0,.046,0,.034,0,.051,0,.03,0,.046,0,.034,0,.052,0,.031,0,.046,0,.035,0,.052,0,.031,0,.046,0,.035,0,.052,0,.031,0,.046,0,.035,0,.053,0,.031,0,.046l.006.054c0,.015,0,.031.005.046s0,.036.008.054l.006.046c0,.018.006.037.009.055l.008.045c0,.019.007.038.011.056s.006.03.009.044l.013.058c0,.014.006.029.01.043l.015.063.01.039c.007.026.014.051.021.077l.007.025c.01.034.02.068.031.1l.009.029.024.073.014.039.023.063.017.044.022.059.018.045.024.057.02.046.025.056.022.048.026.055.023.048.019.038L122,124.6l.033-.008.095-.027.009,0,.106-.033.028-.009.078-.026.036-.013.071-.026.038-.014.073-.028.034-.014.089-.037.018-.008.108-.048.024-.011.083-.04.035-.017.072-.036.038-.02.073-.038.035-.019.084-.047.023-.013.108-.063.016-.01.075-.046c-.005-.015-.01-.029-.015-.044l-.016-.048c-.008-.023-.014-.046-.021-.068s-.009-.03-.013-.045-.013-.049-.019-.074l-.01-.039c-.007-.033-.014-.066-.021-.1,0,0,0-.009,0-.014-.007-.037-.013-.074-.018-.111,0-.012,0-.024,0-.036s-.006-.049-.008-.074,0-.029,0-.044,0-.044,0-.065,0-.031,0-.046,0-.041,0-.062,0-.031,0-.047,0-.04,0-.06,0-.031,0-.047,0-.039.006-.059,0-.031.006-.046.006-.039.009-.059l.008-.045c0-.02.008-.039.012-.059s.006-.029.01-.043.011-.04.016-.061.007-.027.011-.04.014-.044.022-.066l.011-.033c.012-.032.024-.065.038-.1a2.914,2.914,0,0,1,2.849-1.441h0a6.685,6.685,0,0,1,2.019.32,7.886,7.886,0,0,1,.766.282,6.682,6.682,0,0,1,2.782,2.112,2.591,2.591,0,0,1,.5,2.547c-.011.027-.024.053-.036.079l-.008.015-.035.068,0,.005a2.683,2.683,0,0,1-2.1,1.229l-.034,0-.146.017-.06.005-.121.009-.059,0-.154.005h-.159l-.118,0h-.016q-.145,0-.291-.016l-.041,0-.128-.013-.064-.007-.122-.015-.073-.011-.118-.018-.121-.022-.147-.029-.109-.023-.091-.021-.116-.028-.083-.021-.146-.041-.053-.015q-.1-.029-.2-.062l-.057-.019-.148-.051-.068-.025-.143-.054-.061-.024c-.067-.027-.134-.054-.2-.083l-.139-.061-.046-.021-.092-.043-.053-.026-.083-.04-.056-.028-.078-.04-.057-.03-.076-.041-.057-.031-.074-.042-.056-.032-.073-.043-.055-.033-.072-.045-.053-.034-.072-.047-.051-.034-.072-.049-.049-.033-.074-.052-.044-.032-.079-.059-.036-.027-.1-.08-.009-.007-.111-.09-.027-.023-.073-.061-.054.036-.064.042-.152.1-.05.032q-.1.062-.2.122l-.04.023-.164.093-.065.035-.149.079-.06.031q-.1.053-.206.1l-.011.005-.162.076a9.659,9.659,0,0,0,2.729,1.745,8.753,8.753,0,0,0,4.947.677,3.838,3.838,0,0,0,3.019-2.1c.965-2.251-1.039-5.277-4.467-6.747Zm0,0" transform="translate(-117.221 -115.963)" fill="#ff8297"/>
    </g>
  </g>
</svg>
