<svg xmlns="http://www.w3.org/2000/svg" xmlns:xlink="http://www.w3.org/1999/xlink" width="166.201" height="100" viewBox="0 0 166.201 100">
  <defs>
    <linearGradient id="linear-gradient" y1="0.5" x2="1" y2="0.5" gradientUnits="objectBoundingBox">
      <stop offset="0" stop-color="#d40070"/>
      <stop offset="1" stop-color="#c87650"/>
    </linearGradient>
  </defs>
  <g id="logo" transform="translate(0.5)">
    <path id="Path_106" data-name="Path 106" d="M75.493,107.646h9.328l.29.411v11.431l-.29.411H50.891a29.731,29.731,0,0,1-11.237-2.2Q25.988,109.325,26,96.626V94.62q0-7.866,6.017-15.056Q40.1,71.118,49.49,71.13H52.1l3.407.411a23.462,23.462,0,0,1,7.733,2.852V66.2l.411-.8H75.082l.411.8ZM33.588,48.1q8.627,0,11.648,8.434l.411,5.631v1.4l-.411.411h-.411c-6.452,0-10.416-3.214-11.841-9.642V48.487C32.984,48.221,33.177,48.1,33.588,48.1ZM62.346,91.793c-2.465-5.9-6.356-8.821-11.648-8.821l-4.012.8c-5.365,2.586-8.023,6.332-8.023,11.237v1.208a13.71,13.71,0,0,0,.6,3.625q2.9,7.431,10.633,7.419H62.95V97.013A19.817,19.817,0,0,0,62.346,91.793ZM66.309,48.1l.193.193v1.812q0,8.7-4.012,11.237c-2.006,1.74-4.761,2.61-8.241,2.61l-.411-.411V59.12q0-6.924,7.032-10.029A14.144,14.144,0,0,1,66.309,48.1Zm44.2,22.62q12.289,0,20.686,11.044,4.2,5.909,4.2,14.645v11.044h6.815l.411.411v11.648l-.411.411H78.8l-.411-.411V107.863l.411-.411H89.05a22.769,22.769,0,0,1-3.214-12.035q0-14.355,14.041-22.088A24.9,24.9,0,0,1,110.509,70.72ZM98.475,95.611V95.8c0,4.978,2.731,8.8,8.241,11.431l1.812.193h14.258V95.393a12.674,12.674,0,0,0-12.035-12.639c-5.945.435-9.908,3.577-11.841,9.425Zm19.164-44.152h.411l.411.411v3.625q0,7.939-7.032,11.044a26.55,26.55,0,0,1-5.413.8l-.193-.193v-2.8q0-9.57,7.83-12.252A11.232,11.232,0,0,1,117.638,51.459Zm50.29,26.293h13.847l.411.411q0,8.374-7.637,11.237l-4.616.411H166.72c-6.162.677-9.232,3.673-9.232,9.038v.193c0,3.142,1.667,5.824,5.027,8.023a5.022,5.022,0,0,0,2.2.411h26.1l.411.411v.6q0,8.591-8.434,11.237l-2.006.193H138.011l-.411-.411V107.863l.411-.411h9.038a23.607,23.607,0,0,1-1.812-8.821V97.617a20.06,20.06,0,0,1,6.428-14.645Q157.682,77.752,167.928,77.752Z" transform="translate(-26 -42.832)" fill="url(#linear-gradient)"/>
    <line id="Line_11" data-name="Line 11" x2="29.024" transform="translate(136.177 94.273)" fill="none" stroke="#1d1d1b" stroke-linecap="round" stroke-linejoin="round" stroke-miterlimit="10" stroke-width="1"/>
    <g id="Group_26" data-name="Group 26" transform="translate(38.279 89.488)">
      <path id="Path_107" data-name="Path 107" d="M188.774,400.733a2.1,2.1,0,0,1,1.595.677,2.191,2.191,0,0,1,.677,1.595v3.142a2.1,2.1,0,0,1-.628,1.5,2.064,2.064,0,0,1-1.5.628h-2.2a2.207,2.207,0,0,1-1.643-.677,2.245,2.245,0,0,1-.677-1.643v-1.667a.128.128,0,0,1,.145-.145h.507a.128.128,0,0,1,.145.145v1.667a1.408,1.408,0,0,0,.459,1.087,1.537,1.537,0,0,0,1.087.459h2.223a1.32,1.32,0,0,0,1.329-1.329v-.048h-1.474a2.1,2.1,0,0,1-1.595-.677,2.232,2.232,0,0,1-.677-1.595v-.8a2.1,2.1,0,0,1,.677-1.6A1.836,1.836,0,0,1,188.774,400.733ZM190.248,403a1.474,1.474,0,0,0-2.948,0v.8a1.485,1.485,0,0,0,1.474,1.474h1.474Zm-2.489-3.335a.128.128,0,0,1-.145-.145v-.58a.128.128,0,0,1,.145-.145h.532a.128.128,0,0,1,.145.145v.58a.128.128,0,0,1-.145.145Zm1.426,0a.128.128,0,0,1-.145-.145v-.58a.128.128,0,0,1,.145-.145h.532a.128.128,0,0,1,.145.145v.58a.128.128,0,0,1-.145.145Z" transform="translate(-184.4 -398.268)"/>
      <path id="Path_108" data-name="Path 108" d="M219.844,406.8a1.882,1.882,0,0,1,1.378.58,1.859,1.859,0,0,1,.556,1.377v1.716a1.562,1.562,0,0,1-.6,1.377,2.122,2.122,0,0,1-1.232.314h-2.3a.128.128,0,0,1-.145-.145v-.508a.128.128,0,0,1,.145-.145h2.3a1.107,1.107,0,0,0,.846-.242.983.983,0,0,0,.193-.677v-1.716a1.193,1.193,0,0,0-.338-.822,1.151,1.151,0,0,0-.822-.338,1.656,1.656,0,0,0-1.015.242l-.193.145c-.024.024-.048.024-.1.024h-.024a.126.126,0,0,1-.1-.048l-.29-.411a.089.089,0,0,1-.024-.072v-.024a.125.125,0,0,1,.048-.1l.217-.145A2.556,2.556,0,0,1,219.844,406.8Z" transform="translate(-209.501 -404.335)"/>
      <path id="Path_109" data-name="Path 109" d="M243.853,404.633a1.253,1.253,0,0,1-1.353-1.353v-6.235a.128.128,0,0,1,.145-.145h.508a.128.128,0,0,1,.145.145v6.235a.513.513,0,0,0,.58.58h.532v.8h-.556Z" transform="translate(-228.459 -396.828)"/>
      <path id="Path_110" data-name="Path 110" d="M257.676,411.989h-.363a1.549,1.549,0,0,1-1.136-.435c-.024-.024-.073-.1-.145-.169a1.739,1.739,0,0,1-1.426.58H249v-.8h1.692v-4.06a.128.128,0,0,1,.145-.145h.507a.128.128,0,0,1,.145.145v.991a4.489,4.489,0,0,1,2.755-1.5,1.965,1.965,0,0,1,1.595.677,2.569,2.569,0,0,1,.6,1.812v1.474a.51.51,0,0,0,.145.387.737.737,0,0,0,.58.193h.508Zm-2.006-2.852a2.07,2.07,0,0,0-.218-.991,1.252,1.252,0,0,0-1.208-.7c-.725,0-1.643.58-2.755,1.764v2.006h3.142a.883.883,0,0,0,1.039-1.039Z" transform="translate(-233.389 -404.183)"/>
      <path id="Path_111" data-name="Path 111" d="M286.441,396.648a.128.128,0,0,1,.145.145v6.235a1.253,1.253,0,0,1-1.353,1.353H284v-.8h1.257a.513.513,0,0,0,.58-.58v-6.259a.128.128,0,0,1,.145-.145h.459Z" transform="translate(-259.93 -396.6)"/>
      <path id="Path_112" data-name="Path 112" d="M302.6,404.336a.128.128,0,0,1-.145.145h-.507a.128.128,0,0,1-.145-.145v-7.492a.128.128,0,0,1,.145-.145h.507a.128.128,0,0,1,.145.145Z" transform="translate(-273.429 -396.676)"/>
      <path id="Path_113" data-name="Path 113" d="M324.942,406.8a2.427,2.427,0,0,1,1.764.725,2.388,2.388,0,0,1,.725,1.764v1.039a1.889,1.889,0,0,1-.483,1.353,1.85,1.85,0,0,1-1.353.483h-2.2a.7.7,0,0,0-.6.29,1.1,1.1,0,0,0-.193.653.949.949,0,0,0,.918.942h.652a.128.128,0,0,1,.145.145v.508a.128.128,0,0,1-.145.145h-.652a1.625,1.625,0,0,1-1.208-.508,1.678,1.678,0,0,1-.508-1.232,1.659,1.659,0,0,1,.459-1.233,1.5,1.5,0,0,1,1.136-.483h2.2a.883.883,0,0,0,1.039-1.039v-1.039a1.74,1.74,0,0,0-.483-1.208,1.624,1.624,0,0,0-1.208-.508,1.938,1.938,0,0,0-1.716.8l-.145.217a.13.13,0,0,1-.1.072c-.024,0-.048-.024-.1-.048l-.411-.29a.126.126,0,0,1-.048-.1v-.024a.089.089,0,0,1,.024-.073l.145-.217a2.577,2.577,0,0,1,1.112-.894A2.879,2.879,0,0,1,324.942,406.8Zm.193,6.066a.128.128,0,0,1,.145.145v.58a.128.128,0,0,1-.145.145H324.6a.128.128,0,0,1-.145-.145v-.58a.128.128,0,0,1,.145-.145Z" transform="translate(-288.596 -404.335)"/>
      <path id="Path_114" data-name="Path 114" d="M353,404.336a.128.128,0,0,1-.145.145h-.508a.128.128,0,0,1-.145-.145v-7.492a.128.128,0,0,1,.145-.145h.508a.128.128,0,0,1,.145.145Z" transform="translate(-311.649 -396.676)"/>
      <path id="Path_115" data-name="Path 115" d="M363.3,406.8a2.1,2.1,0,0,1,1.595.677,2.17,2.17,0,0,1,.653,1.6v3.214a2.01,2.01,0,0,1-.628,1.474,2.064,2.064,0,0,1-1.5.628H362.3a.128.128,0,0,1-.145-.145v-.508a.128.128,0,0,1,.145-.145h1.112a1.32,1.32,0,0,0,1.329-1.329v-.121h-1.474a2.17,2.17,0,0,1-1.595-.652,2.232,2.232,0,0,1-.677-1.595v-.8a2.1,2.1,0,0,1,.677-1.595A2.127,2.127,0,0,1,363.3,406.8Zm1.474,2.272a1.474,1.474,0,0,0-2.948,0v.8a1.405,1.405,0,0,0,.435,1.039,1.445,1.445,0,0,0,1.039.435h1.474v-2.272Z" transform="translate(-318.322 -404.335)"/>
      <path id="Path_116" data-name="Path 116" d="M386.257,405.922h-1.643v.411a1.889,1.889,0,0,1-.483,1.353,1.85,1.85,0,0,1-1.353.483h-.532a.128.128,0,0,1-.145-.145v-.507a.128.128,0,0,1,.145-.145h.532a.883.883,0,0,0,1.039-1.039v-5.389a.128.128,0,0,1,.145-.145h.508a.128.128,0,0,1,.145.145v4.2h1.643Zm-2.3-6.4a.128.128,0,0,1-.145-.145v-.628a.128.128,0,0,1,.145-.145h.532a.128.128,0,0,1,.145.145v.628a.128.128,0,0,1-.145.145Z" transform="translate(-334.323 -398.117)"/>
      <path id="Path_117" data-name="Path 117" d="M399.641,396.648a.128.128,0,0,1,.145.145v6.235a1.253,1.253,0,0,1-1.353,1.353H397.2v-.8h1.257a.513.513,0,0,0,.58-.58v-6.259a.128.128,0,0,1,.145-.145h.459Z" transform="translate(-345.774 -396.6)"/>
      <path id="Path_118" data-name="Path 118" d="M415.8,404.336a.128.128,0,0,1-.145.145h-.508a.128.128,0,0,1-.145-.145v-7.492a.128.128,0,0,1,.145-.145h.508a.128.128,0,0,1,.145.145Z" transform="translate(-359.273 -396.676)"/>
      <path id="Path_119" data-name="Path 119" d="M443.934,405.149v.8h-1.788v.048a2.1,2.1,0,0,1-.628,1.5,2.05,2.05,0,0,1-1.474.628H437.82a2.207,2.207,0,0,1-1.643-.677,2.245,2.245,0,0,1-.677-1.643v-1.667a.128.128,0,0,1,.145-.145h.508a.128.128,0,0,1,.145.145V405.8a1.408,1.408,0,0,0,.459,1.087,1.5,1.5,0,0,0,1.087.459h2.223a1.32,1.32,0,0,0,1.329-1.329v-.048h-1.474a2.1,2.1,0,0,1-1.6-.677,2.233,2.233,0,0,1-.677-1.595v-.8a2.1,2.1,0,0,1,.677-1.595,2.191,2.191,0,0,1,1.6-.677,2.153,2.153,0,0,1,1.619.677,2.241,2.241,0,0,1,.653,1.643V405.2h1.74Zm-2.562-2.247a1.476,1.476,0,0,0-.435-1.087,1.421,1.421,0,0,0-1.063-.435,1.485,1.485,0,0,0-1.474,1.474v.8a1.485,1.485,0,0,0,1.474,1.474h1.474V402.9Zm-2.513-3.383a.128.128,0,0,1-.145-.145v-.628a.128.128,0,0,1,.145-.145h.532a.128.128,0,0,1,.145.145v.628a.128.128,0,0,1-.145.145Zm1.45,0a.128.128,0,0,1-.145-.145v-.628a.128.128,0,0,1,.145-.145h.532a.128.128,0,0,1,.145.145v.628a.128.128,0,0,1-.145.145Z" transform="translate(-374.819 -398.117)"/>
      <path id="Path_120" data-name="Path 120" d="M472.729,412.823h-.363a1.591,1.591,0,0,1-1.184-.387l-.024-.024a.024.024,0,0,1-.024.024l-.024.024a1.351,1.351,0,0,1-.991.363H468.5v-.8h1.643a.5.5,0,0,0,.411-.145.591.591,0,0,0,.145-.435v-3.6a.128.128,0,0,1,.145-.145h.508a.128.128,0,0,1,.145.145v3.77a.3.3,0,0,0,.1.266.882.882,0,0,0,.653.169h.507v.773Zm-2.562,1.015a.128.128,0,0,1,.145.145v.628a.128.128,0,0,1-.145.145h-.532a.128.128,0,0,1-.145-.145v-.628a.128.128,0,0,1,.145-.145Zm1.426,0a.128.128,0,0,1,.145.145v.628a.128.128,0,0,1-.145.145h-.532a.128.128,0,0,1-.145-.145v-.628a.128.128,0,0,1,.145-.145Z" transform="translate(-399.844 -405.018)"/>
      <path id="Path_121" data-name="Path 121" d="M489.057,412.672h-.362a1.507,1.507,0,0,1-1.184-.411.024.024,0,0,1-.024-.024l-.048.048a1.351,1.351,0,0,1-.991.362H484.9v-.8h1.571a.513.513,0,0,0,.58-.58v-3.625a.128.128,0,0,1,.145-.145h.507a.128.128,0,0,1,.145.145v3.77a.385.385,0,0,0,.1.29.93.93,0,0,0,.628.169h.507v.8Zm-1.353.943a.128.128,0,0,1,.145.145v.628a.128.128,0,0,1-.145.145h-.532a.128.128,0,0,1-.145-.145v-.628a.128.128,0,0,1,.145-.145Z" transform="translate(-412.28 -404.866)"/>
      <path id="Path_122" data-name="Path 122" d="M509.676,404.406h-.362a1.493,1.493,0,0,1-1.112-.435c-.024-.024-.073-.1-.145-.169a1.739,1.739,0,0,1-1.426.58H501v-.8h1.692v-6.839a.128.128,0,0,1,.145-.145h.507a.128.128,0,0,1,.145.145v3.818a4.535,4.535,0,0,1,2.779-1.5,1.965,1.965,0,0,1,1.6.677,2.61,2.61,0,0,1,.6,1.813v1.474a.51.51,0,0,0,.145.387.737.737,0,0,0,.58.193h.508v.8Zm-2.006-2.852a2.07,2.07,0,0,0-.217-.991,1.241,1.241,0,0,0-1.184-.7,2.691,2.691,0,0,0-1.378.532,5.387,5.387,0,0,0-1.4,1.257v2.006h3.142a.883.883,0,0,0,1.039-1.039Z" transform="translate(-424.49 -396.6)"/>
      <path id="Path_123" data-name="Path 123" d="M539.045,400.8a.128.128,0,0,1,.145.145v3.625a1.351,1.351,0,0,1-.363.991,1.391,1.391,0,0,1-.991.362H536v-.8h1.861a.5.5,0,0,0,.411-.145.591.591,0,0,0,.145-.435V400.92a.128.128,0,0,1,.145-.145h.483Zm-1.233-1.281a.128.128,0,0,1-.145-.145v-.628a.128.128,0,0,1,.145-.145h.532a.128.128,0,0,1,.145.145v.628a.128.128,0,0,1-.145.145Zm1.958-.918a.128.128,0,0,1,.145.145v.628a.128.128,0,0,1-.145.145h-.532a.128.128,0,0,1-.145-.145v-.628a.128.128,0,0,1,.145-.145Z" transform="translate(-451.031 -398.117)"/>
    </g>
    <g id="Group_27" data-name="Group 27" transform="translate(143.91 80.135)">
      <path id="Path_124" data-name="Path 124" d="M639.673,357.9a34.091,34.091,0,0,1-4.374,1.813c-1.474.508-2.972.967-4.495,1.353s-3.045.725-4.592.991a33.469,33.469,0,0,1-4.712.532,34.1,34.1,0,0,1,4.374-1.812c1.474-.508,2.973-.967,4.495-1.353s3.045-.725,4.592-.991A33.473,33.473,0,0,1,639.673,357.9Z" transform="translate(-621.5 -357.9)" fill="#1d1d1b"/>
    </g>
    <g id="Group_30" data-name="Group 30" transform="translate(59.135)">
      <g id="Group_28" data-name="Group 28" transform="translate(1.426)">
        <path id="Path_125" data-name="Path 125" d="M289.94,26.3a26.588,26.588,0,0,1-2.972,2.755,37.965,37.965,0,0,1-3.238,2.344c-1.112.725-2.247,1.426-3.432,2.054a24.215,24.215,0,0,1-3.7,1.643,26.588,26.588,0,0,1,2.972-2.755A37.969,37.969,0,0,1,282.811,30c1.112-.725,2.247-1.426,3.432-2.054A24.217,24.217,0,0,1,289.94,26.3Z" transform="translate(-276.6 -26.3)" fill="#1d1d1b"/>
      </g>
      <g id="Group_29" data-name="Group 29" transform="translate(0 0.894)">
        <path id="Path_126" data-name="Path 126" d="M285.9,30a12.9,12.9,0,0,1,.991,1.643,14.658,14.658,0,0,1,.749,1.788,12.568,12.568,0,0,1,.483,1.933,7.22,7.22,0,0,1,.1,1.039,4.261,4.261,0,0,1,0,.556v.266l-.024.29a4.763,4.763,0,0,1-.943,2.417,4.146,4.146,0,0,1-1.16.991,2.211,2.211,0,0,1-.338.169c-.121.048-.242.1-.338.145a2.478,2.478,0,0,1-.338.1l-.338.072-.169.024-.169.024-.338.024c-.121,0-.217.024-.338.024l-.314-.024c-.193-.024-.411-.024-.6-.048l-.556-.1a3.431,3.431,0,0,1-.532-.121l-.532-.145c-.338-.121-.653-.242-.991-.362h-.048c.073.024.145.048.242.073a1.791,1.791,0,0,0,.507.024,1.556,1.556,0,0,0,.918-.483,1.974,1.974,0,0,0,.29-.483c.024-.1.048-.169.073-.266v0c-.024.121-.048.266-.073.387a6.771,6.771,0,0,1-.411,1.184,8.936,8.936,0,0,1-1.208,1.933,6.443,6.443,0,0,1-1.837,1.547,4.661,4.661,0,0,1-2.586.6,6.515,6.515,0,0,1-.677-.1c-.217-.072-.435-.121-.628-.193a4.988,4.988,0,0,1-1.063-.58c-.145-.121-.314-.242-.435-.362a2.923,2.923,0,0,1-.387-.387,6.951,6.951,0,0,1-.652-.822,9.822,9.822,0,0,1-1.522-3.6c.242.217.483.435.7.628l.7.628a14.56,14.56,0,0,0,1.4,1.087,3.485,3.485,0,0,0,2.537.822,2.112,2.112,0,0,0,.894-.459,5.426,5.426,0,0,0,.846-.942,7.5,7.5,0,0,0,.652-1.232,3.485,3.485,0,0,0,.169-.556c.024-.048,0-.048.024-.073h0l.024-.1a3,3,0,0,1,.1-.387,2.416,2.416,0,0,1,.411-.677,2.182,2.182,0,0,1,1.3-.7,2.6,2.6,0,0,1,.749.024c.121.024.242.072.338.1l.072.024c.242.1.508.193.749.29l.363.121a2.478,2.478,0,0,0,.338.1l.338.072c.121.024.217.024.314.048l.145.024h.362a.929.929,0,0,0,.628-.193,1.894,1.894,0,0,0,.556-.894,6.818,6.818,0,0,0,.338-1.5c.072-.556.121-1.136.145-1.716C285.925,32.513,285.9,31.3,285.9,30Z" transform="translate(-270.7 -30)" fill="#1d1d1b"/>
      </g>
    </g>
    <line id="Line_12" data-name="Line 12" x2="29.024" transform="translate(0 94.273)" fill="none" stroke="#1d1d1b" stroke-linecap="round" stroke-linejoin="round" stroke-miterlimit="10" stroke-width="1"/>
  </g>
</svg>
