<svg xmlns="http://www.w3.org/2000/svg" xmlns:xlink="http://www.w3.org/1999/xlink" width="321.056" height="188.71" viewBox="0 0 321.056 188.71">
  <defs>
    <linearGradient id="linear-gradient" x1="0.5" y1="1" x2="0.5" gradientUnits="objectBoundingBox">
      <stop offset="0" stop-color="gray" stop-opacity="0.251"/>
      <stop offset="0.54" stop-color="gray" stop-opacity="0.122"/>
      <stop offset="1" stop-color="gray" stop-opacity="0.102"/>
    </linearGradient>
  </defs>
  <g id="undraw_wedding_t-1-yl" transform="translate(0.02)">
    <path id="Path_127" data-name="Path 127" d="M221.784,273.829c6.2-.354,13.9-4.563,19.88-6.421q10.622-3.3,21.329-6.342,37.26-10.6,75.335-18.073,3.553-.7,7.117-1.364a50.417,50.417,0,0,0-16.631-19.973,51.035,51.035,0,0,0,.281-5.268c0-27.822-22.235-50.377-49.673-50.377a48.907,48.907,0,0,0-24.107,6.326c-19.42-12.775-44.767-20.506-72.5-20.506-39.407,0-74,15.615-93.6,39.121l92.145,15.564,56.5,9.542c-64.415,1.922-129.029,3.834-193.259-.679a50.913,50.913,0,0,0-7.33,64.266h0c0,1.008.042,2,.118,2.994,1.636.471,3.216.923,4.633,1.224q34.128,7.207,68.695,12.067c-16.981,10.471-37.662,11.95-57.25,16.384a57.415,57.415,0,0,0,36.562,12.646H301.373c22.886,0,41.436-15.935,41.436-35.591h0a50.553,50.553,0,0,0,6.735-18.488C307.2,274.957,264.32,271.407,221.784,273.829Z" transform="translate(-28.798 -136.83)" fill="#ff8297" opacity="0.1"/>
    <path id="Path_128" data-name="Path 128" d="M349.036,261.13a50.515,50.515,0,0,0-21.329-41.372,51.9,51.9,0,0,0,.281-5.268c0-27.825-22.238-50.377-49.673-50.377a48.881,48.881,0,0,0-24.112,6.323c-19.417-12.775-44.767-20.506-72.5-20.506-45.124,0-83.939,20.47-101.159,49.827-.957-.056-1.92-.087-2.891-.087-27.43,0-49.673,22.552-49.673,50.375a50.655,50.655,0,0,0,8.172,27.691h0c0,25.033,23.627,45.326,52.76,45.326h211.36c22.883,0,41.433-15.932,41.433-35.588h0a50.675,50.675,0,0,0,7.33-26.344Z" transform="translate(-28 -135.463)" fill="#ff8297" opacity="0.1"/>
    <path id="Path_129" data-name="Path 129" d="M827.1,98.38s-21.048,10.821-10.215,23.647a4.029,4.029,0,0,0,3.974,2.59s-.589-1.078,1.684-1.934a10.923,10.923,0,0,0,2.27-1.2,5.332,5.332,0,0,0,2.04-2.714h0s4.316-5.747,1-16.4c0,0,.438-3.011.062-3.5l-2.565,3.5s2.638,1.782,2.935,4.384c0,0-2.742-4.375-3.34-3.878-.121.1-1.274,1.914-1.274,1.914s4.572,3.115,4.906,7.151c0,0-2.571-5.655-5.352-6.455l-1.58,2.84s5,3.056,5.551,7.636c0,0-2.891-5.815-5.854-6.991l-1.176,3s4.813,3.087,5.251,6.89c0,0-4.022-6.385-5.475-6.174a15.593,15.593,0,0,0-.794,3.69s3.4,2.287,3.46,4.524c0,0-3.138-3.979-3.623-3.718,0,0-.211,3.993.755,6.073a12.124,12.124,0,0,1-1.381-6.073,6.642,6.642,0,0,0-2.023,3.241s-.9-2.2,2.088-4.21c0,0,.281-3.107.631-3.488,0,0-3.23,1.566-4.605,3.5,0,0,.511-2.882,4.889-4.3l1.122-3.045s-4.381,1.847-5.736,3.477c0,0,.977-2.86,6.081-4.21l1.518-2.806a24.808,24.808,0,0,0-5.8,2.79s1.476-2.458,6.261-3.575l1.232-1.754s-2.826,1-3.612,1.364-.949.18-.949.18a10.21,10.21,0,0,1,5.046-2.315S827.3,98.568,827.1,98.38Z" transform="translate(-593.281 -98.38)" fill="#ff8297" opacity="0.1"/>
    <path id="Path_130" data-name="Path 130" d="M761.74,144.571s1.639,10.569,8.683,7.751a1.837,1.837,0,0,0,1.684-1.336s-.547.1-.592-.993a4.942,4.942,0,0,0-.191-1.145,2.408,2.408,0,0,0-.876-1.26h0s-1.847-2.669-6.89-2.767c0,0-1.229-.617-1.49-.525l1.123,1.6a3.23,3.23,0,0,1,2.3-.634s-2.268.561-2.138.878c.025.067.637.819.637.819s1.99-1.515,3.766-1.086c0,0-2.79.3-3.536,1.375l.993,1.08s2.023-1.706,4.066-1.291c0,0-2.907.413-3.833,1.515l1.122.932s2.007-1.628,3.7-1.271c0,0-3.312.817-3.432,1.468a6.949,6.949,0,0,0,1.468.864s1.465-1.123,2.433-.842c0,0-2.152.777-2.11,1.022a7.581,7.581,0,0,0,2.711.544,5.467,5.467,0,0,1-2.806-.281,3.02,3.02,0,0,0,1.1,1.33s-1.072.073-1.507-1.5a6.623,6.623,0,0,1-1.4-.769,6.606,6.606,0,0,0,.842,2.475,2.919,2.919,0,0,1-1.151-2.711l-1.145-.912a9.314,9.314,0,0,0,.674,2.955s-1.089-.828-.946-3.21l-.985-1.05a10.963,10.963,0,0,0,.373,2.882,4.446,4.446,0,0,1-.643-3.194l-.561-.777s.028,1.353.07,1.743-.059.432-.059.432a4.6,4.6,0,0,1-.258-2.5A11.145,11.145,0,0,0,761.74,144.571Z" transform="translate(-555.839 -131.403)" fill="#ff8297" opacity="0.1"/>
    <path id="Path_131" data-name="Path 131" d="M887.108,161.141s-10.459-2.223-10.339,5.355a1.824,1.824,0,0,0,.648,2.043s.1-.547,1.139-.2a4.874,4.874,0,0,0,1.137.227,2.419,2.419,0,0,0,1.49-.365h0s3.154-.777,5.051-5.456c0,0,1.016-.929,1.022-1.2l-1.9.491a3.227,3.227,0,0,1-.224,2.371s.281-2.315-.059-2.312c-.073,0-.993.306-.993.306s.707,2.4-.328,3.906c0,0,.718-2.714-.025-3.794l-1.364.542s.876,2.5-.241,4.26c0,0,.651-2.863-.048-4.12l-1.271.716s.805,2.45-.132,3.909c0,0,.418-3.382-.149-3.727a7.173,7.173,0,0,0-1.333,1.064s.539,1.774-.081,2.573c0,0,.039-2.29-.2-2.338a7.541,7.541,0,0,0-1.473,2.341,5.473,5.473,0,0,1,1.254-2.526,3.022,3.022,0,0,0-1.636.561s.314-1.027,1.936-.876a6.989,6.989,0,0,1,1.218-1.041,6.582,6.582,0,0,0-2.613-.093,2.915,2.915,0,0,1,2.941-.107l1.26-.747a9.376,9.376,0,0,0-3-.424s1.159-.721,3.334.261l1.333-.561a11.208,11.208,0,0,0-2.826-.679,4.437,4.437,0,0,1,3.213.539l.932-.261s-1.274-.457-1.653-.561-.384-.208-.384-.208a4.594,4.594,0,0,1,2.427.648A11.189,11.189,0,0,0,887.108,161.141Z" transform="translate(-638.522 -143.309)" fill="#ff8297" opacity="0.1"/>
    <ellipse id="Ellipse_1" data-name="Ellipse 1" cx="11.284" cy="1.908" rx="11.284" ry="1.908" transform="translate(177.343 178.088)" fill="#ff8297"/>
    <path id="Path_132" data-name="Path 132" d="M690.07,736.667a3.267,3.267,0,0,0,1.075-1.625,1.441,1.441,0,0,0-.752-1.653c-.69-.264-1.428.216-1.987.7a2.662,2.662,0,0,1-1.931.932,2.947,2.947,0,0,0,.909-2.753,1.156,1.156,0,0,0-.253-.561c-.384-.41-1.078-.236-1.538.087-1.459,1.027-1.866,3.008-1.875,4.793a9.01,9.01,0,0,1-.025-1.964,2.024,2.024,0,0,0-.744-1.748,2.221,2.221,0,0,0-1.123-.264,2.33,2.33,0,0,0-1.833.519,1.809,1.809,0,0,0,.07,2.245,7.2,7.2,0,0,0,1.9,1.521,4.21,4.21,0,0,1,1.355,1.294,1.168,1.168,0,0,1,.1.233h4.114a11.442,11.442,0,0,0,2.534-1.754Z" transform="translate(-496.776 -559.798)" fill="#ff8297"/>
    <ellipse id="Ellipse_2" data-name="Ellipse 2" cx="11.284" cy="1.908" rx="11.284" ry="1.908" transform="translate(203.443 184.006)" fill="#ff8297"/>
    <path id="Path_133" data-name="Path 133" d="M783.07,757.777a3.267,3.267,0,0,0,1.075-1.625,1.44,1.44,0,0,0-.752-1.653,2.107,2.107,0,0,0-1.987.7,2.652,2.652,0,0,1-1.931.932,2.947,2.947,0,0,0,.909-2.753,1.143,1.143,0,0,0-.253-.561c-.384-.41-1.078-.236-1.538.087-1.459,1.027-1.866,3.008-1.875,4.793a9.006,9.006,0,0,1-.025-1.964,2.024,2.024,0,0,0-.744-1.748,2.219,2.219,0,0,0-1.122-.264,2.329,2.329,0,0,0-1.833.519,1.809,1.809,0,0,0,.07,2.245,7.26,7.26,0,0,0,1.9,1.521,4.208,4.208,0,0,1,1.355,1.294,1.173,1.173,0,0,1,.1.233h4.114a11.532,11.532,0,0,0,2.534-1.754Z" transform="translate(-563.676 -574.984)" fill="#ff8297"/>
    <ellipse id="Ellipse_3" data-name="Ellipse 3" cx="11.284" cy="1.908" rx="11.284" ry="1.908" transform="translate(39.269 183.901)" fill="#ff8297"/>
    <path id="Path_134" data-name="Path 134" d="M198.07,750.278a3.267,3.267,0,0,0,1.075-1.625,1.441,1.441,0,0,0-.752-1.653c-.69-.264-1.428.216-1.987.7a2.652,2.652,0,0,1-1.931.932,2.947,2.947,0,0,0,.909-2.753,1.157,1.157,0,0,0-.253-.561c-.384-.41-1.078-.236-1.538.087-1.459,1.027-1.866,3.011-1.875,4.793a9.01,9.01,0,0,1-.025-1.964,2.024,2.024,0,0,0-.744-1.748,2.22,2.22,0,0,0-1.123-.264,2.33,2.33,0,0,0-1.833.522,1.809,1.809,0,0,0,.07,2.245,7.146,7.146,0,0,0,1.9,1.521,4.21,4.21,0,0,1,1.355,1.294,1.166,1.166,0,0,1,.1.233h4.114A11.444,11.444,0,0,0,198.07,750.278Z" transform="translate(-142.85 -567.589)" fill="#ff8297"/>
    <path id="Path_135" data-name="Path 135" d="M362.3,405.3a.689.689,0,0,0,0-.076,2.245,2.245,0,0,0-.2-1.041c-.455-.92-1.549-1.072-2.478-1.232a12.221,12.221,0,0,1-4.319-1.625,3.479,3.479,0,0,1-1.889-2.433c0-.227.017-.455,0-.662v-.443c0-.592-.034-1.137-.474-1.243a8.536,8.536,0,0,1-5.815-5.736c-.194-.606-.328-1.238-.578-1.819-.794-1.841-2.562-2.84-3.9-4.232a16.535,16.535,0,0,1-3.514-6.937c-.738-2.557-1.249-5.2-2.217-7.664-1.614-4.106-3.07-8.478-5.806-11.759-.413-.5-.867-1-1.347-1.518-2.433-3.553-4.086-7.754-6.194-11.588a11.6,11.6,0,0,0-1.462-2.2,18.5,18.5,0,0,0-2.475-2.046c-4.055-3.166-6.648-8.138-10.142-12.048a15.867,15.867,0,0,1-2.007-2.464,7.861,7.861,0,0,1,.123-1.431c.225-1.165.828-2.27.724-3.457a4.859,4.859,0,0,1-.059-.7,2.527,2.527,0,0,1,.213-.78,7.715,7.715,0,0,1,.713-1.532,6.52,6.52,0,0,0,.982-2.585c.7-.662,1-1.875,1.875-2.181.486-.168,1.123-.053,1.4-.533a1.285,1.285,0,0,0,.132-.528,8.034,8.034,0,0,0-.239-2.823,6.943,6.943,0,0,0,.056-1.468,8.829,8.829,0,0,0-1.024-3.488,2.66,2.66,0,0,0-1.535-1.515c-.152-.034-.306-.042-.452-.087-.892-.261-1.2-1.639-2.007-2.066,1.036.561,2.094,1.2,3.067.724,1.224-.6,1.325-2.461,1.232-3.949l-.326-5.509c-.174-2.806-.393-5.784-1.838-8.1a10.6,10.6,0,0,0-5.613-4.125,6.674,6.674,0,0,0-4.544-.328c.087-.062.171-.123.255-.18a4.087,4.087,0,0,0-.525.2A9.781,9.781,0,0,0,298,281.54a7.617,7.617,0,0,0,.533-2.806,7.46,7.46,0,0,0-1.173-4.058L299,273.292l-.384-.626.724-.69a.508.508,0,0,0-.432-.241.607.607,0,0,0-.1,0,1.5,1.5,0,0,0-.051-.615l-.051.048a1.852,1.852,0,0,0-.2-.488h.059a1.8,1.8,0,0,0-.115-.182v.087a4.056,4.056,0,0,0-.859-.918,7.871,7.871,0,0,0-4.254-2c-.758-.056-1.518.065-2.276,0-1.022-.07-2.012-.457-3.037-.5a2.6,2.6,0,0,0-2.6,1.4c-.182.449-.208.954-.345,1.417a6.876,6.876,0,0,1-1.816,2.512,3.552,3.552,0,0,0-1.145,2.854,4.1,4.1,0,0,0,.354.977L286.024,284a15.045,15.045,0,0,1-.051,1.684q-.034.362-.093.732c-.017.1-.036.21-.062.317a1.777,1.777,0,0,0-1.072.617.881.881,0,0,0-.185.443,4.007,4.007,0,0,0,.135.761,1.964,1.964,0,0,1-.227.951,7.385,7.385,0,0,1-1.341,2.29c-.247.255-.528.469-.777.721a7.738,7.738,0,0,0-.777.974,6.6,6.6,0,0,0-1.246,2.4c-.314,1.487-.949,2.9-1.4,4.353a1.485,1.485,0,0,1-.239.32c-.281.264-.64.376-.915.634a2.876,2.876,0,0,0-.41,2.54c.544,3.306,1.5,6.525,1.877,9.859a36.325,36.325,0,0,0,.505,3.915,4.77,4.77,0,0,0,.6,1.56,11.155,11.155,0,0,1-.359,3.682c-.208.522-.5,1-.749,1.5a22.01,22.01,0,0,0-.929,2.211l-1.524,4.013c-.281.761-.578,1.527-.8,2.318a23.864,23.864,0,0,0-.544,7.17.309.309,0,0,1-.045.213c-.045.056-.152.039-.154-.037-.02.14-.1.379-.115.516a3.965,3.965,0,0,0,2.2.143v.222a.361.361,0,0,0,0,.053,4.726,4.726,0,0,0,.07.682v.017c.02.115.045.227.07.34a.135.135,0,0,0,.022.09c.025.1.053.2.084.3.017.053.031.1.048.152s.042.124.065.182.025.076.039.112c.185.483.407.949.617,1.42a7.577,7.577,0,0,1,.716,2.318c.017.185.022.37.031.561v.194a5.311,5.311,0,0,0,.05.6c.051.32.146.626.222.94.045.185.079.376.112.561s.065.429.093.643q.317,2.38.469,4.771c.025.384.048.772.067,1.156.132,2.806.1,5.613.065,8.436a16.911,16.911,0,0,1-.281,2.745c-.469,2.658-1.437,5.24-2.077,7.878-.067.281-.129.561-.188.842a11.3,11.3,0,0,0-.281,1.81,12.8,12.8,0,0,0,.219,2.425q.208,1.457.32,2.927a8.2,8.2,0,0,0-.993,2.958c-.34,3.124-2.986,5.467-3.345,8.59a3.862,3.862,0,0,0-.025.6,2.982,2.982,0,0,0,0,.387,2.526,2.526,0,0,0,.084.988,1.965,1.965,0,0,0,1.636,1.232,7.13,7.13,0,0,0,2.06-.2c.309-.053.617-.087.926-.118a2.036,2.036,0,0,1,0,.32,5.518,5.518,0,0,0-.37.814,2.875,2.875,0,0,0-.317,1.058,2.351,2.351,0,0,0,.317,1.246,4.152,4.152,0,0,0,3.387,1.964,28.688,28.688,0,0,0,3.949-.247h.225a2.443,2.443,0,0,0,.166.359,4.147,4.147,0,0,0,3.384,1.964,28.758,28.758,0,0,0,3.951-.244c.393-.02.789-.02,1.181-.048a11.5,11.5,0,0,0,2.38-.435,13.8,13.8,0,0,0,1.911,2.186c2.312,1.964,5.509-1.148,8.4-1.532s6.149-3.1,8.784-1.719c2.021-.222,3.225,2.986,5.254,3.067a3.428,3.428,0,0,0,2.442-1.336,2.473,2.473,0,0,1,.87-.713,1.713,1.713,0,0,1,.867-.028,6.505,6.505,0,0,1,3.968,2.4c.511.64,1.033,1.445,1.8,1.462.688,0,1.3-.648,1.978-.561a3.625,3.625,0,0,1,1.243.7c1.257.744,2.806.056,4.013-.763s2.5-1.81,3.912-1.661a9.3,9.3,0,0,1,2.59,1.041,6.7,6.7,0,0,0,7.765-2.065c.3-.376.609-.811,1.052-.909a1.65,1.65,0,0,1,.87.129,9.288,9.288,0,0,0,4.875.654c1.622-.359,3.166,3.173,3.2,1.326a2.7,2.7,0,0,0-.014-.337c0-.07.014-.143.014-.216A1.558,1.558,0,0,0,362.3,405.3ZM298.6,299.854a1.659,1.659,0,0,1-.561.741c-.022-.121-.045-.241-.07-.365-.1-.522-.216-1.041-.34-1.558a5.969,5.969,0,0,0,1.193.589c-.081.2-.149.407-.23.592Zm-4.114-12.668v.059a2.034,2.034,0,0,0,.842,1.875,7.577,7.577,0,0,0-.842,3.5,5.937,5.937,0,0,1-.561-.446,3.79,3.79,0,0,1-.738-1.086.376.376,0,0,0,.236-.036c.143-.1.138-.328.118-.514a11.026,11.026,0,0,1,.693-5.195,5.65,5.65,0,0,0,.946-.435,4.656,4.656,0,0,0-.688,2.245.1.1,0,0,0-.014.036Zm13.734,14.085a7.091,7.091,0,0,0-.239,1.667,4.254,4.254,0,0,0-2.136-1.684,3.011,3.011,0,0,0-.314-.076,1.822,1.822,0,0,1,.211-.18c.805-.561,1.712-.168,2.638.323a1.344,1.344,0,0,0-.168-.051Z" transform="translate(-204.62 -221.794)" fill="url(#linear-gradient)"/>
    <path id="Path_136" data-name="Path 136" d="M278.4,744.849a2.208,2.208,0,0,0,.362,1.268,4.841,4.841,0,0,0,3.85,2,37.044,37.044,0,0,0,4.49-.25c.449-.02.9-.022,1.344-.048a23.74,23.74,0,0,0,6.735-1.776c.359-.132.777-.345.8-.724a.89.89,0,0,0-.37-.662,3.807,3.807,0,0,0-.957-.612c-1.218-.536-2.677-.4-3.834-1.055-.255-.146-.488-.326-.755-.446a3.214,3.214,0,0,0-.977-.225,14.931,14.931,0,0,0-4.344.143,30.368,30.368,0,0,1-3.275.6,4.178,4.178,0,0,1-1.254-.081c-.281-.065-.637-.317-.9-.149s-.415.7-.542.943A2.742,2.742,0,0,0,278.4,744.849Z" transform="translate(-208.141 -561.534)" fill="#3f3d56"/>
    <path id="Path_137" data-name="Path 137" d="M278.4,744.849a2.208,2.208,0,0,0,.362,1.268,4.841,4.841,0,0,0,3.85,2,37.044,37.044,0,0,0,4.49-.25c.449-.02.9-.022,1.344-.048a23.74,23.74,0,0,0,6.735-1.776c.359-.132.777-.345.8-.724a.89.89,0,0,0-.37-.662,3.807,3.807,0,0,0-.957-.612c-1.218-.536-2.677-.4-3.834-1.055-.255-.146-.488-.326-.755-.446a3.214,3.214,0,0,0-.977-.225,14.931,14.931,0,0,0-4.344.143,30.368,30.368,0,0,1-3.275.6,4.178,4.178,0,0,1-1.254-.081c-.281-.065-.637-.317-.9-.149s-.415.7-.542.943A2.742,2.742,0,0,0,278.4,744.849Z" transform="translate(-208.141 -561.534)" opacity="0.05"/>
    <path id="Path_138" data-name="Path 138" d="M309.718,752.345a2.189,2.189,0,0,0,.362,1.269,4.837,4.837,0,0,0,3.85,2,37,37,0,0,0,4.49-.25c.449-.02.9-.022,1.344-.048a23.744,23.744,0,0,0,6.735-1.776c.359-.135.777-.345.8-.727a.884.884,0,0,0-.37-.66,3.731,3.731,0,0,0-.957-.612c-1.218-.536-2.677-.4-3.833-1.058-.255-.143-.488-.326-.755-.443a3.3,3.3,0,0,0-.977-.227,14.935,14.935,0,0,0-4.344.146,29.715,29.715,0,0,1-3.275.6,4.09,4.09,0,0,1-1.254-.079c-.281-.065-.637-.317-.9-.149s-.418.7-.542.943a2.7,2.7,0,0,0-.368,1.078Z" transform="translate(-230.671 -566.925)" fill="#3f3d56"/>
    <path id="Path_139" data-name="Path 139" d="M281.754,382.718a1.473,1.473,0,0,0-.533-.7c-.587-.326-1.28.281-1.535.89s-.34,1.356-.842,1.8c-.306.281-.727.382-1.041.645a2.694,2.694,0,0,0-.466,2.582c.62,3.368,1.706,6.64,2.138,10.033a35.556,35.556,0,0,0,.561,3.985A3.758,3.758,0,0,0,281.159,404a1.71,1.71,0,0,0,2.175.076,24.941,24.941,0,0,1-1.541-8.854c.017-1.965.281-3.929.334-5.916.059-1.734-.028-3.471-.115-5.206a3.236,3.236,0,0,0-.247-1.3,1.123,1.123,0,0,0-1.058-.665" transform="translate(-207.299 -302.352)" fill="#fbbebe"/>
    <circle id="Ellipse_4" data-name="Ellipse 4" cx="7.064" cy="7.064" r="7.064" transform="translate(79.993 53.029)" fill="#cb8c8e"/>
    <circle id="Ellipse_5" data-name="Ellipse 5" cx="7.086" cy="7.086" r="7.086" transform="translate(89.489 67.157)" fill="#fbbebe"/>
    <path id="Path_140" data-name="Path 140" d="M359.388,381.774c.062.561.281,1.215.817,1.358a6,6,0,0,0,.749.042,1.277,1.277,0,0,1,.923.713,2.287,2.287,0,0,1,.194,1.187,3.738,3.738,0,0,1-.578,1.734,4.981,4.981,0,0,1-2.6,1.9,14.008,14.008,0,0,1-3.216.592,3.845,3.845,0,0,1-1.457-.045,3.088,3.088,0,0,1-.842-.427,8.311,8.311,0,0,1-2.068-1.981,4.967,4.967,0,0,1-.89-1.821,2.739,2.739,0,0,1,.261-1.964.968.968,0,0,1,.471-.446c.6-.216,1.145.528,1.782.544a1.376,1.376,0,0,0,1.122-.887,5.986,5.986,0,0,1,.66-1.353,2.912,2.912,0,0,1,1.544-.8,9.659,9.659,0,0,1,3.143-.516c.536.053.185.373.062.761A3.412,3.412,0,0,0,359.388,381.774Z" transform="translate(-259.897 -300.669)" fill="#fbbebe"/>
    <path id="Path_141" data-name="Path 141" d="M357.167,399.423c.862-.387,1.339-1.322,2.108-1.875a9.879,9.879,0,0,1,2.189-.923,6.384,6.384,0,0,0,2.021-1.291,5.5,5.5,0,0,1,1.684-1.369,2.621,2.621,0,0,1,1.588,0,5.378,5.378,0,0,1,3.227,2.978,16.014,16.014,0,0,1,1.145,4.367l.365,2.245a20.622,20.622,0,0,1,.39,4.165,6.932,6.932,0,0,1-1.274,3.929,7.671,7.671,0,0,0-.811,1.558,2.376,2.376,0,0,0-.239.8,4.372,4.372,0,0,0,.065.71c.118,1.207-.561,2.332-.825,3.516a10.125,10.125,0,0,0-.124,2.405.589.589,0,0,0,.062.3.561.561,0,0,0,.239.191c.185.1.376.191.561.281a21.025,21.025,0,0,1-4.718.5c-2.781-.065-5.495-.842-8.259-1.165a26.158,26.158,0,0,1,.323-3.761,15.236,15.236,0,0,0-.154-2.475,30.029,30.029,0,0,1,.065-6.735c.1-.786.225-1.569.261-2.36.042-.937-.042-1.877.025-2.806.065-.89.281-1.771.3-2.663A.46.46,0,0,0,357.167,399.423Z" transform="translate(-264.355 -310.923)" fill="#f4f6fb"/>
    <path id="Path_142" data-name="Path 142" d="M292.331,481.8c2.907.017,5.47.1,8.369.3.511.842-.713,3.112-.02,3.808,3.974,3.982,4.858,9.334,9.472,12.559.957.668,3.648,1.21,4.49,2.035.66.654-.348.188.14.982,2.806,4.58,9.135,9.1,12.8,13.038,3.109,3.337,4.771,7.788,6.606,11.966a80.983,80.983,0,0,1,2.526,7.8,16.261,16.261,0,0,0,4,7.055c1.521,1.42,3.533,2.436,4.434,4.308a17.932,17.932,0,0,1,.66,1.852,9.261,9.261,0,0,0,6.617,5.834c.817.18.443,1.541.528,2.374a3.6,3.6,0,0,0,2.15,2.495,15.062,15.062,0,0,0,4.908,1.653c1.055.16,2.3.317,2.806,1.252a2.1,2.1,0,0,1,.227,1.061c-.036,1.88-1.8,3.368-3.648,3.738a11.645,11.645,0,0,1-5.545-.665,2.085,2.085,0,0,0-.991-.132,2.466,2.466,0,0,0-1.2.926,8.181,8.181,0,0,1-8.832,2.1,11.347,11.347,0,0,0-2.947-1.061c-1.611-.151-3.067.859-4.454,1.684s-3.138,1.532-4.566.775a4.543,4.543,0,0,0-1.4-.713c-.777-.09-1.471.584-2.245.561-.87-.017-1.468-.842-2.049-1.487a7.594,7.594,0,0,0-4.518-2.411,2.12,2.12,0,0,0-.985.028,2.771,2.771,0,0,0-.991.724A4,4,0,0,1,315.9,567.6c-2.31-.081-3.682-3.345-5.98-3.121-3-1.4-6.707-.679-9.994-.281s-6.926.514-9.559-1.493c-1.386-1.061-2.327-2.6-3.62-3.777-2.043-1.858-4.8-2.669-7.457-3.427-4.21-1.2-8.582-2.414-12.909-1.76a9.606,9.606,0,0,1-2.346.2,2.173,2.173,0,0,1-1.861-1.252,2.45,2.45,0,0,1-.079-1.167c.407-3.177,3.418-5.562,3.8-8.742a9.785,9.785,0,0,1,1.945-4.263,36.787,36.787,0,0,0,2.1-3.623,75.664,75.664,0,0,0,4.125-8.576,74.332,74.332,0,0,0,2.705-9.629c.73-3.135,1.078-6.345,1.6-9.522.382-2.31.979-4.577,1.577-6.842,1.768-6.69,3.547-13.42,6.455-19.7A23.336,23.336,0,0,0,292.331,481.8Z" transform="translate(-199.387 -382.363)" fill="#e3e8f4"/>
    <path id="Path_143" data-name="Path 143" d="M292.331,484.8c2.907.017,5.47-.18,8.369.02a16.351,16.351,0,0,0,2.284,2.506c3.974,3.988,6.926,9.039,11.537,12.261a20.185,20.185,0,0,1,2.806,2.082,11.681,11.681,0,0,1,1.664,2.245c2.806,4.583,4.914,9.682,8.582,13.619,3.109,3.337,4.771,7.788,6.606,11.966a81,81,0,0,1,2.526,7.8,16.26,16.26,0,0,0,4,7.055c1.521,1.42,3.533,2.436,4.434,4.308a17.944,17.944,0,0,1,.66,1.852,9.261,9.261,0,0,0,6.617,5.835c.817.18.443,1.541.528,2.374a3.605,3.605,0,0,0,2.15,2.495A15.061,15.061,0,0,0,360,562.875c1.055.16,2.3.317,2.806,1.252a2.1,2.1,0,0,1,.227,1.061c-.037,1.88-1.8,3.368-3.648,3.738a11.647,11.647,0,0,1-5.545-.665,2.085,2.085,0,0,0-.991-.132,2.467,2.467,0,0,0-1.2.926,8.181,8.181,0,0,1-8.832,2.1,11.345,11.345,0,0,0-2.947-1.061c-1.611-.152-3.067.859-4.454,1.684s-3.138,1.532-4.566.775a4.544,4.544,0,0,0-1.4-.713c-.777-.09-1.471.584-2.245.561-.87-.017-1.468-.842-2.049-1.487a7.594,7.594,0,0,0-4.507-2.422,2.12,2.12,0,0,0-.985.028,2.772,2.772,0,0,0-.991.724A4,4,0,0,1,315.9,570.6c-2.31-.081-3.682-3.345-5.98-3.121-3-1.4-6.707-.679-9.994-.281s-6.926.514-9.559-1.493c-1.386-1.061-2.327-2.6-3.62-3.777-2.043-1.858-4.8-2.669-7.457-3.427-4.21-1.2-8.582-2.413-12.909-1.76a9.609,9.609,0,0,1-2.346.2,2.173,2.173,0,0,1-1.861-1.252,2.45,2.45,0,0,1-.079-1.167c.407-3.177,3.418-5.562,3.8-8.742a9.785,9.785,0,0,1,1.945-4.263,36.771,36.771,0,0,0,2.1-3.623,75.659,75.659,0,0,0,4.125-8.576,74.329,74.329,0,0,0,2.705-9.629c.73-3.135,1.078-6.345,1.6-9.522.382-2.31.979-4.577,1.577-6.842,1.768-6.69,3.547-13.42,6.455-19.7A23.334,23.334,0,0,0,292.331,484.8Z" transform="translate(-199.387 -384.521)" fill="#e3e8f4"/>
    <path id="Path_144" data-name="Path 144" d="M292.331,482.8c2.907.017,5.47-.18,8.369.02a16.351,16.351,0,0,0,2.284,2.506c3.974,3.988,6.926,9.039,11.537,12.261a20.2,20.2,0,0,1,2.806,2.082,11.684,11.684,0,0,1,1.664,2.245c2.806,4.583,4.914,9.682,8.582,13.619,3.109,3.337,4.771,7.788,6.606,11.966a80.992,80.992,0,0,1,2.526,7.8,16.26,16.26,0,0,0,4,7.055c1.521,1.42,3.533,2.436,4.434,4.308a17.939,17.939,0,0,1,.66,1.852,9.261,9.261,0,0,0,6.617,5.834c.817.18.443,1.541.528,2.374a3.605,3.605,0,0,0,2.15,2.495A15.061,15.061,0,0,0,360,560.875c1.055.16,2.3.317,2.806,1.252a2.1,2.1,0,0,1,.227,1.061c-.037,1.88-1.8,3.368-3.648,3.738a11.645,11.645,0,0,1-5.545-.665,2.085,2.085,0,0,0-.991-.132,2.466,2.466,0,0,0-1.2.926,8.181,8.181,0,0,1-8.832,2.1,11.347,11.347,0,0,0-2.947-1.061c-1.611-.152-3.067.859-4.454,1.684s-3.138,1.532-4.566.775a4.544,4.544,0,0,0-1.4-.713c-.777-.09-1.471.584-2.245.561-.87-.017-1.468-.842-2.049-1.487a7.594,7.594,0,0,0-4.507-2.422,2.121,2.121,0,0,0-.985.028,2.772,2.772,0,0,0-.991.724A4,4,0,0,1,315.9,568.6c-2.31-.081-3.682-3.345-5.98-3.121-3-1.4-6.707-.679-9.994-.281s-6.926.514-9.559-1.493c-1.386-1.061-2.327-2.6-3.62-3.777-2.043-1.858-4.8-2.669-7.457-3.427-4.21-1.2-8.582-2.414-12.909-1.76a9.606,9.606,0,0,1-2.346.2,2.173,2.173,0,0,1-1.861-1.252,2.45,2.45,0,0,1-.079-1.167c.407-3.177,3.418-5.562,3.8-8.742a9.784,9.784,0,0,1,1.945-4.263,36.773,36.773,0,0,0,2.1-3.623,75.662,75.662,0,0,0,4.125-8.576,74.336,74.336,0,0,0,2.705-9.629c.73-3.135,1.078-6.345,1.6-9.522.382-2.31.979-4.577,1.577-6.842,1.768-6.69,3.547-13.42,6.455-19.7A23.334,23.334,0,0,0,292.331,482.8Z" transform="translate(-199.387 -383.083)" fill="#f4f6fb"/>
    <path id="Path_145" data-name="Path 145" d="M277.568,531.68c-.926,1.013-.716,2.624-.174,3.884a14.029,14.029,0,0,1,1.515,3.805c.051.455.022.915.1,1.367.059.326.168.637.253.957a10.793,10.793,0,0,1,.236,1.229c.3,2,.5,4.013.606,6.034.154,2.857.115,5.722.076,8.585-.056,4-1.964,7.754-2.893,11.649a10.074,10.074,0,0,0-.32,1.841,11.978,11.978,0,0,0,.244,2.467,40.49,40.49,0,0,1-.491,15.373,3.048,3.048,0,0,1,1.226,2.823,11.258,11.258,0,0,0,5.447.053,25.471,25.471,0,0,1,3.087-1.207c.842-.154,1.816-.076,2.411-.688a2.563,2.563,0,0,0,.516-.982c2.054-5.978,1.479-12.486,1.364-18.8-.062-3.4,0-6.794-.129-10.187A78.881,78.881,0,0,0,287.814,542a30.673,30.673,0,0,0-3.087-8.1,4.231,4.231,0,0,0-1.285-1.448,4.778,4.778,0,0,0-1.981-.525C280.029,531.77,279,531.843,277.568,531.68Z" transform="translate(-206.934 -410.079)" fill="#3f3d56"/>
    <path id="Path_146" data-name="Path 146" d="M289.408,588.867a2.571,2.571,0,0,1-.516.979c-.595.615-1.572.533-2.411.69-.107.02-.213.045-.317.073-.957.255-1.821.82-2.767,1.123a11.444,11.444,0,0,1-5.45-.053,3.053,3.053,0,0,0-1.226-2.826,40.477,40.477,0,0,0,.494-15.37,11.791,11.791,0,0,1-.247-2.467,10.279,10.279,0,0,1,.32-1.841c.923-3.9,2.837-7.647,2.893-11.652.039-2.863.079-5.728-.073-8.585q-.166-3.031-.609-6.034a11.422,11.422,0,0,0-.233-1.229c-.087-.317-.2-.631-.253-.957-.081-.449-.053-.912-.1-1.367a13.918,13.918,0,0,0-1.515-3.8,5.631,5.631,0,0,1-.438-1.633,2.806,2.806,0,0,1,.612-2.245c.963.107,1.74.1,2.582.14.413.017.842.045,1.311.1a4.685,4.685,0,0,1,1.984.525,4.209,4.209,0,0,1,1.283,1.448c.152.244.295.491.432.741a33.891,33.891,0,0,1,2.655,7.358,78.907,78.907,0,0,1,2.829,17.882c.143,3.393.067,6.791.129,10.19C290.889,576.384,291.462,582.886,289.408,588.867Z" transform="translate(-206.934 -410.072)" opacity="0.05"/>
    <path id="Path_147" data-name="Path 147" d="M307.956,532.922V534.4q-.02,7.111-.036,14.22a56.405,56.405,0,0,1-.2,5.846c-.5,5.051-2.343,9.943-2.147,15a45.987,45.987,0,0,1-.457,10.993c-.281,1.381-.69,2.739-.892,4.134a7.807,7.807,0,0,0,.373,4.165,6.97,6.97,0,0,1,1.033,2.806,2.753,2.753,0,0,1-1.327,2.1,6.309,6.309,0,0,1-2.43.811,18.661,18.661,0,0,1-3.236.25c-1.552-.017-3.32-.356-4.123-1.684a4,4,0,0,1-.239-3.039c.031-.118.062-.233.1-.348.264-.884.64-1.734.842-2.632a7.327,7.327,0,0,0-.3-4.257c-.1-.253-.4-.73-.665-.7a11.446,11.446,0,0,1-.561-3.511l-.4-8.054a20.767,20.767,0,0,1,.191-5.248c.281-1.4.878-2.739,1.047-4.162a13.774,13.774,0,0,0-.014-2.568,114.013,114.013,0,0,0-1.706-13.114,1.571,1.571,0,0,0-.216-.623c-.185-.258-.508-.379-.735-.6-.477-.466-.432-1.226-.544-1.886a10.038,10.038,0,0,0-1.6-3.216,11.788,11.788,0,0,1-1.58-5.492,11.524,11.524,0,0,1,.222-2.725c.022-.121.051-.241.079-.362a73.4,73.4,0,0,1,18.281,1.122,1.493,1.493,0,0,1,1.139.606,1.518,1.518,0,0,1,.107.7Z" transform="translate(-215.136 -409.122)" fill="#3f3d56"/>
    <path id="Path_148" data-name="Path 148" d="M470.934,599.361a162.681,162.681,0,0,1,8.453,16.263c1.95,4.56,3.55,9.418,6.822,13.145,3.065,3.488,7.3,5.666,11.453,7.762l-3.721-3.278c-3.735-3.3-7.549-6.688-9.921-11.068a63.282,63.282,0,0,1-3.087-7.532,69.076,69.076,0,0,0-10.28-18.141A51.193,51.193,0,0,0,466.78,592C467.731,594.526,469.592,597,470.934,599.361Z" transform="translate(-343.656 -453.471)" fill="#e3e8f4"/>
    <path id="Path_149" data-name="Path 149" d="M421.569,731.275a22.548,22.548,0,0,0,3.222,5.315,4.1,4.1,0,0,0-1.019-2.542,21.749,21.749,0,0,1-2.015-4.628c-.511-1.473-.985-3.505-2.071-4.67C419.13,726.748,420.727,729.557,421.569,731.275Z" transform="translate(-309.696 -548.967)" fill="#e3e8f4"/>
    <path id="Path_150" data-name="Path 150" d="M371.625,585.074c.264,1.4.418,2.806.772,4.179a29.8,29.8,0,0,0,1.277,3.62l5.916,14.745c-.05-2-1.123-3.817-1.8-5.7-.842-2.31-1.145-4.771-1.833-7.145-.561-1.925-1.375-3.763-1.964-5.68-.819-2.7-1.165-5.526-1.807-8.276a60.522,60.522,0,0,0-2.169-7.016,6.841,6.841,0,0,0-1.709-2.958,2.408,2.408,0,0,0-3.14-.152c-1.153,1.142.595,1.858,1.17,2.6a27.9,27.9,0,0,1,5.287,11.787Z" transform="translate(-270.279 -437.773)" fill="#e3e8f4"/>
    <path id="Path_151" data-name="Path 151" d="M406.43,505.527a5.376,5.376,0,0,1,.814,1.055,14.494,14.494,0,0,0,.842,1.807,17.659,17.659,0,0,0-2.391-2.717c-.539-.463-1.123-.862-1.664-1.325-.413-.354-2.22-1.886-1.861-2.408A16.74,16.74,0,0,1,406.43,505.527Z" transform="translate(-297.144 -388.686)" fill="#e3e8f4"/>
    <path id="Path_152" data-name="Path 152" d="M320.488,317.195a4.039,4.039,0,0,1-.727,1.583,10.129,10.129,0,0,0-1.445,4.9,9.821,9.821,0,0,0,.067,1.518c.022.188.028.424-.135.522a.471.471,0,0,1-.281.036c-.191-.017-.376-.039-.561-.07-3-.48-5.627-2.526-8.646-3.042a1.442,1.442,0,0,0,.772-.912,4.106,4.106,0,0,0,.182-.7c.045-.25.079-.5.1-.744a32.347,32.347,0,0,0-.185-5.3c-.115-2.138,2.526-1.434,4.075-1.462a12.844,12.844,0,0,1,3.71.295,4.351,4.351,0,0,1,2.86,2.214A2.245,2.245,0,0,1,320.488,317.195Z" transform="translate(-229.983 -253.08)" fill="#cb8c8e"/>
    <path id="Path_153" data-name="Path 153" d="M320.227,342.959a.471.471,0,0,1-.281.036c-.191-.017-.376-.039-.561-.07-.258-.241-.508-.494-.746-.758a16.393,16.393,0,0,0-1.717-1.838,5.961,5.961,0,0,0-3.508-1.252,11.539,11.539,0,0,1-1.9-.107,4.105,4.105,0,0,0,.182-.7c.045-.25.079-.5.1-.744a9.414,9.414,0,0,1,1.061-.076,5.1,5.1,0,0,1,1.257-.025,6.418,6.418,0,0,1,1.928.814,22.945,22.945,0,0,1,2.585,1.336c.247.174.483.365.718.561.32.261.637.525.957.783a9.821,9.821,0,0,0,.067,1.518C320.384,342.622,320.389,342.86,320.227,342.959Z" transform="translate(-231.961 -270.324)" fill="#e3e8f4"/>
    <path id="Path_154" data-name="Path 154" d="M300.273,532.915v1.476c-1.167.034-2.36.2-3.522.281-1.092.079-2.186.081-3.281.067a9.525,9.525,0,0,1-2.543-.281c-.6-.174-1.159-.46-1.754-.64a8.448,8.448,0,0,0-3.494-.163c-.965.112-1.939.281-2.9.368a3.894,3.894,0,0,1-1.852-.191,3.43,3.43,0,0,1-.477-.264,6.5,6.5,0,0,0-.741-.429,4.386,4.386,0,0,0-2.231-.185,2.806,2.806,0,0,1,.612-2.245c.963.107,1.74.1,2.582.14.022-.121.051-.241.079-.362a73.4,73.4,0,0,1,18.281,1.123,1.493,1.493,0,0,1,1.139.606A1.518,1.518,0,0,1,300.273,532.915Z" transform="translate(-207.452 -409.114)" opacity="0.1"/>
    <path id="Path_155" data-name="Path 155" d="M281.207,341.217a2.474,2.474,0,0,0-1.653.7.842.842,0,0,0-.21.452,3.783,3.783,0,0,0,.152.775,1.81,1.81,0,0,1-.258.965,7.512,7.512,0,0,1-1.527,2.332c-.281.261-.6.477-.884.732a7.819,7.819,0,0,0-.884.993,6.451,6.451,0,0,0-1.417,2.442c-.379,1.6-1.167,3.115-1.684,4.681a10.125,10.125,0,0,0-.561,4.855c.132.769.4,1.507.584,2.265.3,1.215.382,2.472.7,3.682.2.755.486,1.485.7,2.245a12.23,12.23,0,0,1,.373,5.021c-.21,1.535.143,3.168-.477,4.586a17.29,17.29,0,0,1-.842,1.527,21.31,21.31,0,0,0-1.058,2.245l-1.732,4.086a23.732,23.732,0,0,0-.906,2.357,21.741,21.741,0,0,0-.623,7.3.309.309,0,0,1-.048.219c-.053.056-.174.039-.177-.036-.022.14-.112.384-.132.525,1.473.64,3.286-.328,4.754.326.427.191.789.508,1.218.693a3.861,3.861,0,0,0,1.852.194c2.141-.177,4.339-.842,6.393-.208.6.182,1.156.469,1.754.643a9.555,9.555,0,0,0,2.545.281c1.095.017,2.189.014,3.281-.067,2.349-.171,4.816-.685,6.979.247a2.512,2.512,0,0,0,.78-2.175q.079-2.442.157-4.88l.581-17.947a17.961,17.961,0,0,0-.138-3.7,17.723,17.723,0,0,0-2.806-6.115l-5.582-8.98c-.37-.595,0-1.26.255-1.914a12.394,12.394,0,0,0,.718-2.913,2.614,2.614,0,0,0-.413-2.1,8.989,8.989,0,0,0-1-.741,4.637,4.637,0,0,1-1.027-1.434,9.261,9.261,0,0,0-3.281-3.418A6.938,6.938,0,0,0,281.207,341.217Z" transform="translate(-201.122 -273.011)" fill="#3f3d56"/>
    <path id="Path_156" data-name="Path 156" d="M323.036,368.858c-1.984.547-3.213,2.562-3.758,4.546a17.182,17.182,0,0,0,.1,8.537,47.875,47.875,0,0,0,2.989,8.082,19.419,19.419,0,0,0,.921,1.88,9.006,9.006,0,0,0,4.12,3.741,7.611,7.611,0,0,0,5.52.244,3.244,3.244,0,0,0,.926-.471c.993-.763,1.148-2.178,1.221-3.429l.25-4.386a2.209,2.209,0,0,0-.034-.693,2.526,2.526,0,0,0-.508-.842,10.491,10.491,0,0,1-1.8-3.57,18.158,18.158,0,0,0-.783-2.708c-.236-.516-.561-.988-.817-1.5a14.3,14.3,0,0,1-1.024-3.516q-.345-1.566-.825-3.1a5.225,5.225,0,0,0-.716-1.591,5.413,5.413,0,0,0-3.41-1.684,3.929,3.929,0,0,0-1.847-.09,4.082,4.082,0,0,0-1.726,1.232" transform="translate(-237.192 -292.508)" opacity="0.1"/>
    <path id="Path_157" data-name="Path 157" d="M324.036,367.858c-1.984.547-3.213,2.562-3.758,4.546a17.182,17.182,0,0,0,.1,8.537,47.872,47.872,0,0,0,2.989,8.082,19.406,19.406,0,0,0,.921,1.88,9.006,9.006,0,0,0,4.12,3.741,7.611,7.611,0,0,0,5.52.244,3.243,3.243,0,0,0,.926-.471c.993-.763,1.148-2.178,1.221-3.429l.25-4.386a2.209,2.209,0,0,0-.034-.693,2.526,2.526,0,0,0-.508-.842,10.49,10.49,0,0,1-1.8-3.57,18.155,18.155,0,0,0-.783-2.708c-.236-.516-.561-.988-.817-1.5a14.306,14.306,0,0,1-1.024-3.516q-.345-1.566-.825-3.1a5.225,5.225,0,0,0-.716-1.591,5.413,5.413,0,0,0-3.41-1.684,3.929,3.929,0,0,0-1.847-.09,4.082,4.082,0,0,0-1.726,1.232" transform="translate(-237.911 -291.788)" fill="#3f3d56"/>
    <path id="Path_158" data-name="Path 158" d="M402.261,399.016a6.609,6.609,0,0,1-.37-4.746c1.1.281,1.4,1.9,2.526,2.192.166.042.342.051.511.087a2.882,2.882,0,0,1,1.748,1.543,8.3,8.3,0,0,1,1.167,3.547,5.942,5.942,0,0,1-.842,3.606c.028-.042-1.964-2.085-2.133-2.3q-.525-.615-1.027-1.254a8.995,8.995,0,0,1-.946-1.271c-.1-.18-.115-.387-.2-.578C402.564,399.563,402.4,399.293,402.261,399.016Z" transform="translate(-296.778 -311.232)" fill="#cb8c8e"/>
    <path id="Path_159" data-name="Path 159" d="M325.757,424.332a12.261,12.261,0,0,1-3.488,7.12,2.1,2.1,0,0,1-1.566.783c-.648-.067-1.094-.657-1.558-1.123a30.193,30.193,0,0,0-2.9-2.08,14.784,14.784,0,0,1-1.37-1.283,31.885,31.885,0,0,1-3.856-4.443,25.336,25.336,0,0,0-1.886-2.739c-.581-.659-1.28-1.2-1.892-1.833a4.4,4.4,0,0,1-1.3-2.245c-.154-.915-1.123-1.51-1.732-2.211a7.79,7.79,0,0,1-1.7-6.505,1.493,1.493,0,0,1,.775-1.2,1.254,1.254,0,0,1,.578-.036A4.939,4.939,0,0,1,306.7,408.6a17.3,17.3,0,0,1,1.445,1.908,16.948,16.948,0,0,1,1.779,5.021c.244,1.013,1.254,1.762,1.981,2.509l1.824,1.872c.435.446.87.9,1.347,1.3a17.507,17.507,0,0,0,4.434,2.526,5.626,5.626,0,0,1,.617-1.437,1.866,1.866,0,0,1,1.257-.842,2.82,2.82,0,0,1,1.964.842l2.147,1.684C325.617,424.079,325.774,424.186,325.757,424.332Z" transform="translate(-225.39 -320.041)" fill="#fbbebe"/>
    <path id="Path_160" data-name="Path 160" d="M375.45,408.585a3.1,3.1,0,0,1,.615.971,6.377,6.377,0,0,1,.626,3.168,9.465,9.465,0,0,1-.387,1.732l-.668,2.3a107.1,107.1,0,0,1-3.483,10.574c-1.153-1.5-3.171-1.948-4.81-2.882a1.356,1.356,0,0,1-.424-.328,1.206,1.206,0,0,1-.211-.718,5.369,5.369,0,0,1,.443-2c1.022-2.742,2.439-5.419,2.6-8.338a15.69,15.69,0,0,1,.1-1.625,4.608,4.608,0,0,1,2.161-3.115A3.017,3.017,0,0,1,375.45,408.585Z" transform="translate(-271.668 -321.042)" opacity="0.1"/>
    <path id="Path_161" data-name="Path 161" d="M374.451,406.29a3.135,3.135,0,0,1,.615.971,6.376,6.376,0,0,1,.626,3.168,9.416,9.416,0,0,1-.387,1.754l-.668,2.3a107.114,107.114,0,0,1-3.483,10.574c-1.153-1.493-3.171-1.948-4.81-2.882a1.346,1.346,0,0,1-.424-.326,1.221,1.221,0,0,1-.21-.718,5.372,5.372,0,0,1,.443-2.007c1.022-2.742,2.439-5.416,2.6-8.338a15.585,15.585,0,0,1,.1-1.622,4.605,4.605,0,0,1,2.161-3.118A3,3,0,0,1,374.451,406.29Z" transform="translate(-270.949 -319.399)" fill="#f4f6fb"/>
    <path id="Path_162" data-name="Path 162" d="M354.432,327.158a3.883,3.883,0,0,1,.811,2.279,14.939,14.939,0,0,1-.41,6.309,7.594,7.594,0,0,1-4,4.709c2.717.441,5.944.716,7.785-1.333a5.922,5.922,0,0,1,1.108-1.167c1.95-1.229,4.426,2.012,6.542,1.092,1.4-.606,1.5-2.5,1.4-4.019l-.384-5.613c-.2-2.865-.446-5.893-2.088-8.24a12.164,12.164,0,0,0-6.376-4.21,8.127,8.127,0,0,0-5.475-.219c-2.2.9-6.455,4.513-6.429,7.182C346.967,327.894,352.58,325.2,354.432,327.158Z" transform="translate(-257.433 -255.183)" fill="#3f3d56"/>
    <path id="Path_163" data-name="Path 163" d="M364.887,416.13a2.807,2.807,0,0,0,.932-.121c.477-.177.842-.62,1.355-.693.258-.036.589,0,.7-.244a.971.971,0,0,0,.036-.351c.039-.682.9-.918,1.473-1.283a4.314,4.314,0,0,0,.957-.921l1.993-2.355a1.493,1.493,0,0,1,.758-.575,1.353,1.353,0,0,1,.985.281,7.7,7.7,0,0,1,3.4,7.139,1.21,1.21,0,0,1-.146.547c-.312.488-1.044.37-1.6.544-1.058.331-1.381,1.7-2.287,2.341-.407.281-.909.4-1.3.693a8.874,8.874,0,0,0-1.058,1.2,6.683,6.683,0,0,1-2.13,1.4l-2.349,1.145a9.224,9.224,0,0,1-1.44.6,9.07,9.07,0,0,1-2.616.222l-1.72-.022a1.013,1.013,0,0,1-.561-.112.941.941,0,0,1-.25-.281,6.174,6.174,0,0,1-.749-4.605,9.165,9.165,0,0,1,1.8-4.072C361.873,415.763,363.776,416.153,364.887,416.13Z" transform="translate(-266.215 -322.246)" fill="#3f3d56"/>
    <path id="Path_164" data-name="Path 164" d="M313.123,279.733a1.277,1.277,0,0,1,.648-1.364l2.133-1.6-.438-.637.822-.7a.6.6,0,0,0-.606-.236c.129-.867-.612-1.6-1.316-2.116a9.543,9.543,0,0,0-4.844-2.04c-.862-.056-1.726.067-2.587,0-1.162-.073-2.29-.466-3.455-.511a3.079,3.079,0,0,0-2.961,1.459,13.841,13.841,0,0,0-.393,1.442,7.124,7.124,0,0,1-2.065,2.554,3.421,3.421,0,0,0-1.3,2.9,3.822,3.822,0,0,0,.4,1l4.35,8.4a1.934,1.934,0,0,1,1.462-1.007,9.072,9.072,0,0,1,2.127.326,3.368,3.368,0,0,0,2.893-1.123c.96-1.106,1.193-3.929,2.86-4.21.589-.1,1.532.643,2.046.348C313.5,282.278,313.135,280.356,313.123,279.733Z" transform="translate(-221.322 -222.21)" fill="#3f3d56"/>
    <g id="Group_32" data-name="Group 32" transform="translate(89.472 61.286)" opacity="0.1">
      <path id="Path_165" data-name="Path 165" d="M352.482,339.887a7.622,7.622,0,0,0,4-4.712,14.9,14.9,0,0,0,.41-6.309,3.864,3.864,0,0,0-.811-2.279c-1.852-1.964-7.465.735-7.516-3.21-.031-2.276,3.065-5.234,5.332-6.617a5.147,5.147,0,0,0-.6.2c-2.2.9-6.455,4.516-6.429,7.182.051,3.946,5.663,1.254,7.516,3.213a3.876,3.876,0,0,1,.811,2.279,14.927,14.927,0,0,1-.41,6.306,7.607,7.607,0,0,1-4,4.712c2.4.387,5.189.645,7.078-.7A13.6,13.6,0,0,1,352.482,339.887Z" transform="translate(-346.87 -316.76)"/>
      <path id="Path_166" data-name="Path 166" d="M397.172,389.526a2.492,2.492,0,0,0-.542.488c1.72.112,3.676,2.116,5.4,1.367a1.937,1.937,0,0,0,.763-.6C400.907,390.708,398.847,388.471,397.172,389.526Z" transform="translate(-382.665 -368.902)"/>
    </g>
    <g id="Group_33" data-name="Group 33" transform="translate(75.5 51.71)" opacity="0.1">
      <path id="Path_167" data-name="Path 167" d="M363.2,282.822c-.042-.062-.087-.124-.132-.182a1.58,1.58,0,0,1-.014.194A.629.629,0,0,1,363.2,282.822Z" transform="translate(-344.536 -282.64)"/>
      <path id="Path_168" data-name="Path 168" d="M316.621,285.777a.6.6,0,0,0-.606-.236,1.362,1.362,0,0,0-.056-.631l-.581.5.438.634-2.133,1.605a1.277,1.277,0,0,0-.648,1.364c0,.623.379,2.545-.227,2.891-.511.295-1.457-.449-2.043-.348-1.667.281-1.9,3.087-2.86,4.21a3.368,3.368,0,0,1-2.893,1.123,9.083,9.083,0,0,0-2.127-.323,1.945,1.945,0,0,0-1.465,1.007l-4.339-8.383v.062a3.93,3.93,0,0,0,.4,1l4.344,8.383a1.945,1.945,0,0,1,1.465-1.007,9.07,9.07,0,0,1,2.127.326,3.368,3.368,0,0,0,2.893-1.123c.96-1.106,1.193-3.929,2.86-4.21.587-.1,1.532.643,2.043.348.606-.345.239-2.268.227-2.891a1.709,1.709,0,0,1,.124-.842,1.684,1.684,0,0,1,.525-.53l2.133-1.6-.438-.637Z" transform="translate(-297.08 -284.273)"/>
    </g>
    <path id="Path_169" data-name="Path 169" d="M273.377,487.311c-.281,1.2-.457,2.422-.842,3.592-.168.528-.376,1.041-.542,1.569-.149.48-.261.965-.376,1.454l-.457,1.964a.9.9,0,0,0,.7-.393,2.657,2.657,0,0,0,.345-.752l.766-2.279.561-1.684c.8-2.371,1.6-4.748,2.2-7.179.152-.6.281-1.2.413-1.807.051-.233.418-1.532.042-1.423-.267.076-.718,1.26-.842,1.518-.281.516-.511,1.044-.738,1.58A23.37,23.37,0,0,0,273.377,487.311Z" transform="translate(-202.935 -373.167)" opacity="0.1"/>
    <path id="Path_170" data-name="Path 170" d="M327.17,392.137s-1.268-.457-1.58.087c0,0,2.307.842,2.773,2.054,0,0,.595-.612-.219-1.389l-.152-1.139Z" transform="translate(-242.089 -309.419)" fill="#00a66c"/>
    <path id="Path_171" data-name="Path 171" d="M333.064,385.331s.07-.578-.222-.64a1.789,1.789,0,0,0-1.95,2.245c.317,2.192,2.6,1.37,2.6,1.37l1-1.167a1.73,1.73,0,0,0-1.19-1.92Z" transform="translate(-245.879 -304.333)" fill="#ff8297"/>
    <path id="Path_172" data-name="Path 172" d="M330.19,382.76a2.3,2.3,0,0,0-.887,3.056l.648-.376S330.762,383.543,330.19,382.76Z" transform="translate(-244.596 -302.952)" opacity="0.1"/>
    <path id="Path_173" data-name="Path 173" d="M329.976,382.6a2.3,2.3,0,0,0-.884,3.056l.5.295S330.552,383.383,329.976,382.6Z" transform="translate(-244.444 -302.837)" fill="#ff8297"/>
    <path id="Path_174" data-name="Path 174" d="M336.925,390.516a1.493,1.493,0,0,0,.528.763c.4.281-.4.929-.4.929s-1.089,1.238-2.119.634c-.615-1.036-.152-1.179-.152-1.179S336.066,390.252,336.925,390.516Z" transform="translate(-248.581 -308.508)" opacity="0.1"/>
    <path id="Path_175" data-name="Path 175" d="M336.6,390.726a1.493,1.493,0,0,0,.528.763c.4.281-.4.929-.4.929s-1.086,1.238-2.119.634-.152-1.176-.152-1.176S335.726,390.462,336.6,390.726Z" transform="translate(-248.212 -308.659)" fill="#ff8297"/>
    <path id="Path_176" data-name="Path 176" d="M326.058,380.6s-1.274.443-1.173,1.064c0,0,2.324-.8,3.449-.149,0,0,.076-.842-1.044-.943l-.842-.791Z" transform="translate(-241.578 -300.808)" fill="#5f3839"/>
    <path id="Path_177" data-name="Path 177" d="M327.369,372.2s-.309-.494-.561-.359a1.793,1.793,0,0,0-.107,2.966c1.619,1.5,2.885-.561,2.885-.561l.028-1.538a1.728,1.728,0,0,0-2.133-.741Z" transform="translate(-242.35 -295.079)" fill="#ff8297"/>
    <path id="Path_178" data-name="Path 178" d="M323.61,373.49a2.3,2.3,0,0,0,1.238,2.933l.267-.7S324.542,373.74,323.61,373.49Z" transform="translate(-240.556 -296.284)" opacity="0.1"/>
    <path id="Path_179" data-name="Path 179" d="M323.313,373.5a2.3,2.3,0,0,0,1.238,2.933l.575-.087S324.253,373.747,323.313,373.5Z" transform="translate(-240.343 -296.291)" fill="#ff8297"/>
    <path id="Path_180" data-name="Path 180" d="M334.055,373.41a1.5,1.5,0,0,0,.892.264c.494-.031.281.974.281.974s-.067,1.647-1.249,1.827c-1.123-.418-.859-.819-.859-.819S333.222,373.747,334.055,373.41Z" transform="translate(-247.487 -296.226)" opacity="0.1"/>
    <path id="Path_181" data-name="Path 181" d="M334.248,373.51a1.5,1.5,0,0,0,.892.264c.494-.031.281.974.281.974s-.065,1.647-1.246,1.827-.859-.819-.859-.819S333.415,373.847,334.248,373.51Z" transform="translate(-247.619 -296.298)" fill="#ff8297"/>
    <path id="Path_182" data-name="Path 182" d="M309.9,384.241s.4-.354.626.112l-.188,1.044-1.159,10.339-.741,1.355Z" transform="translate(-229.752 -303.925)" fill="#00a66c"/>
    <path id="Path_183" data-name="Path 183" d="M285.445,277.62l-4.855,15.772.441.244,4.816-15.912Z" transform="translate(-201.86 -199.709)" fill="#00a66c"/>
    <path id="Path_184" data-name="Path 184" d="M312.75,401.48s-1.089,4.117-2.29,5.759a4.3,4.3,0,0,0-.974,3l.393.121,3.227-8.6Z" transform="translate(-230.493 -316.418)" fill="#00a66c"/>
    <path id="Path_185" data-name="Path 185" d="M289.546,290.19l-6.926,12.062.331.18,7.142-12.154Z" transform="translate(-203.321 -208.752)" fill="#00a66c"/>
    <path id="Path_186" data-name="Path 186" d="M290.637,301.54l-8.627,8.992.258.334L291,301.742Z" transform="translate(-202.882 -216.916)" fill="#00a66c"/>
    <path id="Path_187" data-name="Path 187" d="M320.895,401.219s-.115-.505-.5-.41-8.012,8.562-8.012,8.562l.323.253Z" transform="translate(-232.587 -315.927)" fill="#00a66c"/>
    <path id="Path_188" data-name="Path 188" d="M309.135,380.616s-1.3.354-1.24.979c0,0,2.371-.634,3.449.09,0,0,.135-.842-.977-1.013l-.78-.842Z" transform="translate(-229.358 -300.844)" fill="#00a66c"/>
    <path id="Path_189" data-name="Path 189" d="M311.045,372.211s-.281-.514-.547-.4a1.789,1.789,0,0,0-.314,2.95c1.51,1.605,2.919-.37,2.919-.37l.149-1.532a1.73,1.73,0,0,0-2.077-.887Z" transform="translate(-230.539 -295.066)" fill="#ff8297"/>
    <path id="Path_190" data-name="Path 190" d="M307.321,373.09a2.3,2.3,0,0,0,1.03,3.011l.314-.679S308.239,373.4,307.321,373.09Z" transform="translate(-228.794 -295.996)" opacity="0.1"/>
    <path id="Path_191" data-name="Path 191" d="M307.052,373.08a2.3,2.3,0,0,0,1.03,3.011l.581-.045S307.972,373.392,307.052,373.08Z" transform="translate(-228.6 -295.989)" fill="#ff8297"/>
    <path id="Path_192" data-name="Path 192" d="M317.49,373.88a1.5,1.5,0,0,0,.873.314c.494,0,.2.991.2.991s-.18,1.639-1.37,1.737c-1.1-.494-.8-.878-.8-.878S316.637,374.158,317.49,373.88Z" transform="translate(-235.449 -296.564)" opacity="0.1"/>
    <path id="Path_193" data-name="Path 193" d="M317.638,374a1.515,1.515,0,0,0,.873.326c.494,0,.2.991.2.991s-.18,1.636-1.369,1.734-.8-.876-.8-.876S316.785,374.281,317.638,374Z" transform="translate(-235.538 -296.65)" fill="#ff8297"/>
    <path id="Path_194" data-name="Path 194" d="M320.958,371.986s-1.3.354-1.243.979c0,0,2.371-.634,3.449.087,0,0,.138-.842-.977-1.01l-.78-.842Z" transform="translate(-237.862 -294.636)" fill="#00a66c"/>
    <path id="Path_195" data-name="Path 195" d="M322.865,363.6s-.281-.514-.547-.4a1.789,1.789,0,0,0-.314,2.949c1.51,1.605,2.919-.37,2.919-.37l.149-1.532a1.73,1.73,0,0,0-2.077-.887Z" transform="translate(-239.042 -288.872)" fill="#ff8297"/>
    <path id="Path_196" data-name="Path 196" d="M319.142,364.48a2.3,2.3,0,0,0,1.03,3.011l.314-.679S320.07,364.792,319.142,364.48Z" transform="translate(-237.297 -289.802)" opacity="0.1"/>
    <path id="Path_197" data-name="Path 197" d="M318.874,364.47a2.3,2.3,0,0,0,1.03,3.011l.581-.048S319.795,364.781,318.874,364.47Z" transform="translate(-237.105 -289.795)" fill="#ff8297"/>
    <path id="Path_198" data-name="Path 198" d="M329.315,365.27a1.49,1.49,0,0,0,.87.323c.494,0,.2.991.2.991s-.18,1.639-1.37,1.737c-1.095-.5-.8-.878-.8-.878S328.459,365.548,329.315,365.27Z" transform="translate(-243.954 -290.37)" opacity="0.1"/>
    <path id="Path_199" data-name="Path 199" d="M329.46,365.38a1.49,1.49,0,0,0,.87.323c.494,0,.2.991.2.991s-.18,1.639-1.369,1.737-.8-.878-.8-.878S328.6,365.658,329.46,365.38Z" transform="translate(-244.04 -290.45)" fill="#ff8297"/>
    <path id="Path_200" data-name="Path 200" d="M330.09,385.007s-1.268-.457-1.58.087c0,0,2.307.842,2.776,2.054,0,0,.595-.612-.219-1.389l-.152-1.139Z" transform="translate(-244.19 -304.29)" fill="#00a66c"/>
    <path id="Path_201" data-name="Path 201" d="M335.957,378.171s.07-.578-.222-.64a1.8,1.8,0,0,0-1.964,2.245c.3,2.192,2.6,1.37,2.6,1.37l1-1.167a1.733,1.733,0,0,0-1.193-1.92Z" transform="translate(-247.952 -299.182)" fill="#ff8297"/>
    <path id="Path_202" data-name="Path 202" d="M333.143,375.64a2.3,2.3,0,0,0-.884,3.056l.645-.376S333.7,376.423,333.143,375.64Z" transform="translate(-246.722 -297.83)" opacity="0.1"/>
    <path id="Path_203" data-name="Path 203" d="M332.9,375.48a2.3,2.3,0,0,0-.887,3.056l.5.295S333.472,376.263,332.9,375.48Z" transform="translate(-246.545 -297.715)" fill="#ff8297"/>
    <path id="Path_204" data-name="Path 204" d="M339.848,383.4a1.516,1.516,0,0,0,.528.763c.4.281-.4.929-.4.929s-1.089,1.238-2.119.634c-.612-1.033-.152-1.179-.152-1.179S338.99,383.132,339.848,383.4Z" transform="translate(-250.685 -303.386)" opacity="0.1"/>
    <path id="Path_205" data-name="Path 205" d="M339.489,383.606a1.507,1.507,0,0,0,.528.766c.4.281-.4.926-.4.926s-1.089,1.238-2.119.637-.152-1.179-.152-1.179S338.63,383.342,339.489,383.606Z" transform="translate(-250.295 -303.537)" fill="#ff8297"/>
    <path id="Path_206" data-name="Path 206" d="M337.347,397.257s-1.268-.457-1.577.09c0,0,2.3.842,2.773,2.054,0,0,.595-.615-.219-1.389l-.152-1.142Z" transform="translate(-249.413 -313.102)" fill="#00a66c"/>
    <path id="Path_207" data-name="Path 207" d="M343.241,390.419s.07-.578-.222-.637a1.787,1.787,0,0,0-1.948,2.245c.317,2.195,2.6,1.372,2.6,1.372l1-1.17a1.73,1.73,0,0,0-1.193-1.917Z" transform="translate(-253.202 -307.996)" fill="#ff8297"/>
    <path id="Path_208" data-name="Path 208" d="M340.363,387.88a2.3,2.3,0,0,0-.884,3.059l.645-.376S340.939,388.663,340.363,387.88Z" transform="translate(-251.915 -306.635)" opacity="0.1"/>
    <path id="Path_209" data-name="Path 209" d="M340.14,387.72a2.3,2.3,0,0,0-.887,3.056l.5.295S340.715,388.5,340.14,387.72Z" transform="translate(-251.753 -306.52)" fill="#ff8297"/>
    <path id="Path_210" data-name="Path 210" d="M347.071,395.636a1.512,1.512,0,0,0,.525.766c.4.281-.4.926-.4.926s-1.089,1.238-2.119.637c-.612-1.036-.152-1.179-.152-1.179S346.229,395.372,347.071,395.636Z" transform="translate(-255.878 -312.191)" opacity="0.1"/>
    <path id="Path_211" data-name="Path 211" d="M346.739,395.856a1.493,1.493,0,0,0,.528.763c.4.281-.4.929-.4.929s-1.089,1.238-2.119.634S344.6,397,344.6,397,345.88,395.592,346.739,395.856Z" transform="translate(-255.51 -312.349)" fill="#ff8297"/>
    <path id="Path_212" data-name="Path 212" d="M338.26,401.367s-1.268-.457-1.58.09c0,0,2.307.842,2.773,2.054,0,0,.6-.615-.216-1.389l-.154-1.142Z" transform="translate(-250.067 -316.059)" fill="#00a66c"/>
    <path id="Path_213" data-name="Path 213" d="M344.155,394.528s.07-.575-.222-.637a1.788,1.788,0,0,0-1.95,2.245c.314,2.195,2.6,1.372,2.6,1.372l1-1.167a1.73,1.73,0,0,0-1.19-1.92Z" transform="translate(-253.858 -310.951)" fill="#ff8297"/>
    <path id="Path_214" data-name="Path 214" d="M341.287,392a2.294,2.294,0,0,0-.881,3.056l.648-.376S341.86,392.78,341.287,392Z" transform="translate(-252.581 -309.599)" opacity="0.1"/>
    <path id="Path_215" data-name="Path 215" d="M341.066,391.83a2.3,2.3,0,0,0-.884,3.056l.5.3S341.65,392.613,341.066,391.83Z" transform="translate(-252.422 -309.477)" fill="#ff8297"/>
    <path id="Path_216" data-name="Path 216" d="M348.015,399.746a1.507,1.507,0,0,0,.528.766c.4.281-.4.926-.4.926s-1.089,1.24-2.119.637c-.615-1.036-.152-1.179-.152-1.179S347.156,399.482,348.015,399.746Z" transform="translate(-256.559 -315.148)" opacity="0.1"/>
    <path id="Path_217" data-name="Path 217" d="M347.657,399.966a1.493,1.493,0,0,0,.528.763c.4.281-.4.929-.4.929s-1.086,1.238-2.116.634-.154-1.179-.154-1.179S346.8,399.7,347.657,399.966Z" transform="translate(-256.17 -315.306)" fill="#ff8297"/>
    <path id="Path_218" data-name="Path 218" d="M316.24,398.68s-1.269-.46-1.58.087c0,0,2.307.842,2.773,2.054,0,0,.595-.612-.219-1.389l-.152-1.142Z" transform="translate(-234.227 -314.124)" fill="#00a66c"/>
    <path id="Path_219" data-name="Path 219" d="M322.134,391.838s.07-.575-.222-.637a1.789,1.789,0,0,0-1.95,2.245c.317,2.192,2.6,1.372,2.6,1.372l1-1.167a1.73,1.73,0,0,0-1.19-1.92Z" transform="translate(-238.016 -309.016)" fill="#ff8297"/>
    <path id="Path_220" data-name="Path 220" d="M319.28,389.31a2.3,2.3,0,0,0-.876,3.056l.648-.376S319.853,390.093,319.28,389.31Z" transform="translate(-236.753 -307.664)" opacity="0.1"/>
    <path id="Path_221" data-name="Path 221" d="M319.046,389.15a2.3,2.3,0,0,0-.884,3.056l.5.281S319.636,389.933,319.046,389.15Z" transform="translate(-236.581 -307.549)" fill="#ff8297"/>
    <path id="Path_222" data-name="Path 222" d="M326,397.056a1.5,1.5,0,0,0,.528.766c.4.281-.4.929-.4.929s-1.089,1.238-2.119.634c-.615-1.036-.152-1.179-.152-1.179S325.137,396.792,326,397.056Z" transform="translate(-240.718 -313.212)" opacity="0.1"/>
    <path id="Path_223" data-name="Path 223" d="M325.6,397.276a1.493,1.493,0,0,0,.528.763c.4.281-.4.929-.4.929s-1.086,1.238-2.119.634-.152-1.179-.152-1.179S324.757,397.012,325.6,397.276Z" transform="translate(-240.299 -313.371)" fill="#ff8297"/>
    <path id="Path_224" data-name="Path 224" d="M318.71,385.21s-1.271-.46-1.58.087c0,0,2.307.842,2.773,2.054,0,0,.595-.612-.219-1.389l-.152-1.142Z" transform="translate(-236.004 -304.434)" fill="#00a66c"/>
    <path id="Path_225" data-name="Path 225" d="M324.575,378.328s.07-.561-.222-.637a1.794,1.794,0,0,0-1.964,2.245c.3,2.192,2.6,1.372,2.6,1.372l1-1.167a1.733,1.733,0,0,0-1.193-1.92Z" transform="translate(-239.764 -299.295)" fill="#ff8297"/>
    <path id="Path_226" data-name="Path 226" d="M321.726,375.84a2.3,2.3,0,0,0-.884,3.056l.648-.376S322.3,376.623,321.726,375.84Z" transform="translate(-238.509 -297.974)" opacity="0.1"/>
    <path id="Path_227" data-name="Path 227" d="M321.513,375.68a2.3,2.3,0,0,0-.884,3.056l.5.295S322.089,376.463,321.513,375.68Z" transform="translate(-238.355 -297.859)" fill="#ff8297"/>
    <path id="Path_228" data-name="Path 228" d="M328.465,383.586a1.507,1.507,0,0,0,.528.766c.4.281-.4.929-.4.929s-1.089,1.238-2.119.634c-.615-1.036-.152-1.179-.152-1.179S327.6,383.322,328.465,383.586Z" transform="translate(-242.495 -303.523)" opacity="0.1"/>
    <path id="Path_229" data-name="Path 229" d="M328.1,383.813a1.493,1.493,0,0,0,.528.763c.4.281-.4.929-.4.929s-1.089,1.238-2.119.634-.152-1.179-.152-1.179S327.241,383.564,328.1,383.813Z" transform="translate(-242.101 -303.688)" fill="#ff8297"/>
    <path id="Path_230" data-name="Path 230" d="M306.3,406.58s3.477.384,5.366,6.432-4.052,1.524-4.052,1.524-1.566.314-1.81-2.843A12.875,12.875,0,0,1,306.3,406.58Z" transform="translate(-227.82 -320.087)" fill="#fbbebe"/>
    <rect id="Rectangle_3" data-name="Rectangle 3" width="1.297" height="0.384" rx="0.192" transform="translate(77.857 91.379) rotate(-23.92)" fill="#e3e8f4"/>
    <path id="Path_231" data-name="Path 231" d="M246.669,323.989l-.561-.511c-2.015-1.852-3.348-3.053-3.348-4.552a2.13,2.13,0,0,1,2.155-2.167,2.315,2.315,0,0,1,1.762.828,2.307,2.307,0,0,1,1.762-.828,2.13,2.13,0,0,1,2.152,2.167c0,1.5-1.33,2.7-3.348,4.552Z" transform="translate(-182.504 -255.474)" fill="#ff8297" opacity="0.1"/>
    <path id="Path_232" data-name="Path 232" d="M218.751,210.529l-.561-.514c-2.018-1.849-3.351-3.053-3.351-4.549a2.13,2.13,0,0,1,2.155-2.167,2.315,2.315,0,0,1,1.762.828,2.312,2.312,0,0,1,1.762-.828,2.13,2.13,0,0,1,2.152,2.167c0,1.5-1.33,2.7-3.348,4.549Z" transform="translate(-162.419 -173.855)" fill="#ff8297" opacity="0.1"/>
    <path id="Path_233" data-name="Path 233" d="M428.2,264.919l-.561-.514c-2.018-1.849-3.348-3.053-3.348-4.549a2.13,2.13,0,0,1,2.152-2.167,2.29,2.29,0,0,0,3.525,0,2.13,2.13,0,0,1,2.155,2.167c0,1.5-1.333,2.7-3.348,4.549Z" transform="translate(-313.09 -212.981)" fill="#ff8297" opacity="0.1"/>
    <path id="Path_234" data-name="Path 234" d="M845.112,268.278a1.471,1.471,0,0,0-2.394,1.709c.281.413.575.814.859,1.2,3.458,4.667,5.248,10.333,6.791,15.932a7.524,7.524,0,0,1,.312,4.21,26.256,26.256,0,0,0-.716-10.967A67.866,67.866,0,0,0,846.083,270,9.29,9.29,0,0,0,845.112,268.278Z" transform="translate(-613.901 -220.163)" fill="#ff8297" opacity="0.5"/>
    <path id="Path_235" data-name="Path 235" d="M767.117,304.8c-2.332-.07-2.627,3.466-.306,3.648.609.048,1.224.062,1.807.079,7.139.194,13.892,2.784,20.377,5.568A8.828,8.828,0,0,1,793.2,317a30.652,30.652,0,0,0-10.872-7.7,80.369,80.369,0,0,0-12.82-4.142A11.1,11.1,0,0,0,767.117,304.8Z" transform="translate(-558.336 -246.868)" fill="#ff8297"/>
    <path id="Path_236" data-name="Path 236" d="M771.884,335.765c-1.471.056-1.139,2.147.342,2.161.387,0,.775-.014,1.145-.031,4.49-.182,9.115,1.061,13.589,2.428a6.937,6.937,0,0,1,3.056,1.538,24.535,24.535,0,0,0-7.942-4.078,60.345,60.345,0,0,0-8.644-1.9,7.927,7.927,0,0,0-1.546-.118Z" transform="translate(-562.453 -269.144)" fill="#ff8297" opacity="0.2"/>
    <path id="Path_237" data-name="Path 237" d="M880.059,425.485c.418,1.4,2.36.561,2.007-.867-.093-.376-.208-.746-.314-1.1-1.294-4.319-1.232-9.093-1.019-13.765a6.937,6.937,0,0,1,.73-3.342,24.519,24.519,0,0,0-1.979,8.7,60.689,60.689,0,0,0,.3,8.843,7.861,7.861,0,0,0,.272,1.532Z" transform="translate(-640.495 -319.965)" fill="#ff8297" opacity="0.5"/>
    <path id="Path_238" data-name="Path 238" d="M782.085,262.807c-.887-.154-.954,1.137-.07,1.333.233.05.466.09.688.129a25.517,25.517,0,0,1,7.807,3.174,4.249,4.249,0,0,1,1.63,1.308,14.917,14.917,0,0,0-4.226-3.443,36.669,36.669,0,0,0-4.92-2.245A4.634,4.634,0,0,0,782.085,262.807Z" transform="translate(-569.971 -216.653)" fill="#ff8297" opacity="0.2"/>
    <path id="Path_239" data-name="Path 239" d="M732.544,373.415c-2.245,1.159-.348,4.336,1.964,3.281.6-.281,1.2-.584,1.757-.878,6.873-3.564,14.857-4.875,22.707-5.893,1.928-.247,3.982-.463,5.764.3a38.963,38.963,0,0,0-15.031-.9,98.611,98.611,0,0,0-14.68,3.157A13.154,13.154,0,0,0,732.544,373.415Z" transform="translate(-534.113 -293.046)" fill="#ff8297"/>
    <path id="Path_240" data-name="Path 240" d="M756.669,398.771c-1.616,1.507.906,3.289,2.6,1.841.443-.379.867-.78,1.271-1.159,4.925-4.622,11.433-7.914,17.913-10.945,1.591-.744,8.138-1.5,9.884-1.462-4.563.407-13.889,1.833-18.034,3.718a100.065,100.065,0,0,0-11.764,6.6A12.6,12.6,0,0,0,756.669,398.771Z" transform="translate(-551.818 -306.034)" fill="#ff8297" opacity="0.5"/>
    <path id="Path_241" data-name="Path 241" d="M798.965,428.33c-.471,2.155,2.616,2.186,3.188.031.149-.561.281-1.123.385-1.684,1.426-6.592,4.908-12.991,8.517-19.165.884-1.515,5.84-5.863,7.3-6.822-3.525,2.933-10.384,9.407-12.724,13.314a99.594,99.594,0,0,0-5.922,12.1A12.863,12.863,0,0,0,798.965,428.33Z" transform="translate(-582.582 -315.85)" fill="#ff8297"/>
    <path id="Path_242" data-name="Path 242" d="M872.962,226.512c-1.1-2.245-4.246-.4-3.247,1.9.261.6.561,1.193.842,1.754,3.39,6.856,4.555,14.787,5.425,22.58a11.12,11.12,0,0,1-.379,5.711,39.16,39.16,0,0,0,1.123-14.874,97.86,97.86,0,0,0-2.874-14.593,13.109,13.109,0,0,0-.89-2.481Z" transform="translate(-633.373 -189.821)" fill="#ff8297"/>
    <path id="Path_243" data-name="Path 243" d="M812.5,237.464a.418.418,0,0,0,.191.056c.121,0,.208-.123.258-.236.281-.595.118-1.37.539-1.875a6.452,6.452,0,0,1,1.027,1.723l1.617-.5a2.4,2.4,0,0,1-.306,1.849,2.5,2.5,0,0,1,.761.516.842.842,0,0,1,.2.856,4.113,4.113,0,0,1-1.142.112,7.47,7.47,0,0,1-.121,2.122.4.4,0,0,1-.137.281.387.387,0,0,1-.4-.067,3.743,3.743,0,0,1-1.327-1.4l-.6,1.412a.62.62,0,0,1-.281.359.427.427,0,0,1-.5-.171,1.316,1.316,0,0,1-.18-.544l-.225-1.367a.334.334,0,0,0-.073-.194.351.351,0,0,0-.227-.048q-.842-.025-1.709-.017c-.1-.3.2-.587.494-.713s.64-.224.786-.508c.3-.575-.474-1.378-.146-1.877C811.377,236.642,812,237.217,812.5,237.464Z" transform="translate(-590.442 -196.954)" fill="#ff8297"/>
    <path id="Path_244" data-name="Path 244" d="M915.356,268.278a1.473,1.473,0,0,1,2.4,1.709c-.281.413-.561.814-.859,1.2-3.457,4.667-5.248,10.333-6.791,15.932a7.523,7.523,0,0,0-.312,4.21,26.254,26.254,0,0,1,.716-10.967A67.872,67.872,0,0,1,914.388,270,9.448,9.448,0,0,1,915.356,268.278Z" transform="translate(-662.129 -220.163)" fill="#ff8297" opacity="0.5"/>
    <path id="Path_245" data-name="Path 245" d="M943.418,304.8c2.332-.07,2.627,3.466.306,3.648-.609.048-1.224.062-1.807.079-7.139.194-13.891,2.784-20.377,5.568a8.828,8.828,0,0,0-4.21,2.91,30.651,30.651,0,0,1,10.872-7.7,80.28,80.28,0,0,1,12.82-4.142A11.1,11.1,0,0,1,943.418,304.8Z" transform="translate(-667.765 -246.868)" fill="#ff8297"/>
    <path id="Path_246" data-name="Path 246" d="M961.522,335.765c1.471.056,1.139,2.147-.342,2.161-.387,0-.774-.014-1.145-.031-4.5-.182-9.115,1.061-13.589,2.427a7.013,7.013,0,0,0-3.056,1.538,24.505,24.505,0,0,1,7.942-4.078,60.435,60.435,0,0,1,8.644-1.9A7.918,7.918,0,0,1,961.522,335.765Z" transform="translate(-686.511 -269.144)" fill="#ff8297" opacity="0.5"/>
    <path id="Path_247" data-name="Path 247" d="M972.665,262.807c.887-.154.954,1.137.07,1.333-.233.05-.466.09-.688.129a25.516,25.516,0,0,0-7.807,3.174,4.248,4.248,0,0,0-1.631,1.308,14.919,14.919,0,0,1,4.226-3.443,36.672,36.672,0,0,1,4.92-2.245A4.636,4.636,0,0,1,972.665,262.807Z" transform="translate(-700.337 -216.653)" fill="#ff8297" opacity="0.2"/>
    <path id="Path_248" data-name="Path 248" d="M912.1,454.292c-.2.876-1.417.441-1.257-.452.042-.233.1-.463.146-.682a25.419,25.419,0,0,0,.081-8.419,4.255,4.255,0,0,0-.578-2.009,14.954,14.954,0,0,1,1.546,5.22,36.975,36.975,0,0,1,.163,5.4A4.856,4.856,0,0,1,912.1,454.292Z" transform="translate(-662.844 -346.092)" fill="#ff8297" opacity="0.2"/>
    <path id="Path_249" data-name="Path 249" d="M961.809,427.668c.693,1.173-1.008,1.095-1.754-.081-.2-.306-.376-.615-.547-.909a64.212,64.212,0,0,0-8.548-10.56,11.8,11.8,0,0,0-2.649-2.287,41.661,41.661,0,0,1,6.946,5.941c2.074,2.169,3.906,4.428,5.7,6.685a10.965,10.965,0,0,1,.853,1.212Z" transform="translate(-690.05 -325.303)" fill="#ff8297" opacity="0.5"/>
    <path id="Path_250" data-name="Path 250" d="M776.583,427.668c-.693,1.173,1.008,1.095,1.757-.081.194-.306.373-.615.547-.909a63.207,63.207,0,0,1,8.548-10.56,11.8,11.8,0,0,1,2.649-2.287,41.657,41.657,0,0,0-6.954,5.941c-2.074,2.169-3.906,4.428-5.7,6.685A10.992,10.992,0,0,0,776.583,427.668Z" transform="translate(-566.4 -325.303)" fill="#ff8297" opacity="0.2"/>
    <path id="Path_251" data-name="Path 251" d="M856.866,454.292c.2.876,1.4.441,1.257-.452-.042-.233-.1-.463-.146-.682a25.42,25.42,0,0,1-.081-8.419,4.256,4.256,0,0,1,.578-2.009,14.951,14.951,0,0,0-1.549,5.228,36.975,36.975,0,0,0-.163,5.4,4.854,4.854,0,0,0,.1.935Z" transform="translate(-624.17 -346.092)" fill="#ff8297" opacity="0.2"/>
    <path id="Path_252" data-name="Path 252" d="M947.385,294.2c.884-.154.951,1.139.067,1.333-.23.053-.463.09-.685.129a25.562,25.562,0,0,0-7.81,3.174,4.266,4.266,0,0,0-1.628,1.308,14.991,14.991,0,0,1,4.21-3.443,37.422,37.422,0,0,1,4.922-2.245,5.049,5.049,0,0,1,.923-.255Z" transform="translate(-682.152 -239.234)" fill="#ff8297" opacity="0.2"/>
    <path id="Path_253" data-name="Path 253" d="M925.446,232.316c.766-.474,1.311.7.561,1.21-.2.135-.4.258-.589.376a25.6,25.6,0,0,0-6.056,5.863,4.194,4.194,0,0,0-1.022,1.821,14.923,14.923,0,0,1,2.63-4.771,37.251,37.251,0,0,1,3.73-3.912A4.991,4.991,0,0,1,925.446,232.316Z" transform="translate(-668.491 -194.649)" fill="#ff8297" opacity="0.2"/>
    <path id="Path_254" data-name="Path 254" d="M964.682,373.415c2.245,1.159.348,4.336-1.964,3.281-.606-.281-1.2-.584-1.76-.878-6.87-3.564-14.854-4.875-22.706-5.893-1.925-.247-3.979-.463-5.762.3a38.963,38.963,0,0,1,15.031-.9,98.611,98.611,0,0,1,14.68,3.157,13.156,13.156,0,0,1,2.481.937Z" transform="translate(-678.67 -293.046)" fill="#ff8297"/>
    <path id="Path_255" data-name="Path 255" d="M943.123,398.771c1.616,1.507-.906,3.289-2.6,1.841-.446-.379-.867-.78-1.271-1.159-4.925-4.622-11.433-7.914-17.913-10.945-1.591-.744-8.139-1.5-9.887-1.462,4.566.407,13.892,1.833,18.037,3.718a99.813,99.813,0,0,1,11.762,6.6A12.479,12.479,0,0,1,943.123,398.771Z" transform="translate(-663.535 -306.034)" fill="#ff8297" opacity="0.5"/>
    <path id="Path_256" data-name="Path 256" d="M916.018,431.453c.2,2.2-2.871,1.844-3.168-.365-.076-.578-.123-1.156-.171-1.709-.587-6.735-3.241-13.524-6.048-20.1-.688-1.614-5.052-6.547-6.39-7.684,3.129,3.351,9.126,10.633,10.945,14.8a102.05,102.05,0,0,1,4.364,12.763A12.719,12.719,0,0,1,916.018,431.453Z" transform="translate(-655.471 -316.498)" fill="#ff8297"/>
    <path id="Path_257" data-name="Path 257" d="M951.906,237.464a.418.418,0,0,1-.191.056c-.121,0-.208-.123-.258-.236-.281-.595-.118-1.37-.539-1.875a6.456,6.456,0,0,0-1.027,1.723l-1.616-.5a2.4,2.4,0,0,0,.306,1.849,2.5,2.5,0,0,0-.76.516.842.842,0,0,0-.2.856,4.115,4.115,0,0,0,1.142.112,7.468,7.468,0,0,0,.121,2.122.4.4,0,0,0,.138.281.387.387,0,0,0,.4-.067,3.744,3.744,0,0,0,1.327-1.4l.6,1.412a.62.62,0,0,0,.281.359.427.427,0,0,0,.5-.171,1.273,1.273,0,0,0,.177-.544l.225-1.367a.358.358,0,0,1,.076-.194.351.351,0,0,1,.239-.067q.842-.025,1.709-.017c.1-.3-.2-.587-.494-.713s-.64-.225-.786-.508c-.3-.575.471-1.378.146-1.877C953.028,236.642,952.408,237.217,951.906,237.464Z" transform="translate(-689.523 -196.954)" fill="#ff8297"/>
    <path id="Path_258" data-name="Path 258" d="M969.294,474.471a.359.359,0,0,1-.191.056c-.121,0-.208-.121-.258-.233-.281-.6-.118-1.372-.539-1.875a6.4,6.4,0,0,0-1.027,1.72l-1.617-.5a2.406,2.406,0,0,0,.306,1.852,2.451,2.451,0,0,0-.76.516.842.842,0,0,0-.2.842,4.116,4.116,0,0,0,1.142.115,7.472,7.472,0,0,0,.121,2.122.3.3,0,0,0,.533.2,3.744,3.744,0,0,0,1.327-1.4l.6,1.434a.629.629,0,0,0,.281.359.43.43,0,0,0,.5-.174,1.259,1.259,0,0,0,.177-.544l.225-1.367a.348.348,0,0,1,.076-.191.339.339,0,0,1,.238-.07q.842-.02,1.709-.017c.1-.3-.2-.584-.494-.713s-.64-.222-.786-.505c-.3-.578.472-1.381.146-1.878C970.414,473.649,969.791,474.225,969.294,474.471Z" transform="translate(-702.035 -367.45)" fill="#ff8297" opacity="0.2"/>
    <path id="Path_259" data-name="Path 259" d="M1018.056,315.6a.429.429,0,0,1-.191.056c-.123,0-.208-.124-.258-.236-.281-.6-.118-1.372-.542-1.875a6.455,6.455,0,0,0-1.027,1.723l-1.614-.5a2.4,2.4,0,0,0,.306,1.852,2.464,2.464,0,0,0-.76.516.841.841,0,0,0-.2.856,4.114,4.114,0,0,0,1.142.112,7.481,7.481,0,0,0,.121,2.122.381.381,0,0,0,.138.281c.118.076.281,0,.4-.065a3.744,3.744,0,0,0,1.328-1.4l.6,1.434a.637.637,0,0,0,.266.359.432.432,0,0,0,.505-.174,1.25,1.25,0,0,0,.177-.544l.224-1.364a.336.336,0,0,1,.076-.194.348.348,0,0,1,.239-.07q.842-.02,1.709-.017c.1-.3-.2-.584-.5-.71s-.637-.225-.783-.508c-.3-.578.471-1.381.146-1.877C1019.175,314.779,1018.552,315.36,1018.056,315.6Z" transform="translate(-737.109 -253.165)" fill="#ff8297"/>
    <path id="Path_260" data-name="Path 260" d="M818.717,496.17a.533.533,0,0,1-.264.079c-.171,0-.281-.171-.362-.326-.382-.842-.163-1.911-.752-2.613a9,9,0,0,0-1.431,2.4l-2.245-.7a3.332,3.332,0,0,0,.427,2.576,3.432,3.432,0,0,0-1.061.721,1.17,1.17,0,0,0-.281,1.193,5.714,5.714,0,0,0,1.588.157,10.561,10.561,0,0,0,.168,2.958.561.561,0,0,0,.194.376c.166.1.382,0,.561-.093a5.244,5.244,0,0,0,1.852-1.964l.842,2a.873.873,0,0,0,.373.5.6.6,0,0,0,.7-.241,1.741,1.741,0,0,0,.247-.758l.314-1.9a.449.449,0,0,1,.1-.281.469.469,0,0,1,.331-.1q1.193-.034,2.383-.025c.137-.421-.281-.814-.69-.991s-.89-.314-1.092-.707c-.415-.805.657-1.922.2-2.616C820.277,495.025,819.41,495.827,818.717,496.17Z" transform="translate(-592.489 -382.477)" fill="#ff8297"/>
    <path id="Path_261" data-name="Path 261" d="M737.571,318.272a.545.545,0,0,1-.267.079c-.168,0-.281-.171-.359-.328-.385-.842-.163-1.911-.752-2.613a9,9,0,0,0-1.442,2.411l-2.245-.7a3.348,3.348,0,0,0,.424,2.579,3.451,3.451,0,0,0-1.058.721,1.173,1.173,0,0,0-.281,1.19,5.842,5.842,0,0,0,1.591.16,10.442,10.442,0,0,0,.168,2.955.542.542,0,0,0,.194.376c.166.107.382,0,.547-.09a5.211,5.211,0,0,0,1.852-1.964l.842,2a.9.9,0,0,0,.37.5.6.6,0,0,0,.7-.244,1.757,1.757,0,0,0,.25-.758l.312-1.9a.5.5,0,0,1,.1-.281.477.477,0,0,1,.334-.1q1.193-.034,2.383-.022c.135-.424-.281-.817-.693-.993s-.887-.312-1.092-.707c-.413-.8.659-1.922.2-2.616C739.131,317.125,738.264,317.927,737.571,318.272Z" transform="translate(-534.109 -254.503)" fill="#ff8297"/>
    <path id="Path_262" data-name="Path 262" d="M991,431.878a.281.281,0,0,1-.143.042c-.09,0-.152-.09-.191-.174-.2-.441-.087-1.013-.4-1.386a4.808,4.808,0,0,0-.76,1.274l-1.2-.37a1.779,1.779,0,0,0,.224,1.37,1.85,1.85,0,0,0-.561.385.617.617,0,0,0-.146.631,3.036,3.036,0,0,0,.842.084,5.68,5.68,0,0,0,.09,1.572.3.3,0,0,0,.1.2c.087.056.2,0,.281-.048a2.762,2.762,0,0,0,.982-1.044l.446,1.061a.457.457,0,0,0,.2.267.32.32,0,0,0,.373-.129.906.906,0,0,0,.132-.4l.166-1.013a.249.249,0,0,1,.056-.14.244.244,0,0,1,.177-.05c.421-.014.842-.017,1.266-.014.073-.225-.151-.432-.368-.528s-.471-.166-.581-.373c-.219-.429.351-1.021.109-1.4C991.826,431.269,991.366,431.7,991,431.878Z" transform="translate(-718.454 -337.194)" fill="#ff8297" opacity="0.2"/>
    <path id="Path_263" data-name="Path 263" d="M880.8,495.5a.28.28,0,0,1-.14.042c-.093,0-.154-.093-.194-.174-.2-.443-.084-1.016-.4-1.389a4.809,4.809,0,0,0-.76,1.274l-1.2-.37a1.776,1.776,0,0,0,.227,1.372,1.82,1.82,0,0,0-.561.382.62.62,0,0,0-.146.631,3.052,3.052,0,0,0,.842.084,5.572,5.572,0,0,0,.09,1.572.28.28,0,0,0,.1.2c.087.056.2,0,.281-.048a2.772,2.772,0,0,0,.985-1.044l.443,1.064a.466.466,0,0,0,.2.264.314.314,0,0,0,.37-.126.93.93,0,0,0,.132-.4l.168-1.01a.255.255,0,0,1,.053-.143.244.244,0,0,1,.177-.051c.421,0,.842-.017,1.266-.014.073-.224-.152-.432-.368-.528s-.471-.166-.578-.373c-.222-.429.348-1.022.107-1.389C881.638,494.892,881.167,495.316,880.8,495.5Z" transform="translate(-639.181 -382.959)" fill="#ff8297" opacity="0.2"/>
    <path id="Path_264" data-name="Path 264" d="M774.159,272.811a.281.281,0,0,1-.14.042c-.09,0-.154-.093-.191-.174-.2-.441-.087-1.016-.4-1.389a4.826,4.826,0,0,0-.76,1.277l-1.2-.37a1.77,1.77,0,0,0,.227,1.37,1.823,1.823,0,0,0-.561.382.632.632,0,0,0-.146.634,3.053,3.053,0,0,0,.842.084,5.545,5.545,0,0,0,.09,1.569.214.214,0,0,0,.382.152,2.784,2.784,0,0,0,.985-1.041l.443,1.061a.472.472,0,0,0,.2.281.323.323,0,0,0,.373-.129.983.983,0,0,0,.132-.4l.182-1.016a.258.258,0,0,1,.056-.143.264.264,0,0,1,.177-.051h1.263c.073-.225-.152-.432-.365-.528s-.474-.166-.581-.376c-.222-.427.348-1.022.107-1.389C774.986,272.2,774.529,272.629,774.159,272.811Z" transform="translate(-562.471 -222.765)" fill="#ff8297" opacity="0.5"/>
    <path id="Path_265" data-name="Path 265" d="M830.919,398.265a.281.281,0,0,1-.14.042c-.09,0-.154-.093-.191-.174-.2-.443-.087-1.016-.4-1.4a4.7,4.7,0,0,0-.758,1.277l-1.2-.359a1.782,1.782,0,0,0,.227,1.37,1.856,1.856,0,0,0-.561.382.632.632,0,0,0-.146.634,3.056,3.056,0,0,0,.842.084,5.556,5.556,0,0,0,.09,1.569.222.222,0,0,0,.393.152,2.784,2.784,0,0,0,.985-1.041l.443,1.061a.494.494,0,0,0,.2.267.323.323,0,0,0,.373-.129.905.905,0,0,0,.132-.4l.166-1.01a.19.19,0,0,1,.233-.194c.421,0,.842-.017,1.266,0,.07-.225-.152-.432-.368-.528s-.471-.166-.581-.376c-.219-.427.348-1.022.107-1.389C831.749,397.648,831.289,398.083,830.919,398.265Z" transform="translate(-603.302 -313.002)" fill="#ff8297" opacity="0.5"/>
    <path id="Path_266" data-name="Path 266" d="M789.718,349.381a.281.281,0,0,1-.14.042c-.093,0-.154-.093-.194-.174-.2-.443-.084-1.016-.4-1.389a4.774,4.774,0,0,0-.761,1.277l-1.2-.37a1.782,1.782,0,0,0,.224,1.37,1.839,1.839,0,0,0-.561.382.623.623,0,0,0-.146.634,3.055,3.055,0,0,0,.842.084,5.552,5.552,0,0,0,.09,1.569.219.219,0,0,0,.393.152,2.756,2.756,0,0,0,.982-1.041l.446,1.061a.483.483,0,0,0,.2.281.32.32,0,0,0,.37-.129.906.906,0,0,0,.132-.4l.168-1.01a.187.187,0,0,1,.23-.194c.421,0,.842-.017,1.266,0,.073-.225-.152-.432-.368-.528s-.471-.166-.578-.376c-.222-.427.348-1.022.107-1.389C790.546,348.772,790.086,349.2,789.718,349.381Z" transform="translate(-573.661 -277.846)" fill="#ff8297" opacity="0.5"/>
    <path id="Path_267" data-name="Path 267" d="M966.66,360.9a.281.281,0,0,1-.14.042c-.09,0-.151-.093-.191-.174-.2-.443-.087-1.016-.4-1.389a4.71,4.71,0,0,0-.76,1.277l-1.2-.37a1.782,1.782,0,0,0,.224,1.37,1.855,1.855,0,0,0-.561.382.634.634,0,0,0-.146.634,3.178,3.178,0,0,0,.842.084,5.559,5.559,0,0,0,.09,1.569.222.222,0,0,0,.4.152,2.775,2.775,0,0,0,.982-1.041l.446,1.061a.477.477,0,0,0,.2.267.323.323,0,0,0,.373-.129.916.916,0,0,0,.132-.4l.166-1.01a.259.259,0,0,1,.056-.143.256.256,0,0,1,.177-.051c.421,0,.842-.017,1.266-.014.07-.222-.151-.432-.368-.525s-.471-.166-.581-.376c-.219-.427.351-1.022.107-1.389C967.49,360.292,967.03,360.719,966.66,360.9Z" transform="translate(-700.949 -286.133)" fill="#ff8297" opacity="0.5"/>
    <path id="Path_268" data-name="Path 268" d="M880.8,351.278a.281.281,0,0,1-.14.042c-.093,0-.154-.09-.194-.174-.2-.441-.084-1.013-.4-1.386a4.812,4.812,0,0,0-.761,1.274l-1.193-.365a1.768,1.768,0,0,0,.227,1.37,1.83,1.83,0,0,0-.561.384.617.617,0,0,0-.146.631,3.055,3.055,0,0,0,.842.084,5.574,5.574,0,0,0,.09,1.572.281.281,0,0,0,.1.2c.087.056.2,0,.281-.048a2.806,2.806,0,0,0,1.01-1.05l.443,1.061a.471.471,0,0,0,.2.267.317.317,0,0,0,.37-.129.906.906,0,0,0,.109-.413l.168-1.013a.247.247,0,0,1,.053-.14.261.261,0,0,1,.177-.053c.421,0,.842-.014,1.266,0,.073-.225-.152-.432-.368-.528s-.471-.166-.578-.373c-.222-.429.348-1.022.107-1.4C881.644,350.669,881.173,351.1,880.8,351.278Z" transform="translate(-639.188 -279.213)" fill="#ff8297" opacity="0.2"/>
    <path id="Path_269" data-name="Path 269" d="M853.856,363a.28.28,0,0,1-.143.042c-.09,0-.152-.09-.191-.174-.2-.441-.087-1.013-.4-1.386a4.808,4.808,0,0,0-.761,1.274l-1.2-.37a1.779,1.779,0,0,0,.225,1.369,1.85,1.85,0,0,0-.561.384.626.626,0,0,0-.149.631,3.066,3.066,0,0,0,.842.084,5.678,5.678,0,0,0,.09,1.572.3.3,0,0,0,.1.2c.087.056.2,0,.281-.048a2.762,2.762,0,0,0,.982-1.044l.446,1.061a.458.458,0,0,0,.2.267.317.317,0,0,0,.373-.129.907.907,0,0,0,.132-.4l.166-1.01a.25.25,0,0,1,.056-.143.244.244,0,0,1,.177-.051c.421-.014.842-.017,1.266-.014.073-.225-.152-.432-.368-.528s-.471-.166-.581-.373c-.219-.429.351-1.022.109-1.4C854.678,362.389,854.223,362.816,853.856,363Z" transform="translate(-619.798 -287.644)" fill="#ff8297" opacity="0.3"/>
    <path id="Path_270" data-name="Path 270" d="M828.793,292.108a.281.281,0,0,1-.14.042c-.09,0-.152-.09-.191-.174-.2-.441-.087-1.016-.4-1.386a4.732,4.732,0,0,0-.761,1.274l-1.2-.37a1.781,1.781,0,0,0,.224,1.37,1.808,1.808,0,0,0-.561.382.632.632,0,0,0-.149.634,3.065,3.065,0,0,0,.842.084,5.545,5.545,0,0,0,.09,1.569.308.308,0,0,0,.1.2c.087.056.2,0,.281-.051a2.756,2.756,0,0,0,.982-1.041l.446,1.061a.468.468,0,0,0,.2.281.32.32,0,0,0,.373-.129.906.906,0,0,0,.132-.4l.166-1.013a.258.258,0,0,1,.056-.143.281.281,0,0,1,.177-.051h1.266c.07-.225-.151-.432-.368-.528s-.471-.166-.581-.376c-.219-.427.351-1.022.107-1.389C829.61,291.488,829.15,291.915,828.793,292.108Z" transform="translate(-601.771 -236.648)" fill="#ff8297" opacity="0.2"/>
    <path id="Path_271" data-name="Path 271" d="M878.219,384.628a.281.281,0,0,1-.14.042.253.253,0,0,1-.191-.174c-.2-.441-.087-1.016-.4-1.386a4.808,4.808,0,0,0-.761,1.274l-1.2-.37a1.782,1.782,0,0,0,.227,1.37,1.872,1.872,0,0,0-.561.382.631.631,0,0,0-.146.634,3.054,3.054,0,0,0,.842.084,5.546,5.546,0,0,0,.09,1.569.215.215,0,0,0,.382.154,2.806,2.806,0,0,0,.985-1.044l.443,1.061a.471.471,0,0,0,.2.267.32.32,0,0,0,.373-.129.982.982,0,0,0,.132-.4l.166-1.013a.191.191,0,0,1,.233-.194h1.263c.073-.224-.152-.432-.365-.528s-.474-.166-.581-.376c-.219-.427.348-1.022.107-1.389C879.047,384.019,878.589,384.446,878.219,384.628Z" transform="translate(-637.328 -303.204)" fill="#ff8297" opacity="0.3"/>
  </g>
</svg>
