<svg xmlns="http://www.w3.org/2000/svg" xmlns:xlink="http://www.w3.org/1999/xlink" width="24" height="24" viewBox="0 0 24 24">
 
  <g id="Mask_Group_257" data-name="Mask Group 257" transform="translate(-294.5 -6)" clip-path="url(#clip-path)">
    <g id="svgexport-6_51_" data-name="svgexport-6 (51)" transform="translate(294.5 6)">
      <g id="Group_1843" data-name="Group 1843">
        <g id="visibility">
          <path id="Path_2151" data-name="Path 2151" d="M12,3.818A12.853,12.853,0,0,0,0,12a12.891,12.891,0,0,0,24,0A12.853,12.853,0,0,0,12,3.818Zm0,13.636A5.455,5.455,0,1,1,17.455,12,5.4,5.4,0,0,1,12,17.455Zm0-8.727A3.273,3.273,0,1,0,15.273,12,3.214,3.214,0,0,0,12,8.727Z" fill="#ff8297"/>
        </g>
      </g>
    </g>
  </g>
</svg>
