<svg xmlns="http://www.w3.org/2000/svg" width="18.333" height="20" viewBox="0 0 18.333 20">
  <g id="svgexport-6_22_" data-name="svgexport-6 (22)" transform="translate(-21.334)">
    <g id="Group_1814" data-name="Group 1814" transform="translate(21.334)">
      <g id="Group_1813" data-name="Group 1813">
        <path id="Path_2049" data-name="Path 2049" d="M39.251,0A16.266,16.266,0,0,0,23.074,14.8a50.942,50.942,0,0,1,5.284-6.091.417.417,0,1,1,.6.583c-.324.33-.653.673-.984,1.019-.189.2-.374.394-.556.587l-.1.108a30.169,30.169,0,0,0-5.943,8.407.417.417,0,0,0,.761.342,22.871,22.871,0,0,1,1.7-3.1A16.238,16.238,0,0,0,37.73,8.114a.416.416,0,0,0-.368-.614H35.819l2.768-1.582a.417.417,0,0,0,.187-.226A16.192,16.192,0,0,0,39.667.417.417.417,0,0,0,39.251,0Z" transform="translate(-21.334)" fill="#ff8297"/>
      </g>
    </g>
  </g>
</svg>
