<svg xmlns="http://www.w3.org/2000/svg" xmlns:xlink="http://www.w3.org/1999/xlink" width="20" height="20" viewBox="0 0 20 20">

  <g id="Mask_Group_246" data-name="Mask Group 246" transform="translate(-339 -503)" clip-path="url(#clip-path)">
    <g id="svgexport-10_1_" data-name="svgexport-10 (1)" transform="translate(338.283 502.283)">
      <path id="Path_2113" data-name="Path 2113" d="M7.435,11.578l-.253-.254a.71.71,0,0,0-1.008,0L4.66,12.845a.722.722,0,0,0,0,1.017l.252.253a.71.71,0,0,0,1.008,0l1.515-1.521a.722.722,0,0,0,0-1.016Z" fill="#ff8297"/>
      <path id="Path_2114" data-name="Path 2114" d="M8.446,17.665a.727.727,0,0,0,1.006,0v0l1.515-1.519,0,0a.721.721,0,0,0,0-1.015l-.252-.254a.728.728,0,0,0-1.008,0L8.195,16.394a.721.721,0,0,0,0,1.016Z" fill="#ff8297"/>
      <path id="Path_2115" data-name="Path 2115" d="M10.214,19.438a.71.71,0,0,0,1.007,0l1.514-1.52a.72.72,0,0,0,0-1.016l-.25-.256a.714.714,0,0,0-.505-.208.705.705,0,0,0-.5.207l-1.514,1.52a.721.721,0,0,0,0,1.015Z" fill="#ff8297"/>
      <path id="Path_2116" data-name="Path 2116" d="M7.183,16.1a.707.707,0,0,0,.5-.21L9.2,14.37a.722.722,0,0,0,0-1.017L8.95,13.1a.712.712,0,0,0-1.008,0L6.427,14.62a.722.722,0,0,0,0,1.017l.253.253a.707.707,0,0,0,.5.21Z" fill="#ff8297"/>
      <path id="Path_2117" data-name="Path 2117" d="M12.737,8.792l4.039,4.056a.727.727,0,0,0,1.008,0l.253-.254a.721.721,0,0,0,0-1.016L12.483,6a.362.362,0,0,0-.5,0L9.2,8.788a2.138,2.138,0,0,1-3.031,0,1.077,1.077,0,0,1,0-1.518L10.2,3.226a5.68,5.68,0,0,0-7.812.239,5.761,5.761,0,0,0,0,8.115l1.4,1.408a1.42,1.42,0,0,1,.364-.647L5.668,10.82a1.425,1.425,0,0,1,2.021,0l.252.254A1.425,1.425,0,0,1,8.348,12.2a1.429,1.429,0,0,1,1.107.4l.253.254a1.426,1.426,0,0,1,.407,1.11c.033,0,.064-.009.1-.009a1.419,1.419,0,0,1,1.011.42l.252.254a1.425,1.425,0,0,1,.407,1.124,1.435,1.435,0,0,1,1.107.4l.245.25.007,0a.71.71,0,0,0,1.008,0l.253-.254a.721.721,0,0,0,0-1.016l-4.037-4.056a.357.357,0,1,1,.507-.5l4.039,4.056a.728.728,0,0,0,1.008,0l.252-.254a.722.722,0,0,0,0-1.017L12.231,9.3a.357.357,0,0,1,.507-.5Z" fill="#ff8297"/>
      <path id="Path_2118" data-name="Path 2118" d="M18.907,11.72l.139-.14a5.761,5.761,0,0,0,0-8.114,5.692,5.692,0,0,0-8.074,0L6.68,7.776a.362.362,0,0,0,0,.509,1.456,1.456,0,0,0,2.018,0L11.475,5.5a1.1,1.1,0,0,1,1.516,0l5.552,5.576a1.418,1.418,0,0,1,.364.646Z" fill="#ff8297"/>
    </g>
  </g>
</svg>
