<svg xmlns="http://www.w3.org/2000/svg" xmlns:xlink="http://www.w3.org/1999/xlink" width="24" height="24" viewBox="0 0 24 24">

  <g id="Mask_Group_255" data-name="Mask Group 255" transform="translate(-294.5 -6)" clip-path="url(#clip-path)">
    <g id="svgexport-6_41_" data-name="svgexport-6 (41)" transform="translate(295.25 6)">
      <path id="Path_2139" data-name="Path 2139" d="M21.8,0H7.734a.7.7,0,0,0-.7.7v.7h9.141a.7.7,0,0,1,.7.7v.7h2.109a.7.7,0,1,1,0,1.406H16.875V5.625h2.109a.7.7,0,1,1,0,1.406H16.875V8.438h2.109a.7.7,0,1,1,0,1.406H16.875V11.25h2.109a.7.7,0,1,1,0,1.406H16.875v1.406h2.109a.7.7,0,1,1,0,1.406H16.875v2.813H21.8a.7.7,0,0,0,.7-.7V.7A.7.7,0,0,0,21.8,0Zm0,0" fill="#ff8297"/>
      <path id="Path_2140" data-name="Path 2140" d="M8.438,12.656a2.813,2.813,0,1,0,2.813,2.813A2.815,2.815,0,0,0,8.438,12.656Zm0,4.219a1.406,1.406,0,1,1,1.406-1.406A1.408,1.408,0,0,1,8.438,16.875Zm0,0" fill="#ff8297"/>
      <path id="Path_2141" data-name="Path 2141" d="M14.766,2.813H.7a.7.7,0,0,0-.7.7V20.391a.7.7,0,0,0,.7.7H4.922v-3.3a4.219,4.219,0,1,1,7.031,0v3.3h2.813a.7.7,0,0,0,.7-.7V3.516A.7.7,0,0,0,14.766,2.813ZM11.953,9.844H3.516a.7.7,0,0,1,0-1.406h8.438a.7.7,0,0,1,0,1.406Zm0-2.813H3.516a.7.7,0,1,1,0-1.406h8.438a.7.7,0,1,1,0,1.406Zm0,0" fill="#ff8297"/>
      <path id="Path_2142" data-name="Path 2142" d="M6.328,19.1v4.492a.407.407,0,0,0,.632.338l1.477-.985,1.477.985a.407.407,0,0,0,.632-.338V19.1a4.085,4.085,0,0,1-4.219,0Zm0,0" fill="#ff8297"/>
    </g>
  </g>
</svg>
