<svg xmlns="http://www.w3.org/2000/svg" xmlns:xlink="http://www.w3.org/1999/xlink" width="24" height="24" viewBox="0 0 24 24">
 
  <g id="Mask_Group_258" data-name="Mask Group 258" transform="translate(-294.5 -6)" clip-path="url(#clip-path)">
    <g id="svgexport-6_52_" data-name="svgexport-6 (52)" transform="translate(294.5 7.352)">
      <path id="Path_2152" data-name="Path 2152" d="M24,9.024a.414.414,0,0,0-.194-.31L12.325.1a.465.465,0,0,0-.581,0L.191,8.753a.489.489,0,0,0-.1.677.5.5,0,0,0,.387.194.574.574,0,0,0,.29-.1L12.054,1.09l11.167,8.4a.462.462,0,0,0,.348.1.416.416,0,0,0,.31-.194A.428.428,0,0,0,24,9.025Zm0,0" fill="#ff8297"/>
      <path id="Path_2153" data-name="Path 2153" d="M12.345,13.263,12.4,13.2a.76.76,0,0,0-.058-.968.685.685,0,0,0-.909-.039l-.058.058a.76.76,0,0,0,.058.968A.708.708,0,0,0,12.345,13.263Zm0,0" fill="#ff8297"/>
      <path id="Path_2154" data-name="Path 2154" d="M13.544,16.727a.561.561,0,0,0-.039-.174v-.039a1.887,1.887,0,0,0-.271-.561,1.46,1.46,0,0,0-.29-.31l-.174-.116a1.541,1.541,0,0,0-.832-.232,1.634,1.634,0,0,0-.948.31c-.039.039-.077.058-.116.1-.019.019-.039.019-.039.039a.192.192,0,0,0-.077.1c-.019.019-.039.039-.039.058a.409.409,0,0,0-.077.116c0,.019-.019.019-.019.039-.039.058-.058.1-.1.155a.06.06,0,0,1-.019.039c-.019.039-.039.1-.058.136,0,.019-.019.039-.019.058a1.2,1.2,0,0,0-.039.136c0,.019-.019.039-.019.058a.328.328,0,0,0-.019.136v.058c0,.058-.019.136-.019.194v.523H13.6v-.523a.8.8,0,0,0-.019-.213c-.039-.058-.039-.058-.039-.077Zm0,0" fill="#ff8297"/>
      <path id="Path_2155" data-name="Path 2155" d="M8.339,14.172a2.437,2.437,0,0,0-2.4,2.458v.852h3.6v-.523a1.1,1.1,0,0,1,.019-.252.966.966,0,0,1,.039-.232v-.019l.058-.232c0-.019,0-.019.019-.039a.812.812,0,0,1,.077-.194c0-.019.019-.039.039-.058a.575.575,0,0,1,.077-.155.269.269,0,0,1,.058-.077A.4.4,0,0,1,10,15.585a103.177,103.177,0,0,0,.155-.194c.019-.039.058-.058.077-.1l.077-.077.039-.039a2.6,2.6,0,0,0-2.013-1.006Zm0,0" fill="#ff8297"/>
      <path id="Path_2156" data-name="Path 2156" d="M9.48,11a1.142,1.142,0,1,0-1.142,1.18A1.162,1.162,0,0,0,9.48,11Zm0,0" fill="#ff8297"/>
      <path id="Path_2157" data-name="Path 2157" d="M21.131,8.657,12.267,1.883a.408.408,0,0,0-.465,0L2.784,8.812a.176.176,0,0,0-.077.155V21.1a.194.194,0,0,0,.194.194H21.092a.194.194,0,0,0,.194-.194V8.966a.4.4,0,0,0-.155-.31Zm-5.593.058a2.013,2.013,0,1,1-1.974,2.013,1.978,1.978,0,0,1,1.974-2.013Zm-4.683,2.942.039-.039.116-.077a1.485,1.485,0,0,1,1.877.136,1.519,1.519,0,0,1,.077,2.071l-.039.039a1.652,1.652,0,0,1-1.026.387,1.375,1.375,0,0,1-.987-.406,1.51,1.51,0,0,1-.058-2.11ZM8.339,9.063a1.955,1.955,0,1,1-1.916,1.955A1.929,1.929,0,0,1,8.339,9.063Zm10.489,9a.194.194,0,0,1-.194.194H5.552a.4.4,0,0,1-.387-.387V16.63A3.213,3.213,0,0,1,8.339,13.4a3.153,3.153,0,0,1,2.5,1.239.179.179,0,0,0,.232.058,2.189,2.189,0,0,1,.871-.174,2.337,2.337,0,0,1,.735.116.184.184,0,0,0,.213-.077A3.255,3.255,0,0,1,15.538,13.2a3.325,3.325,0,0,1,3.29,3.348Zm0,0" fill="#ff8297"/>
      <path id="Path_2158" data-name="Path 2158" d="M15.538,13.979a2.5,2.5,0,0,0-2.071,1.1,1.769,1.769,0,0,1,.194.174c.058.058.116.136.174.194a.019.019,0,0,0,.019.019c.039.058.1.136.135.194a.019.019,0,0,0,.019.019c.039.077.077.135.116.213a.019.019,0,0,0,.019.019c.039.077.058.136.1.213v.019l.058.232v.039c.019.077.019.155.039.213v.039c0,.1.019.174.019.271v.522h3.716v-.909a2.591,2.591,0,0,0-2.535-2.574Zm0,0" fill="#ff8297"/>
      <path id="Path_2159" data-name="Path 2159" d="M16.757,10.728a1.219,1.219,0,1,0-1.219,1.239A1.229,1.229,0,0,0,16.757,10.728Zm0,0" fill="#ff8297"/>
    </g>
  </g>
</svg>
