<svg xmlns="http://www.w3.org/2000/svg" xmlns:xlink="http://www.w3.org/1999/xlink" width="24" height="24" viewBox="0 0 24 24">
 
  <g id="Mask_Group_260" data-name="Mask Group 260" transform="translate(-294.5 -6)" clip-path="url(#clip-path)">
    <g id="svgexport-6_54_" data-name="svgexport-6 (54)" transform="translate(294.5 6)">
      <g id="Group_1848" data-name="Group 1848">
        <g id="_x37__40_">
          <g id="Group_1847" data-name="Group 1847">
            <path id="Path_2163" data-name="Path 2163" d="M17.25,6h6a.75.75,0,0,0,0-1.5h-6a.75.75,0,0,0,0,1.5Zm6,12h-4.5a.75.75,0,0,0,0,1.5h4.5a.75.75,0,0,0,0-1.5Zm0-9h-6a.75.75,0,0,0,0,1.5h6a.75.75,0,0,0,0-1.5Zm0,4.5h-4.5a.75.75,0,0,0,0,1.5h4.5a.75.75,0,0,0,0-1.5Zm-8.473-.511A8.012,8.012,0,0,1,8.25,16.5a8.013,8.013,0,0,1-6.527-3.511A4.446,4.446,0,0,0,0,16.5v3A4.5,4.5,0,0,0,4.5,24H12a4.5,4.5,0,0,0,4.5-4.5v-3A4.446,4.446,0,0,0,14.777,12.989ZM8.25,15C11.978,15,15,11.642,15,7.5S11.978,0,8.25,0,1.5,3.358,1.5,7.5,4.522,15,8.25,15Z" fill="#ff8297"/>
          </g>
        </g>
      </g>
    </g>
  </g>
</svg>
