<svg xmlns="http://www.w3.org/2000/svg" xmlns:xlink="http://www.w3.org/1999/xlink" width="24" height="24" viewBox="0 0 24 24">
 
  <g id="Mask_Group_259" data-name="Mask Group 259" transform="translate(-294.5 -6)" clip-path="url(#clip-path)">
    <g id="svgexport-6_53_" data-name="svgexport-6 (53)" transform="translate(294.5 6)">
      <g id="Group_1846" data-name="Group 1846">
        <g id="Group_1845" data-name="Group 1845">
          <g id="Group_1844" data-name="Group 1844">
            <path id="Path_2160" data-name="Path 2160" d="M12.434,18.977a3.036,3.036,0,0,1-1.905-.71l-3.52-3.1a1.55,1.55,0,0,0-2-.1L0,18.751v2.389a1.163,1.163,0,0,0,1.1,1.226c.033,0,.066,0,.1,0H18.924a1.36,1.36,0,0,0,1.421-1.227V14.876l-6.361,3.681A2.939,2.939,0,0,1,12.434,18.977Z" fill="#ff8297"/>
            <circle id="Ellipse_119" data-name="Ellipse 119" cx="1.421" cy="1.421" r="1.421" transform="translate(10.755 9.871)" fill="#ff8297"/>
            <path id="Path_2161" data-name="Path 2161" d="M23.7,4.156a1.2,1.2,0,0,0-.872-.484L5.233,1.637a1.485,1.485,0,0,0-.969.258,1.485,1.485,0,0,0-.484.84L3.489,5.254H18.924a2.777,2.777,0,0,1,2.712,2.68v11.4c0-.065.291-.129.42-.258a1.1,1.1,0,0,0,.42-.872l1.518-13.11A1.26,1.26,0,0,0,23.7,4.156Z" fill="#ff8297"/>
            <path id="Path_2162" data-name="Path 2162" d="M18.924,6.545H1.2A1.3,1.3,0,0,0,0,7.934v9.2l4.262-3.1a2.842,2.842,0,0,1,3.584.161L11.4,17.3a1.647,1.647,0,0,0,1.905.161l7.039-4.1V7.934A1.485,1.485,0,0,0,18.924,6.545ZM12.175,14a2.712,2.712,0,1,1,2.712-2.712A2.712,2.712,0,0,1,12.175,14Z" fill="#ff8297"/>
          </g>
        </g>
      </g>
    </g>
  </g>
</svg>
