<svg xmlns="http://www.w3.org/2000/svg" xmlns:xlink="http://www.w3.org/1999/xlink" width="24" height="24" viewBox="0 0 24 24">
 
  <g id="Mask_Group_261" data-name="Mask Group 261" transform="translate(-294.5 -6)" clip-path="url(#clip-path)">
    <g id="svgexport-6_55_" data-name="svgexport-6 (55)" transform="translate(293.259 4.759)">
      <g id="Group_1850" data-name="Group 1850">
        <path id="Path_2164" data-name="Path 2164" d="M23.751,7.454,13,18.207a1.413,1.413,0,0,1-2,0L6.328,13.534a.413.413,0,0,1,0-.585L7.57,11.707a.413.413,0,0,1,.585,0L12,15.553,22.241,5.311a11.977,11.977,0,1,0,1.51,2.143ZM13.241,2.069a11.118,11.118,0,0,1,7.735,3.11l-.573.6A10.294,10.294,0,0,0,13.241,2.9q-.2,0-.4.008l-.031-.827c.143-.005.286-.008.43-.008Zm-1.3.076.1.822c-.269.031-.539.074-.8.126l-.161-.812C11.354,2.224,11.646,2.178,11.937,2.145Zm-1.721.339.224.8c-.261.073-.521.157-.773.25L9.38,2.755c.272-.1.554-.192.835-.271ZM8.568,3.09l.347.751c-.247.113-.49.238-.724.369l-.405-.722C8.039,3.347,8.3,3.213,8.568,3.09Zm-1.53.858.46.688c-.223.149-.444.31-.658.478l-.511-.65C6.558,4.283,6.8,4.109,7.038,3.948ZM5.66,5.035l.562.608c-.2.184-.392.377-.576.575l-.607-.562C5.237,5.442,5.446,5.233,5.66,5.035ZM4.469,6.322l.649.513c-.168.213-.329.434-.478.657l-.688-.46C4.113,6.791,4.287,6.552,4.469,6.322ZM3.493,7.779l.722.406c-.131.233-.255.476-.37.724l-.751-.348C3.217,8.294,3.352,8.031,3.493,7.779ZM2.757,9.372l.777.286c-.094.254-.178.515-.251.773l-.8-.224C2.564,9.928,2.655,9.647,2.757,9.372ZM2.282,11.06l.811.161c-.053.266-.095.535-.126.8l-.822-.1C2.179,11.64,2.225,11.347,2.282,11.06ZM13.241,24.414A11.185,11.185,0,0,1,2.069,13.241c0-.144,0-.287.008-.43l.827.031q-.007.2-.007.4A10.357,10.357,0,0,0,13.241,23.586q.2,0,.4-.008l.031.827C13.528,24.411,13.385,24.414,13.241,24.414Zm1.3-.076-.1-.822c.269-.031.539-.074.8-.126l.161.812C15.129,24.259,14.837,24.3,14.546,24.338ZM16.267,24l-.224-.8c.261-.073.521-.157.773-.25l.287.776C16.831,23.828,16.549,23.92,16.267,24Zm1.647-.606-.347-.751c.247-.113.49-.238.724-.369l.405.722c-.253.142-.516.276-.782.4Zm1.53-.858-.46-.688c.223-.149.444-.31.658-.478l.511.65c-.23.181-.47.355-.71.516Zm1.378-1.086-.562-.608c.2-.184.392-.377.576-.575l.607.562C21.246,21.041,21.037,21.25,20.822,21.448Zm1.191-1.287-.649-.513c.168-.213.329-.434.478-.657l.688.46c-.161.241-.335.48-.517.71ZM22.99,18.7l-.722-.406c.131-.233.255-.476.37-.724l.751.348C23.266,18.189,23.131,18.452,22.99,18.7Zm.736-1.593-.777-.286c.094-.254.178-.515.251-.773l.8.224C23.918,16.555,23.827,16.836,23.726,17.111Zm.475-1.688-.811-.161c.053-.266.095-.535.126-.8l.822.1C24.3,14.843,24.258,15.135,24.2,15.422Zm-.622-1.783q.007-.2.007-.4a10.282,10.282,0,0,0-.793-3.979l.764-.319a11.1,11.1,0,0,1,.857,4.3c0,.144,0,.287-.008.43Z" fill="#ff8297"/>
        <path id="Path_2165" data-name="Path 2165" d="M11.707,16.43,7.862,12.585l-.656.656,4.38,4.38a.6.6,0,0,0,.828,0L25.07,4.966l-.656-.656L12.293,16.43a.413.413,0,0,1-.585,0Z" fill="#ff8297"/>
      </g>
    </g>
  </g>
</svg>
