<svg xmlns="http://www.w3.org/2000/svg" xmlns:xlink="http://www.w3.org/1999/xlink" width="24" height="24" viewBox="0 0 24 24">
 
  <g id="Mask_Group_301" data-name="Mask Group 301" transform="translate(-294.5 -2)" clip-path="url(#clip-path)">
    <g id="svgexport-6_74_" data-name="svgexport-6 (74)" transform="translate(293.7 1.2)">
      <g id="information_chat">
        <path id="Path_2334" data-name="Path 2334" d="M12.8.8A11.992,11.992,0,0,0,3.461,20.324L3.2,23.943a.8.8,0,0,0,1.033.821L7.76,23.68A11.851,11.851,0,0,0,12.8,24.8a12,12,0,1,0,0-24Zm2,18.4a.4.4,0,0,1-.4.4H11.2a.4.4,0,0,1-.4-.4V12.8a.4.4,0,0,1,.4-.4h3.2a.4.4,0,0,1,.4.4Zm-2-9.2a2,2,0,1,1,2-2A2,2,0,0,1,12.8,10Z" fill="#fff"/>
      </g>
    </g>
  </g>
</svg>
