<svg xmlns="http://www.w3.org/2000/svg" xmlns:xlink="http://www.w3.org/1999/xlink" width="20" height="20" viewBox="0 0 20 20">
 
  <g id="Mask_Group_306" data-name="Mask Group 306" transform="translate(-228 -154)" clip-path="url(#clip-path)">
    <g id="svgexport-6_81_" data-name="svgexport-6 (81)" transform="translate(228 154)">
      <path id="Path_2356" data-name="Path 2356" d="M17.356,1.27A7.966,7.966,0,0,0,13.516,0a7.494,7.494,0,0,0-3.8,1.246,6.474,6.474,0,0,1-3.231,1.1,6.47,6.47,0,0,1-2.93-.917V0H2.383V20H3.555V12.124a7,7,0,0,0,2.93.767,7.494,7.494,0,0,0,3.8-1.246,6.474,6.474,0,0,1,3.231-1.1,6.871,6.871,0,0,1,3.191,1.074l.91.6V1.444Z" fill="#d4016f"/>
    </g>
  </g>
</svg>
