<svg xmlns="http://www.w3.org/2000/svg" xmlns:xlink="http://www.w3.org/1999/xlink" width="20" height="20" viewBox="0 0 20 20">
  
    
  <g id="Mask_Group_265" data-name="Mask Group 265" transform="translate(-104 -141)" clip-path="url(#clip-path)">
    <g id="svgexport-6_42_" data-name="svgexport-6 (42)" transform="translate(104 142.211)">
      <path id="Path_2180" data-name="Path 2180" d="M8.242,9.375h3.516v1.172H8.242Zm0,0" fill="#d4016f"/>
      <path id="Path_2181" data-name="Path 2181" d="M16.226,10.547h-3.3v.586a.586.586,0,0,1-.586.586H7.656a.586.586,0,0,1-.586-.586v-.586h-3.3a1.756,1.756,0,0,1-1.667-1.2L0,3.024v12.8a1.76,1.76,0,0,0,1.758,1.758H18.242A1.76,1.76,0,0,0,20,15.82V3.024L17.893,9.345A1.756,1.756,0,0,1,16.226,10.547Zm0,0" fill="#d4016f"/>
      <path id="Path_2182" data-name="Path 2182" d="M12.344,0H7.656A1.76,1.76,0,0,0,5.9,1.758v.586H1.008l2.21,6.631a.586.586,0,0,0,.556.4h3.3V8.789A.586.586,0,0,1,7.656,8.2h4.687a.586.586,0,0,1,.586.586v.586h3.3a.586.586,0,0,0,.556-.4l2.21-6.631H14.1V1.758A1.76,1.76,0,0,0,12.344,0ZM7.07,2.344V1.758a.586.586,0,0,1,.586-.586h4.688a.586.586,0,0,1,.586.586v.586Zm0,0" fill="#d4016f"/>
    </g>
  </g>
</svg>
