<svg xmlns="http://www.w3.org/2000/svg" xmlns:xlink="http://www.w3.org/1999/xlink" width="24" height="24" viewBox="0 0 24 24">

  <g id="Mask_Group_251" data-name="Mask Group 251" transform="translate(-36 -103)" clip-path="url(#clip-path)">
    <g id="svgexport-6_49_" data-name="svgexport-6 (49)" transform="translate(35.2 102.2)">
      <circle id="Ellipse_117" data-name="Ellipse 117" cx="11.6" cy="11.6" r="11.6" transform="translate(1.2 1.2)" fill="#ffeb3b"/>
      <circle id="Ellipse_118" data-name="Ellipse 118" cx="10" cy="10" r="10" transform="translate(2.8 2.8)" fill="#fdd835"/>
      <path id="Path_2123" data-name="Path 2123" d="M12.8.8a12,12,0,1,0,12,12,12,12,0,0,0-12-12Zm0,21.6a9.6,9.6,0,1,1,9.6-9.6A9.6,9.6,0,0,1,12.8,22.4ZM22,7.952l.694-.4a11.128,11.128,0,0,1,.818,1.965l-.773.207A10.316,10.316,0,0,0,22,7.952Zm-.4-.692a10.44,10.44,0,0,0-1.169-1.52l.566-.566a11.263,11.263,0,0,1,1.3,1.686ZM19.862,5.174A10.44,10.44,0,0,0,18.342,4l.4-.693a11.263,11.263,0,0,1,1.686,1.3ZM17.648,3.6a10.315,10.315,0,0,0-1.772-.738l.207-.773a11.128,11.128,0,0,1,1.965.818ZM15.1,2.66a10.39,10.39,0,0,0-1.9-.25v-.8a11.174,11.174,0,0,1,2.11.277Zm-2.7-.25a10.39,10.39,0,0,0-1.9.25l-.207-.773A11.174,11.174,0,0,1,12.4,1.61Zm-2.676.455A10.316,10.316,0,0,0,7.952,3.6l-.4-.694a11.128,11.128,0,0,1,1.965-.818ZM7.26,4A10.44,10.44,0,0,0,5.74,5.174l-.566-.566a11.263,11.263,0,0,1,1.686-1.3ZM5.174,5.739A10.44,10.44,0,0,0,4,7.259l-.693-.4a11.263,11.263,0,0,1,1.3-1.686ZM3.6,7.952a10.316,10.316,0,0,0-.738,1.772l-.773-.207A11.128,11.128,0,0,1,2.91,7.552ZM2.66,10.5a10.39,10.39,0,0,0-.25,1.9h-.8a11.174,11.174,0,0,1,.277-2.11Zm-.25,2.7a10.39,10.39,0,0,0,.25,1.9l-.773.207A11.174,11.174,0,0,1,1.61,13.2Zm.455,2.676A10.316,10.316,0,0,0,3.6,17.648l-.694.4a11.128,11.128,0,0,1-.818-1.965ZM4,18.34a10.44,10.44,0,0,0,1.169,1.52l-.566.566a11.263,11.263,0,0,1-1.3-1.686Zm1.734,2.086A10.44,10.44,0,0,0,7.259,21.6l-.4.693a11.263,11.263,0,0,1-1.686-1.3ZM7.952,22a10.316,10.316,0,0,0,1.772.738l-.207.773a11.128,11.128,0,0,1-1.965-.818Zm2.545.943a10.39,10.39,0,0,0,1.9.25v.8a11.174,11.174,0,0,1-2.11-.277Zm2.7.25a10.39,10.39,0,0,0,1.9-.25l.207.773a11.174,11.174,0,0,1-2.11.277Zm2.676-.455A10.316,10.316,0,0,0,17.648,22l.4.694a11.128,11.128,0,0,1-1.965.818ZM18.34,21.6a10.44,10.44,0,0,0,1.52-1.169l.566.566a11.263,11.263,0,0,1-1.686,1.3Zm2.086-1.734a10.44,10.44,0,0,0,1.169-1.52l.693.4a11.263,11.263,0,0,1-1.3,1.686ZM22,17.648a10.316,10.316,0,0,0,.738-1.772l.773.207a11.128,11.128,0,0,1-.818,1.965ZM22.94,15.1a10.39,10.39,0,0,0,.25-1.9h.8a11.174,11.174,0,0,1-.277,2.11Zm.25-2.7a10.39,10.39,0,0,0-.25-1.9l.773-.207a11.174,11.174,0,0,1,.277,2.11Z" fill="#fbc02e"/>
      <g id="Group_1834" data-name="Group 1834">
        <path id="Path_2124" data-name="Path 2124" d="M5.942,11.6h2.4V14h-2.4Z" transform="translate(11.143 -1.302) rotate(45)" fill="#fff59d"/>
        <path id="Path_2125" data-name="Path 2125" d="M11.6,11.6H14V14H11.6Z" transform="translate(12.8 -5.302) rotate(45)" fill="#fff59d"/>
        <path id="Path_2126" data-name="Path 2126" d="M17.254,11.6h2.4V14h-2.4Z" transform="translate(14.457 -9.302) rotate(45)" fill="#fff59d"/>
        <path id="Path_2127" data-name="Path 2127" d="M12.8,5.446l4.526,4.526-1.7,1.7L12.8,8.84,9.972,11.669l-1.7-1.7Z" fill="#fff59d"/>
        <path id="Path_2128" data-name="Path 2128" d="M12.8,20.154,8.274,15.628l1.7-1.7L12.8,16.76l2.828-2.828,1.7,1.7Z" fill="#fff59d"/>
      </g>
    </g>
  </g>
</svg>
