<svg xmlns="http://www.w3.org/2000/svg" xmlns:xlink="http://www.w3.org/1999/xlink" width="36" height="36" viewBox="0 0 36 36">

  <g id="Mask_Group_262" data-name="Mask Group 262" transform="translate(-196 -609)" clip-path="url(#clip-path)">
    <g id="svgexport-6_56_" data-name="svgexport-6 (56)" transform="translate(196 609)">
      <g id="Group_1852" data-name="Group 1852">
        <path id="Path_2166" data-name="Path 2166" d="M27,36H9a9,9,0,0,1-9-9V9A9,9,0,0,1,9,0H27a9,9,0,0,1,9,9V27a9,9,0,0,1-9,9" fill="#00d264" fill-rule="evenodd"/>
        <path id="Path_2167" data-name="Path 2167" d="M16.875,10.125H27a5.063,5.063,0,0,0,.517-10.1C27.345.016,27.175,0,27,0H9A9,9,0,0,0,0,9V27A16.875,16.875,0,0,1,16.875,10.125" fill="#00eb78" fill-rule="evenodd"/>
        <path id="Path_2168" data-name="Path 2168" d="M27,18a9,9,0,1,0,9,9V9a9,9,0,0,1-9,9" fill="#00b950" fill-rule="evenodd"/>
        <g id="Group_1851" data-name="Group 1851">
          <path id="Path_2169" data-name="Path 2169" d="M12.191,26.49a1.127,1.127,0,0,1,.9.123,10.677,10.677,0,1,0-3.7-3.7,1.122,1.122,0,0,1,.121.893c-.313,1.109-1.069,3.755-1.069,3.755l3.754-1.073ZM7.436,24.038a12.938,12.938,0,1,1,4.526,4.526L6.6,30.1a.563.563,0,0,1-.7-.7Z" fill="#fff" fill-rule="evenodd"/>
          <path id="Path_2170" data-name="Path 2170" d="M12.364,13.942A10.521,10.521,0,0,0,22.053,23.7h0a2.792,2.792,0,0,0,2.19-.81l.393-.393a.99.99,0,0,0,.29-.7v-.834a.563.563,0,0,0-.311-.5L22.107,19.21a.563.563,0,0,0-.65.105l-1.091,1.091a.563.563,0,0,1-.508.154h-.005a5.625,5.625,0,0,1-4.413-4.413v-.005a.563.563,0,0,1,.154-.508l1.091-1.091a.563.563,0,0,0,.105-.65l-1.254-2.508a.563.563,0,0,0-.5-.311h-.709a1.2,1.2,0,0,0-.893.4l-.373.415a2.734,2.734,0,0,0-.7,2.019c0,.012,0,.025,0,.038Z" fill="#fff" fill-rule="evenodd"/>
        </g>
      </g>
    </g>
  </g>
</svg>
