<svg id="svgexport-10_2_" data-name="svgexport-10 (2)" xmlns="http://www.w3.org/2000/svg" width="66" height="44.344" viewBox="0 0 66 44.344">
  <path id="Path_2122" data-name="Path 2122" d="M61.636,84H4.364A4.369,4.369,0,0,0,0,88.364v35.615a4.369,4.369,0,0,0,4.364,4.364H61.636A4.369,4.369,0,0,0,66,123.98V88.364A4.369,4.369,0,0,0,61.636,84Zm2.3,39.98a2.3,2.3,0,0,1-2.3,2.3H4.364a2.3,2.3,0,0,1-2.3-2.3V88.364a2.3,2.3,0,0,1,2.3-2.3H61.636a2.3,2.3,0,0,1,2.3,2.3ZM29.992,93.507H6.724a1.031,1.031,0,0,0-1.031,1.031v23.268a1.031,1.031,0,0,0,1.031,1.031H29.992a1.031,1.031,0,0,0,1.031-1.031V94.538a1.031,1.031,0,0,0-1.031-1.031Zm-6.245,23.268H12.97v-1.44a5.389,5.389,0,0,1,10.777,0Zm5.214,0H25.809v-1.44a7.451,7.451,0,0,0-14.9,0v1.44H7.756V95.569H28.961v21.205Zm-10.6-9.806a4.5,4.5,0,1,0-4.5-4.5A4.51,4.51,0,0,0,18.358,106.969Zm0-6.947a2.442,2.442,0,1,1-2.442,2.442A2.445,2.445,0,0,1,18.358,100.022Zm21.565,2.558a1.031,1.031,0,0,1-1.031,1.031h-3.77a1.031,1.031,0,0,1,0-2.062h3.77A1.031,1.031,0,0,1,39.923,102.581Zm20.383,0a1.031,1.031,0,0,1-1.031,1.031H42.631a1.031,1.031,0,1,1,0-2.062H59.276A1.031,1.031,0,0,1,60.307,102.581ZM39.923,115.592a1.031,1.031,0,0,1-1.031,1.031h-3.77a1.031,1.031,0,0,1,0-2.063h3.77A1.031,1.031,0,0,1,39.923,115.592Zm20.383,0a1.031,1.031,0,0,1-1.031,1.031H42.631a1.031,1.031,0,0,1,0-2.063H59.276A1.031,1.031,0,0,1,60.307,115.592Zm0-6.506a1.031,1.031,0,0,1-1.031,1.031H42.631a1.031,1.031,0,0,1,0-2.062H59.276A1.031,1.031,0,0,1,60.307,109.086Zm-20.383,0a1.031,1.031,0,0,1-1.031,1.031h-3.77a1.031,1.031,0,0,1,0-2.062h3.77A1.031,1.031,0,0,1,39.923,109.086ZM60.307,96.075a1.031,1.031,0,0,1-1.031,1.031H42.631a1.031,1.031,0,0,1,0-2.062H59.276A1.031,1.031,0,0,1,60.307,96.075Zm-20.383,0a1.031,1.031,0,0,1-1.031,1.031h-3.77a1.031,1.031,0,1,1,0-2.062h3.77A1.031,1.031,0,0,1,39.923,96.075Z" transform="translate(0 -84)" fill="#cbcbcb"/>
</svg>
