<svg xmlns="http://www.w3.org/2000/svg" xmlns:xlink="http://www.w3.org/1999/xlink" width="24" height="24" viewBox="0 0 24 24">
  <defs>
    <clipPath id="clip-path">
      <rect id="Rectangle_1573" data-name="Rectangle 1573" width="24" height="24" transform="translate(82 2)" fill="#ff8297" stroke="#707070" stroke-width="1"/>
    </clipPath>
  </defs>
  <g id="Mask_Group_330" data-name="Mask Group 330" transform="translate(-82 -2)" clip-path="url(#clip-path)">
    <g id="svgexport-6_89_" data-name="svgexport-6 (89)" transform="translate(83.841 2)">
      <path id="Path_2425" data-name="Path 2425" d="M19.349,10.685a.7.7,0,0,0-.509-.219H16.75a17.617,17.617,0,0,1-4.726,4.367,1.925,1.925,0,0,1-2.034,0,17.512,17.512,0,0,1-4.746-4.37H2.76a.7.7,0,0,0-.584.313L.205,13.735c-.009.013-.017.026-.025.04A1.337,1.337,0,0,0,1.334,15.78H2.8l.149,3.5a1.773,1.773,0,0,0,2.056,1.772l1.514-.2,3.018-.716a1.639,1.639,0,0,0,1.082-.853c.429-.843.976-1.949.981-1.96a.7.7,0,1,1,1.26.628c-.005.011-.556,1.124-.989,1.975a3.044,3.044,0,0,1-2.01,1.584s-2.249.545-3.335.8l0,.98a.7.7,0,0,0,.7.7h8.66a.7.7,0,0,0,.7-.706V17.926c2.041-2.149,2.78-3.3,2.944-6.72a.707.707,0,0,0-.193-.521Zm0,0" fill="#ff8297"/>
      <path id="Path_2426" data-name="Path 2426" d="M11,13.719a.519.519,0,0,1-.274-.078c-.154-.1-3.782-2.367-4.925-5.046A4.029,4.029,0,0,1,5.458,7a3.877,3.877,0,0,1,.886-2.489A2.9,2.9,0,0,1,8.567,3.431,2.982,2.982,0,0,1,11,4.787a2.982,2.982,0,0,1,2.438-1.356,2.9,2.9,0,0,1,2.06.891A3.784,3.784,0,0,1,16.552,7a4.1,4.1,0,0,1-.362,1.6c-1.156,2.676-4.758,4.947-4.911,5.043a.519.519,0,0,1-.275.079Zm0,0" fill="#ff8297"/>
      <path id="Path_2427" data-name="Path 2427" d="M2.929,8.554H2.394a.706.706,0,0,1,0-1.412h.535a.706.706,0,0,1,0,1.412Zm0,0" fill="#ff8297"/>
      <path id="Path_2428" data-name="Path 2428" d="M19.616,8.554H19.07a.706.706,0,0,1,0-1.412h.545a.706.706,0,0,1,0,1.412Zm0,0" fill="#ff8297"/>
      <path id="Path_2429" data-name="Path 2429" d="M5.028,4a.7.7,0,0,1-.5-.207l-.448-.45a.708.708,0,0,1,0-1,.7.7,0,0,1,.994,0l.448.45a.708.708,0,0,1,0,1,.7.7,0,0,1-.5.207Zm0,0" fill="#ff8297"/>
      <path id="Path_2430" data-name="Path 2430" d="M17.049,4a.7.7,0,0,1-.5-.207.708.708,0,0,1,0-1L17,2.35a.7.7,0,1,1,.994,1l-.448.45a.7.7,0,0,1-.5.207Zm0,0" fill="#ff8297"/>
      <path id="Path_2431" data-name="Path 2431" d="M11,1.918a.7.7,0,0,1-.7-.706V.706a.7.7,0,1,1,1.406,0v.506A.7.7,0,0,1,11,1.918Zm0,0" fill="#ff8297"/>
    </g>
  </g>
</svg>
