<svg xmlns="http://www.w3.org/2000/svg" xmlns:xlink="http://www.w3.org/1999/xlink" width="30" height="30" viewBox="0 0 30 30">

  <g id="Group_1809" data-name="Group 1809" transform="translate(-15 -15)">
    <g id="Mask_Group_1" data-name="Mask Group 1" transform="translate(5 -5)" clip-path="url(#clip-path)">
      <g id="alarm" transform="translate(10 20)">
        <g id="Group_1" data-name="Group 1">
          <path id="Path_1" data-name="Path 1" d="M26.394,21.616c-.78-1.165-1.848-2.759-1.848-7.3V12.273a9.559,9.559,0,0,0-6.818-9.143v-.4a2.727,2.727,0,1,0-5.455,0v.4a9.559,9.559,0,0,0-6.818,9.143v2.045c0,4.539-1.068,6.134-1.848,7.3a3.859,3.859,0,0,0-.879,2.247c0,2.223,4.634,3,8.391,3.272a4.062,4.062,0,0,0,7.764,0c3.757-.269,8.391-1.049,8.391-3.272A3.859,3.859,0,0,0,26.394,21.616ZM13.636,2.727a1.364,1.364,0,0,1,2.727,0v.109A9.536,9.536,0,0,0,15,2.727a9.536,9.536,0,0,0-1.364.109V2.727ZM15,28.636a2.7,2.7,0,0,1-2.379-1.416c.966.041,1.805.052,2.379.052s1.413-.011,2.379-.052A2.7,2.7,0,0,1,15,28.636Zm0-2.727c-6.244,0-10.909-1.08-10.909-2.045a2.6,2.6,0,0,1,.649-1.488c.827-1.236,2.079-3.1,2.079-8.057V12.273a8.182,8.182,0,1,1,16.364,0v2.045c0,4.954,1.252,6.822,2.079,8.057a2.6,2.6,0,0,1,.649,1.488C25.909,24.829,21.244,25.909,15,25.909Z"/>
        </g>
      </g>
    </g>
  </g>
</svg>
