<svg xmlns="http://www.w3.org/2000/svg" xmlns:xlink="http://www.w3.org/1999/xlink" width="20" height="20" viewBox="0 0 20 20">
 
  <g id="Mask_Group_331" data-name="Mask Group 331" transform="translate(-345 -79)" clip-path="url(#clip-path)">
    <g id="picture" transform="translate(345 79)">
      <path id="Path_2432" data-name="Path 2432" d="M15.833,0H4.167A4.172,4.172,0,0,0,0,4.167V15.833A4.172,4.172,0,0,0,4.167,20H15.833A4.172,4.172,0,0,0,20,15.833V4.167A4.172,4.172,0,0,0,15.833,0ZM4.167,1.667H15.833a2.5,2.5,0,0,1,2.5,2.5V15.833a2.459,2.459,0,0,1-.25,1.071L10.448,9.268a4.167,4.167,0,0,0-5.893,0L1.667,12.155V4.167a2.5,2.5,0,0,1,2.5-2.5Zm0,16.667a2.5,2.5,0,0,1-2.5-2.5V14.512l4.065-4.065a2.5,2.5,0,0,1,3.537,0L16.9,18.083a2.459,2.459,0,0,1-1.071.25Z" fill="#ff8297"/>
      <path id="Path_2433" data-name="Path 2433" d="M13.333,8.75a2.917,2.917,0,1,0-2.917-2.917A2.917,2.917,0,0,0,13.333,8.75Zm0-4.167a1.25,1.25,0,1,1-1.25,1.25,1.25,1.25,0,0,1,1.25-1.25Z" fill="#ff8297"/>
    </g>
  </g>
</svg>
