<svg xmlns="http://www.w3.org/2000/svg" xmlns:xlink="http://www.w3.org/1999/xlink" width="20" height="20" viewBox="0 0 20 20">

  <g id="Mask_Group_305" data-name="Mask Group 305" transform="translate(-228.5 -154)" clip-path="url(#clip-path)">
    <g id="svgexport-6_80_" data-name="svgexport-6 (80)" transform="translate(228.5 154)">
      <g id="Group_2053" data-name="Group 2053">
        <path id="Path_2354" data-name="Path 2354" d="M6.683,17.119a5.124,5.124,0,1,1,4.2-1.8,3.939,3.939,0,0,0,1.854.622,6.977,6.977,0,0,0-.176-8.124A7,7,0,0,0,9.765,5.61a6.889,6.889,0,0,0-1.9-.525C9.189,4.107,9.7,3.288,9.7,2.573A1.552,1.552,0,0,0,6.975,1.551,1.552,1.552,0,0,0,4.254,2.573c0,.715.508,1.534,1.836,2.512A6.976,6.976,0,1,0,8.537,18.8a8.194,8.194,0,0,1-1.855-1.685Z" fill="#d4016f"/>
        <path id="Path_2355" data-name="Path 2355" d="M13.025,5.029a6.991,6.991,0,0,0-1.562.175A8.2,8.2,0,0,1,13.317,6.89a5.124,5.124,0,1,1-4.2,1.8,3.939,3.939,0,0,0-1.854-.622,6.976,6.976,0,0,0,.176,8.124,7,7,0,0,0,2.791,2.21,6.976,6.976,0,1,0,2.79-13.37Z" fill="#d4016f"/>
      </g>
    </g>
  </g>
</svg>
