<svg xmlns="http://www.w3.org/2000/svg" xmlns:xlink="http://www.w3.org/1999/xlink" width="20" height="20" viewBox="0 0 20 20">
 
  <g id="Mask_Group_270" data-name="Mask Group 270" transform="translate(-134 -154)" clip-path="url(#clip-path)">
    <g id="svgexport-6_39_" data-name="svgexport-6 (39)" transform="translate(132.673 152.584)">
      <path id="Path_2192" data-name="Path 2192" d="M7.437,17.96a.177.177,0,0,0-.177-.177H3.9a.885.885,0,0,0-.885.885v1.864a.885.885,0,0,0,.885.885H7.26a.177.177,0,0,0,.177-.177Zm-.354.177v2.925H3.9a.531.531,0,0,1-.531-.531V18.668a.531.531,0,0,1,.531-.531Z" fill="#d4016f"/>
      <path id="Path_2193" data-name="Path 2193" d="M15.572,13.985a.177.177,0,0,0-.177-.177h-3.36a.885.885,0,0,0-.885.885v6.547a.177.177,0,0,0,.177.177H15.4a.177.177,0,0,0,.177-.177Zm-.354.177v6.9H11.5v-6.37a.531.531,0,0,1,.531-.531Z" fill="#d4016f"/>
      <path id="Path_2194" data-name="Path 2194" d="M19.64,12.206a.885.885,0,0,0-.885-.885H16.1a.885.885,0,0,0-.885.885v9.033a.177.177,0,0,0,.177.177h3.36a.885.885,0,0,0,.885-.885ZM11.5,16.525a.177.177,0,0,0-.177-.177H7.968a.885.885,0,0,0-.885.885v4.006a.177.177,0,0,0,.177.177h4.068a.177.177,0,0,0,.177-.177Z" fill="#d4016f"/>
      <path id="Path_2195" data-name="Path 2195" d="M6.566,16.568a3.335,3.335,0,0,1,.464-2.654,6.381,6.381,0,0,1,.408-.59,7.917,7.917,0,0,1,.743-.836,11.7,11.7,0,0,1,2.367-1.777l0,0a.731.731,0,0,0-.661-1.3,12.112,12.112,0,0,0-2.93,1.737,6.781,6.781,0,0,0-1.008,1.036,5.432,5.432,0,0,0-.538.839,5.076,5.076,0,0,0-.534,1.609A4.32,4.32,0,0,0,5.248,17.2a.731.731,0,0,0,1.317-.634Z" fill="#d4016f"/>
      <path id="Path_2196" data-name="Path 2196" d="M13.893,12.447a6.5,6.5,0,0,1,.458-3.878,6.4,6.4,0,0,1,.408-.59,7.927,7.927,0,0,1,.743-.836A11.7,11.7,0,0,1,17.87,5.366l0,0a.731.731,0,0,0-.661-1.3A12.114,12.114,0,0,0,14.284,5.8a6.777,6.777,0,0,0-1.008,1.036,5.443,5.443,0,0,0-.538.839A5.079,5.079,0,0,0,12.2,9.281a12.146,12.146,0,0,0,.351,3.746.172.172,0,0,0,.012.033.731.731,0,0,0,1.327-.613Z" fill="#d4016f"/>
      <circle id="Ellipse_120" data-name="Ellipse 120" cx="1.415" cy="1.415" r="1.415" transform="translate(6.76 6.761)" fill="#d4016f"/>
      <circle id="Ellipse_121" data-name="Ellipse 121" cx="1.415" cy="1.415" r="1.415" transform="translate(14.082 1.416)" fill="#d4016f"/>
      <path id="Path_2197" data-name="Path 2197" d="M9.316,11.965a5.46,5.46,0,0,1,.4.985,5.272,5.272,0,0,1,.162,2.565h0a.731.731,0,0,1-1.444-.229,4.769,4.769,0,0,0-.4-1.734q-.055-.13-.121-.264c.15-.178.317-.361.507-.546A10.6,10.6,0,0,1,9.316,11.965Zm-2.967-.75q.181-.174.386-.345a9.779,9.779,0,0,1,1.017-.74A8.884,8.884,0,0,0,5.778,8.976a.731.731,0,0,0-.669,1.3A7.545,7.545,0,0,1,6.349,11.215Z" fill="#d4016f"/>
      <path id="Path_2198" data-name="Path 2198" d="M16.638,6.62a10.642,10.642,0,0,0-.887.776c-.19.186-.357.368-.507.546q.067.134.121.264a6,6,0,0,1,.4,2.121.731.731,0,0,0,1.445.222A7.063,7.063,0,0,0,17.042,7.6,5.465,5.465,0,0,0,16.638,6.62Zm-2.967-.75q.181-.174.386-.345a9.791,9.791,0,0,1,1.017-.74A8.887,8.887,0,0,0,13.1,3.631a.731.731,0,0,0-.669,1.3,7.547,7.547,0,0,1,1.24.94Z" fill="#d4016f"/>
    </g>
  </g>
</svg>
