<svg xmlns="http://www.w3.org/2000/svg" xmlns:xlink="http://www.w3.org/1999/xlink" width="24" height="24" viewBox="0 0 24 24">
  
  <g id="Mask_Group_249" data-name="Mask Group 249" transform="translate(-128.75 -759)" clip-path="url(#clip-path)">
    <g id="svgexport-6_12_" data-name="svgexport-6 (12)" transform="translate(128.75 759)">
      <g id="Group_1829" data-name="Group 1829">
        <path id="Path_2120" data-name="Path 2120" d="M12,0A12,12,0,1,0,24,12,12,12,0,0,0,12,0Zm0,3.588A3.969,3.969,0,1,1,8.031,7.558,3.969,3.969,0,0,1,12,3.589Zm0,17.274a8.807,8.807,0,0,1-5.735-2.115,1.691,1.691,0,0,1-.594-1.286,4,4,0,0,1,4.022-4H14.31a4,4,0,0,1,4.016,4,1.687,1.687,0,0,1-.593,1.285A8.8,8.8,0,0,1,12,20.862Z" fill="#8f8f8f"/>
      </g>
    </g>
  </g>
</svg>
