<svg xmlns="http://www.w3.org/2000/svg" xmlns:xlink="http://www.w3.org/1999/xlink" width="24" height="24" viewBox="0 0 24 24">
  
  <g id="Mask_Group_248" data-name="Mask Group 248" transform="translate(-222.5 -759)" clip-path="url(#clip-path)">
    <g id="svgexport-6_47_" data-name="svgexport-6 (47)" transform="translate(222.5 759)">
      <g id="Group_1828" data-name="Group 1828">
        <g id="Page-1_6_">
          <g id="_x30_07---Search-Filters">
            <g id="Group_1827" data-name="Group 1827">
              <circle id="Oval" cx="1.286" cy="1.286" r="1.286" transform="translate(8.571 12.435)" fill="#ff8297"/>
              <path id="Path_49_" d="M23.571,9.006H19.7c.006.142.011.285.011.429s-.005.286-.011.429h3.868A.429.429,0,0,0,24,9.435a.414.414,0,0,0-.123-.3.419.419,0,0,0-.306-.131Z" fill="#ff8297" fill-rule="evenodd"/>
              <circle id="Oval_1_" cx="1.286" cy="1.286" r="1.286" transform="translate(8.571 3.863)" fill="#ff8297"/>
              <path id="Path_48_" d="M6,4.721a.429.429,0,0,0-.429.429.414.414,0,0,0,.123.3A.419.419,0,0,0,6,5.578H7.757a2.142,2.142,0,0,1,0-.857Z" fill="#ff8297" fill-rule="evenodd"/>
              <path id="Path_47_" d="M13.714,11.578a2.133,2.133,0,0,1-1.7-.857H4.286a1.286,1.286,0,0,1,0-2.571h7.725a2.121,2.121,0,0,1,3.406,0h1.609a7.653,7.653,0,0,0-.491-1.714H11.56a2.121,2.121,0,0,1-3.406,0H6A1.286,1.286,0,0,1,6,3.863H8.154a2.121,2.121,0,0,1,3.406,0H14.75a7.714,7.714,0,1,0,0,11.143H11.56a2.121,2.121,0,0,1-3.406,0H6a1.286,1.286,0,1,1,0-2.571H8.154a2.121,2.121,0,0,1,3.406,0h4.975a7.651,7.651,0,0,0,.491-1.714H15.417a2.133,2.133,0,0,1-1.7.857Z" fill="#ff8297" fill-rule="evenodd"/>
              <path id="Path_46_" d="M23.571,5.578A.429.429,0,0,0,24,5.149a.414.414,0,0,0-.123-.3.419.419,0,0,0-.306-.131H18.566q.216.418.4.857Z" fill="#ff8297" fill-rule="evenodd"/>
              <circle id="Oval_2_" cx="1.286" cy="1.286" r="1.286" transform="translate(12.428 8.149)" fill="#ff8297"/>
              <path id="Path_45_" d="M12,5.149a2.142,2.142,0,0,1-.043.429H16.1a7.749,7.749,0,0,0-.578-.857H11.957A2.139,2.139,0,0,1,12,5.149Z" fill="#ff8297" fill-rule="evenodd"/>
              <path id="Path_44_" d="M12,13.721a2.142,2.142,0,0,1-.043.429h3.564a7.746,7.746,0,0,0,.578-.857H11.957a2.139,2.139,0,0,1,.043.429Z" fill="#ff8297" fill-rule="evenodd"/>
              <path id="Path_43_" d="M6,13.292a.429.429,0,0,0-.429.429.414.414,0,0,0,.123.3A.419.419,0,0,0,6,14.149H7.757a2.142,2.142,0,0,1,0-.857Z" fill="#ff8297" fill-rule="evenodd"/>
              <path id="Rectangle_2_" d="M17.183,18.046h2.571V18.9H17.183Z" transform="translate(-7.655 18.475) rotate(-45)" fill="#ff8297" fill-rule="evenodd"/>
              <path id="Path_42_" d="M21.5,19.69l-1.818,1.818,2.121,2.122a1.317,1.317,0,0,0,1.818,0,1.286,1.286,0,0,0,0-1.819Z" fill="#ff8297" fill-rule="evenodd"/>
              <path id="Path_41_" d="M20.593,18.781l-.3-.3L18.472,20.3l.606.606L20.9,19.084Z" fill="#ff8297" fill-rule="evenodd"/>
              <path id="Path_40_" d="M23.571,13.292H18.961q-.178.439-.4.857h5.006A.429.429,0,0,0,24,13.721a.414.414,0,0,0-.123-.3.419.419,0,0,0-.306-.131Z" fill="#ff8297" fill-rule="evenodd"/>
            </g>
            <path id="Shape_15_" d="M9.429.006a9.428,9.428,0,1,0,9.429,9.428A9.428,9.428,0,0,0,9.429.006Zm0,18A8.571,8.571,0,1,1,18,9.435,8.571,8.571,0,0,1,9.429,18.006Z" fill="#ff8297"/>
            <path id="Path_39_" d="M16.994,16.394q-.291.315-.607.607l.871.871.607-.607Z" fill="#ff8297" fill-rule="evenodd"/>
            <path id="Path_38_" d="M17.121,9.006H15.814a2.142,2.142,0,0,1,0,.857h1.307c.008-.143.022-.284.022-.429S17.129,9.149,17.121,9.006Z" fill="#ff8297" fill-rule="evenodd"/>
            <path id="Path_37_" d="M4.286,9.006a.429.429,0,0,0-.429.429.414.414,0,0,0,.123.3.419.419,0,0,0,.306.131h7.329a2.142,2.142,0,0,1,0-.857Z" fill="#ff8297" fill-rule="evenodd"/>
          </g>
        </g>
      </g>
    </g>
  </g>
</svg>
