<svg xmlns="http://www.w3.org/2000/svg" xmlns:xlink="http://www.w3.org/1999/xlink" width="24" height="24" viewBox="0 0 24 24">
  
  <g id="Mask_Group_247" data-name="Mask Group 247" transform="translate(-316.25 -759)" clip-path="url(#clip-path)">
    <g id="svgexport-6_46_" data-name="svgexport-6 (46)" transform="translate(316.251 759)">
      <path id="Path_2119" data-name="Path 2119" d="M23.353,10.439l0,0L13.561.647a2.209,2.209,0,0,0-3.125,0L.652,10.432l-.01.01a2.208,2.208,0,0,0,1.47,3.764q.034,0,.068,0h.39v7.2A2.589,2.589,0,0,0,5.156,24h3.83a.7.7,0,0,0,.7-.7V17.648a1.181,1.181,0,0,1,1.18-1.18h2.259a1.181,1.181,0,0,1,1.18,1.18V23.3a.7.7,0,0,0,.7.7h3.83a2.589,2.589,0,0,0,2.586-2.586v-7.2h.362a2.21,2.21,0,0,0,1.564-3.771Zm0,0" fill="#8f8f8f"/>
    </g>
  </g>
</svg>
